<svg width="41" height="68" xmlns="http://www.w3.org/2000/svg" xmlns:xlink="http://www.w3.org/1999/xlink" xml:space="preserve" overflow="hidden"><g><g><g><g><g><path d="M32.3221 36.8705C29.7298 36.8705 27.4058 38.019 25.8143 39.8272L21.7362 36.9402C22.1691 35.7483 22.4177 34.4685 22.4177 33.129 22.4177 31.8126 22.1778 30.5543 21.7591 29.38L25.8281 26.5236C27.4194 28.3227 29.7373 29.4649 32.3221 29.4649 37.1068 29.4649 41 25.5723 41 20.787 41 16.0017 37.1068 12.1091 32.3221 12.1091 27.5374 12.1091 23.6442 16.0017 23.6442 20.787 23.6442 21.6435 23.7736 22.4694 24.0058 23.2516L19.9342 26.1095C18.2333 23.9994 15.7844 22.5261 12.9941 22.0764L12.9941 17.1692C16.925 16.3436 19.8868 12.8511 19.8868 8.67791 19.8868 3.8926 15.9935 0 11.2089 0 6.42419 0 2.53095 3.8926 2.53095 8.67791 2.53095 12.7952 5.416 16.2446 9.26824 17.1292L9.26824 22.1001C4.01095 23.0229 0 27.6111 0 33.129 0 38.6737 4.05067 43.2787 9.34592 44.1701L9.34592 49.4191C5.45428 50.2745 2.53095 53.7451 2.53095 57.8904 2.53095 62.6757 6.42419 66.5683 11.2089 66.5683 15.9935 66.5683 19.8868 62.6757 19.8868 57.8904 19.8868 53.7451 16.9634 50.2745 13.0718 49.4191L13.0718 44.17C15.752 43.7185 18.1768 42.3083 19.8944 40.2019L23.9997 43.1077C23.7718 43.8828 23.6442 44.7006 23.6442 45.5484 23.6442 50.3337 27.5374 54.2263 32.3221 54.2263 37.1068 54.2263 41 50.3337 41 45.5484 41 40.7631 37.1068 36.8705 32.3221 36.8705ZM32.3221 16.5795C34.6423 16.5795 36.5294 18.4675 36.5294 20.787 36.5294 23.1065 34.6423 24.9943 32.3221 24.9943 30.0019 24.9943 28.1148 23.1065 28.1148 20.787 28.1148 18.4675 30.0019 16.5795 32.3221 16.5795ZM7.00139 8.67791C7.00139 6.35836 8.88867 4.4706 11.2089 4.4706 13.529 4.4706 15.4162 6.35836 15.4162 8.67791 15.4162 10.9974 13.529 12.8852 11.2089 12.8852 8.88867 12.8852 7.00139 10.9974 7.00139 8.67791ZM15.4162 57.8904C15.4162 60.2099 13.529 62.0977 11.2089 62.0977 8.88867 62.0977 7.00139 60.2099 7.00139 57.8904 7.00139 55.5709 8.88867 53.6831 11.2089 53.6831 13.529 53.6831 15.4162 55.5709 15.4162 57.8904ZM11.2085 38.9968C7.97258 38.9968 5.34009 36.3648 5.34009 33.129 5.34009 29.893 7.97258 27.2605 11.2085 27.2605 14.4443 27.2605 17.0768 29.893 17.0768 33.129 17.0768 36.3648 14.4443 38.9968 11.2085 38.9968ZM32.3221 49.7559C30.0019 49.7559 28.1148 47.868 28.1148 45.5484 28.1148 43.2289 30.0019 41.3411 32.3221 41.3411 34.6423 41.3411 36.5294 43.2289 36.5294 45.5484 36.5294 47.868 34.6423 49.7559 32.3221 49.7559Z" fill="#000000" fill-rule="nonzero" fill-opacity="1" transform="matrix(1 0 0 1.00533 0 0.01005)"/></g></g></g></g></g></svg>