<svg width="64" height="68" xmlns="http://www.w3.org/2000/svg" xmlns:xlink="http://www.w3.org/1999/xlink" xml:space="preserve" overflow="hidden"><g><g><g><g><g><path d="M13.7913 30.9734 49.0466 30.9734 49.0466 20.2903 37.8147 20.2903C36.6355 20.2903 34.9945 19.6545 34.2174 18.8775 33.4404 18.1004 32.9676 16.6984 32.9676 15.5247L32.9676 4.15152 4.42865 4.15152C4.33084 4.15152 4.25476 4.20042 4.20586 4.24933 4.12435 4.30367 4.10261 4.37431 4.10261 4.47755L4.10261 62.3217C4.10261 62.3978 4.15152 62.4956 4.20042 62.5445 4.24933 62.6205 4.35257 62.6423 4.42321 62.6423 16.8017 62.6423 35.9889 62.6423 48.7151 62.6423 48.8129 62.6423 48.8075 62.5934 48.8618 62.5445 48.9379 62.4956 49.0412 62.3923 49.0412 62.3217L49.0412 56.2574 13.7913 56.2574C11.5417 56.2574 9.68325 54.4099 9.68325 52.1494L9.68325 35.076C9.68325 32.8209 11.5308 30.9734 13.7913 30.9734ZM16.0246 37.1572 20.062 37.1572 20.062 47.0197 26.3817 47.0197 26.3817 50.2366 16.0246 50.2366 16.0246 37.1572ZM27.1098 43.7051C27.1098 41.5695 27.7021 39.9067 28.8922 38.7221 30.0822 37.5321 31.7396 36.9398 33.8642 36.9398 36.0432 36.9398 37.7169 37.5267 38.896 38.6895 40.0752 39.8578 40.6621 41.4934 40.6621 43.6018 40.6621 45.1287 40.4067 46.3785 39.8904 47.3567 39.3742 48.3348 38.6298 49.0955 37.6571 49.6389 36.6844 50.1823 35.4727 50.454 34.0218 50.454 32.5492 50.454 31.3266 50.2203 30.3593 49.753 29.3921 49.2803 28.6096 48.5412 28.0119 47.5197 27.4087 46.5035 27.1098 45.232 27.1098 43.7051ZM31.1418 43.7105C31.1418 45.0309 31.3863 45.9764 31.8808 46.5524 32.3753 47.1284 33.0437 47.4164 33.8914 47.4164 34.7608 47.4164 35.4346 47.1339 35.9074 46.5687 36.3856 46.0036 36.6246 44.9929 36.6246 43.5257 36.6246 42.2977 36.3747 41.3956 35.8802 40.8305 35.3803 40.2599 34.7065 39.9774 33.8533 39.9774 33.0383 39.9774 32.3808 40.2654 31.8863 40.8414 31.3918 41.4282 31.1418 42.3792 31.1418 43.7105ZM49.1335 45.5037 49.1335 42.7813 55.3771 42.7813 55.3771 48.3402C54.1817 49.1553 53.122 49.715 52.2091 50.0084 51.2908 50.3018 50.1986 50.4486 48.9379 50.4486 47.3838 50.4486 46.1177 50.1823 45.1396 49.6552 44.1615 49.1281 43.4062 48.3402 42.8682 47.2914 42.3303 46.2481 42.064 45.0472 42.064 43.6888 42.064 42.2596 42.3574 41.0207 42.9443 39.9665 43.5312 38.9123 44.3952 38.1135 45.5308 37.5647 46.4166 37.1409 47.612 36.9289 49.1064 36.9289 50.5518 36.9289 51.6277 37.0594 52.345 37.3202 53.0623 37.581 53.6546 37.9886 54.1273 38.5374 54.6001 39.0862 54.9533 39.7872 55.1924 40.6294L51.3017 41.3304C51.1387 40.8359 50.867 40.4556 50.4866 40.1947 50.1008 39.9285 49.6172 39.7981 49.0194 39.7981 48.1391 39.7981 47.4327 40.1078 46.9056 40.7218 46.3785 41.3359 46.1177 42.3085 46.1177 43.6398 46.1177 45.0527 46.384 46.0634 46.9165 46.6665 47.4436 47.2697 48.188 47.5794 49.139 47.5794 49.59 47.5794 50.0193 47.5142 50.4268 47.3838 50.8344 47.2534 51.3017 47.0306 51.8342 46.7209L51.8342 45.4982 49.1335 45.4982 49.1335 45.5037ZM53.1383 30.9734 58.5342 30.9734C60.7947 30.9734 62.6423 32.8263 62.6423 35.0814L62.6423 52.1548C62.6423 54.4099 60.7893 56.2629 58.5342 56.2629L53.1383 56.2629 53.1383 63.6258C53.1383 64.5007 52.7851 65.2777 52.2146 65.8537 51.6386 66.4297 50.8615 66.7775 49.9867 66.7775 33.9892 66.7775 19.2361 66.7775 3.15711 66.7775 2.28225 66.7775 1.5052 66.4297 0.929201 65.8537 0.353205 65.2777 0.00543392 64.5007 0.00543392 63.6258L0.00543392 3.17885C0.00543392 2.30398 0.358639 1.52693 0.929201 0.950937 1.5052 0.374941 2.30398 0.0271696 3.15711 0.0271696L35.0651 0.0271696C35.1358 0 35.2118 0 35.2879 0 35.6357 0 35.9889 0.15215 36.2388 0.374941L36.2877 0.374941C36.3367 0.40211 36.3638 0.423846 36.4127 0.472751L52.7091 16.9701C52.9862 17.2473 53.1872 17.6222 53.1872 18.0461 53.1872 18.171 53.1601 18.2689 53.1383 18.3993L53.1383 30.9734ZM36.6899 15.1987 36.6899 4.85793 48.3348 16.6495 38.1407 16.6495C37.7386 16.6495 37.3908 16.4757 37.1137 16.2257 36.8637 15.9757 36.6899 15.6008 36.6899 15.1987Z" fill="#000000" fill-rule="evenodd" fill-opacity="1" transform="matrix(1.00571 0 0 1 9.32533e-16 0.113971)"/></g></g></g></g></g></svg>