<svg width="69" height="68" xmlns="http://www.w3.org/2000/svg" xmlns:xlink="http://www.w3.org/1999/xlink" xml:space="preserve" overflow="hidden"><g><g><g><g><g><path d="M34.3035 0C15.3606 0 0 15.358 0 34.3035 0 49.4599 9.82898 62.3183 23.4589 66.8542 25.1732 67.1717 25.8028 66.1101 25.8028 65.204 25.8028 64.3861 25.7707 61.6836 25.7562 58.8173 16.2127 60.8924 14.1989 54.7699 14.1989 54.7699 12.6385 50.8049 10.3902 49.7508 10.3902 49.7508 7.27798 47.6216 10.6248 47.6652 10.6248 47.6652 14.0695 47.9073 15.8834 51.2003 15.8834 51.2003 18.9429 56.4447 23.9082 54.9284 25.8657 54.0521 26.1735 51.8347 27.0627 50.3217 28.0436 49.4651 20.4244 48.5974 12.4147 45.656 12.4147 32.512 12.4147 28.767 13.7548 25.7067 15.9493 23.3045 15.5931 22.4403 14.419 18.9515 16.2816 14.2264 16.2816 14.2264 19.1621 13.3044 25.7175 17.7427 28.4536 16.9824 31.3882 16.6014 34.3035 16.5885 37.2188 16.6014 40.1556 16.9824 42.8971 17.7427 49.4446 13.3044 52.3211 14.2264 52.3211 14.2264 54.1883 18.9515 53.0136 22.4403 52.6574 23.3045 54.8568 25.7067 56.1877 28.7667 56.1877 32.512 56.1877 45.6872 48.1629 48.5885 40.5244 49.4376 41.7547 50.5022 42.8511 52.5899 42.8511 55.7901 42.8511 60.3799 42.8112 64.074 42.8112 65.204 42.8112 66.1168 43.4287 67.1865 45.1677 66.8497 58.7901 62.3086 68.6067 49.4548 68.6067 34.3035 68.6067 15.358 53.2482 0 34.3035 0" fill="#161614" fill-rule="nonzero" fill-opacity="1" transform="scale(1.00184 1)"/><path d="M12.8478 48.8662C12.7725 49.0365 12.504 49.0876 12.26 48.9708 12.0111 48.8589 11.8712 48.6265 11.9519 48.4554 12.0259 48.28 12.2944 48.231 12.5428 48.3488 12.7921 48.4605 12.9342 48.6951 12.8478 48.8662M14.5352 50.3717C14.3717 50.5234 14.0518 50.453 13.8347 50.2132 13.6103 49.9741 13.5683 49.6545 13.7343 49.5003 13.903 49.3488 14.2132 49.4196 14.4381 49.659 14.6625 49.9009 14.7061 50.2186 14.535 50.372M15.6929 52.298C15.4825 52.4441 15.1387 52.3072 14.9264 52.0021 14.7163 51.6973 14.7163 51.3314 14.931 51.1847 15.1441 51.0381 15.4825 51.1699 15.6977 51.4726 15.9076 51.7828 15.9076 52.1487 15.6926 52.2983M17.6504 54.5291C17.4624 54.7363 17.062 54.6809 16.7688 54.3978 16.4691 54.1213 16.3854 53.7287 16.574 53.5213 16.7642 53.3136 17.167 53.372 17.4624 53.6526 17.7602 53.9286 17.8511 54.3241 17.6507 54.5291M20.1804 55.2824C20.0978 55.5509 19.712 55.6731 19.3235 55.559 18.9356 55.4414 18.6816 55.1267 18.7599 54.8552 18.8406 54.5848 19.228 54.4576 19.6195 54.5797 20.0069 54.6967 20.2614 55.0091 20.1807 55.2824M23.0602 55.6018C23.0699 55.8848 22.7403 56.1194 22.3325 56.1245 21.9222 56.1334 21.5905 55.9044 21.5861 55.6263 21.5861 55.3405 21.9082 55.1081 22.3182 55.1014 22.7261 55.0933 23.0602 55.3206 23.0602 55.6018M25.8888 55.4934C25.9378 55.7694 25.6542 56.053 25.2493 56.1283 24.8512 56.2009 24.4826 56.0306 24.4317 55.757 24.3822 55.474 24.6712 55.1907 25.0686 55.1172 25.4743 55.0468 25.8372 55.2128 25.8888 55.4934" fill="#161614" fill-rule="nonzero" fill-opacity="1" transform="scale(1.00184 1)"/></g></g></g></g></g></svg>