<svg width="188" height="38" xmlns="http://www.w3.org/2000/svg" xmlns:xlink="http://www.w3.org/1999/xlink" xml:space="preserve" overflow="hidden"><g><g><g><g><g><path d="M83.7921 19.1937C83.7921 26.2131 79.5094 29.5316 74.1491 29.5316L70.8731 29.5316 70.8731 25.3197 73.8938 25.3197C77.1271 25.3197 79.2823 23.5757 79.2823 19.1937 79.2823 14.8542 77.244 12.6841 73.7979 12.6841 70.4795 12.6841 68.1077 14.7266 68.1077 19.1086L68.1077 36.7219 63.6405 36.7219 63.6405 9.02524 68.1077 9.02524 68.1077 11.4081 68.7458 11.4081C70.2349 9.4085 72.4365 8.51471 74.7338 8.51471 79.669 8.51471 83.7921 12.0884 83.7921 19.1937ZM54.4336 17.364 51.4553 17.0661C49.1155 16.8533 47.8816 16.2151 47.8816 14.8537 47.8816 13.2369 49.4559 12.301 51.7106 12.301 54.0507 12.301 55.5396 13.4072 55.6672 14.9813L59.9642 14.9813C59.7941 10.9822 56.6885 8.51452 51.7533 8.51452 46.7756 8.51452 43.4145 11.1525 43.4145 15.0238 43.4145 18.2573 45.4566 20.3419 50.094 20.8099L53.1146 21.1077C54.9441 21.2778 56.1779 21.6607 56.1779 23.405 56.1779 24.9793 55.0291 26.1278 52.0085 26.1278 49.2269 26.1278 47.8564 24.8657 47.3755 23.1737L42.7268 23.1737C43.1899 27.0412 46.4388 30.0419 52.0085 30.0419 57.2415 30.0419 60.6449 27.2765 60.6449 23.1924 60.6449 19.5761 58.2625 17.7467 54.4336 17.3638ZM101.093 23.1739C100.393 24.7834 98.7181 26.0005 96.3419 26.0005 93.0661 26.0005 90.6411 23.8733 90.6411 19.2785 90.6411 14.8963 92.8958 12.4713 96.3844 12.4713 99.4902 12.4713 101.277 14.3433 101.447 17.1512L93.4063 17.1512 93.4063 20.3849 105.829 20.3849 105.829 18.2574C105.829 12.3437 101.915 8.51471 96.3419 8.51471 91.1516 8.51471 86.1737 12.0459 86.1737 19.2785 86.1737 26.5109 91.1516 30.0421 96.3419 30.0421 101.089 30.0421 104.475 27.1178 105.526 23.1739ZM30.6727 8.51471C25.7801 8.51471 22.1213 11.0677 21.6959 14.9815L26.5033 14.9815C26.8437 13.5352 28.1625 12.4717 30.6727 12.4717 33.9061 12.4717 34.9697 14.1737 34.9697 16.2582L34.9697 23.2776C33.1403 25.3626 31.0131 26.3408 28.8858 26.3408 26.6736 26.3408 25.142 25.2772 25.142 23.3631 25.142 21.5332 26.3332 20.3849 28.6305 20.3849L32.2043 20.3849 32.2043 17.1512 28.5029 17.1512C23.3976 17.1512 20.5472 19.7042 20.5472 23.618 20.5472 27.2767 23.3125 30.0421 27.8647 30.0421 30.4174 30.0421 32.6723 29.0214 34.3315 27.7872L34.9697 27.7872 34.9697 29.5316 39.4368 29.5316 39.4368 15.8324C39.4368 10.7696 35.9907 8.51471 30.6727 8.51471ZM0.363108 29.5316 4.83025 29.5316 4.83025 1.45243 0.363108 1.45243ZM19.1251 9.02524 13.6796 9.02524 7.16993 17.577 7.16993 20.2573 13.8493 29.5316 19.3802 29.5316 11.5523 18.8956ZM180.613 9.02524 176.954 17.1514C176.061 19.1088 175.21 21.0229 174.955 22.2996L174.316 22.2996C174.061 21.0229 173.168 19.1511 172.275 17.1943L168.616 9.02542 163.68 9.02542 172.275 27.4472 168.02 36.722 172.785 36.722 185.548 9.02524ZM162.692 9.02524 157.247 9.02524 150.737 17.577 150.737 20.2573 157.417 29.5316 162.948 29.5316 155.119 18.8956ZM134.723 17.364 131.745 17.0661C129.405 16.8533 128.172 16.2151 128.172 14.8537 128.172 13.2369 129.746 12.301 132.001 12.301 134.34 12.301 135.83 13.4072 135.957 14.9813L140.254 14.9813C140.084 10.9822 136.978 8.51452 132.043 8.51452 127.065 8.51452 123.704 11.1525 123.704 15.0238 123.704 18.2573 125.747 20.3419 130.384 20.8099L133.405 21.1077C135.234 21.2778 136.468 21.6607 136.468 23.405 136.468 24.9793 135.319 26.1278 132.298 26.1278 129.517 26.1278 128.146 24.8657 127.665 23.1737L123.017 23.1737C123.48 27.0412 126.729 30.0419 132.298 30.0419 137.531 30.0419 140.935 27.2765 140.935 23.1924 140.935 19.5761 138.552 17.7467 134.723 17.3638ZM143.93 29.5316 148.397 29.5316 148.397 1.45243 143.93 1.45243ZM114.473 11.4081 113.835 11.4081 113.835 9.02505 109.367 9.02505 109.367 29.5316 113.835 29.5316 113.835 18.8105C113.835 15.1516 115.525 13.0243 118.855 13.0243L121.683 13.0243 121.683 8.51489 120.046 8.51489C116.957 8.51489 115.644 9.6801 114.473 11.4083Z" fill="#006D5C" fill-rule="nonzero" fill-opacity="1" transform="matrix(1.0098 0 0 1 -0.366667 -0.0872367)"/></g></g></g></g></g></svg>