<svg width="77" height="77" xmlns="http://www.w3.org/2000/svg" xmlns:xlink="http://www.w3.org/1999/xlink" xml:space="preserve" overflow="hidden"><g><g><path d="M18.865 31.8587C25.8912 31.8587 32.5325 33.6875 38.3075 36.7675L58.905 12.0312 18.095 12.0312 18.095 61.1187 18.095 31.8587 18.865 31.8587Z" fill="#E9478B" fill-rule="nonzero" fill-opacity="1"/><path d="M38.3075 36.7675 18.095 61.1187 18.095 64.9688 58.8087 64.9688C56.4987 52.8413 48.7987 42.5425 38.3075 36.7675Z" fill="#3EBEB0" fill-rule="nonzero" fill-opacity="1"/><path d="M38.3075 36.7675 18.095 61.1187 18.095 64.9688 25.3137 64.9688 44.9487 41.2913C44.9487 41.2913 43.6012 40.2325 41.7725 38.885 40.425 37.9225 38.3075 36.7675 38.3075 36.7675Z" fill="#37A595" fill-rule="nonzero" fill-opacity="1"/><path d="M18.865 31.8587 18.095 31.8587 18.095 61.1187 38.3075 36.7675C32.5325 33.6875 25.8912 31.8587 18.865 31.8587Z" fill="#353535" fill-rule="nonzero" fill-opacity="1"/></g></g></svg>