<svg width="84" height="68" xmlns="http://www.w3.org/2000/svg" xmlns:xlink="http://www.w3.org/1999/xlink" xml:space="preserve" overflow="hidden"><defs><clipPath id="clip0"><rect x="0" y="0" width="83" height="67"/></clipPath><clipPath id="clip1"><rect x="0" y="0" width="83" height="67"/></clipPath><clipPath id="clip2"><rect x="0" y="0" width="83" height="67"/></clipPath></defs><g><g><g clip-path="url(#clip0)"><g clip-path="url(#clip1)"><g clip-path="url(#clip2)"><path d="M52.6622 18.3925 55.1947 18.3925 62.4098 11.1774 62.7646 8.11606C49.3399-3.73276 28.8463-2.45604 16.9974 10.9687 13.703 14.698 11.3131 19.1334 10.012 23.9342 10.8156 23.6037 11.7062 23.5515 12.5446 23.7811L26.9712 21.4016C26.9712 21.4016 27.7052 20.1875 28.0844 20.264 34.5028 13.216 45.3045 12.395 52.7144 18.3925L52.6622 18.3925Z" fill="#EA4335" fill-rule="nonzero" fill-opacity="1" transform="matrix(1 0 0 1.00315 0.00305664 1.40393e-15)"/><path d="M72.6862 23.9342C71.0268 17.8289 67.6245 12.3393 62.8899 8.14041L52.7665 18.2637C57.042 21.7565 59.4772 27.0199 59.3728 32.5408L59.3728 34.3393C64.351 34.3393 68.3829 38.3747 68.3829 43.3494 68.3829 48.3276 64.3475 52.3595 59.3728 52.3595L41.3491 52.3595 39.5506 54.1824 39.5506 64.9911 41.3491 66.7896 59.3728 66.7896C69.7048 66.8696 78.8715 60.1729 81.9398 50.307 85.0012 40.4376 81.244 29.7229 72.6862 23.9342Z" fill="#4285F4" fill-rule="nonzero" fill-opacity="1" transform="matrix(1 0 0 1.00315 0.00305664 1.40393e-15)"/><path d="M23.301 66.6887 41.3247 66.6887 41.3247 52.2621 23.301 52.2621C22.0174 52.2621 20.7476 51.9873 19.5787 51.4515L17.0462 52.2343 9.7824 59.4493 9.14926 61.9819C13.2229 65.0572 18.1942 66.7096 23.301 66.6887Z" fill="#34A853" fill-rule="nonzero" fill-opacity="1" transform="matrix(1 0 0 1.00315 0.00305664 1.40393e-15)"/><path d="M23.301 19.8849C13.289 19.944 4.42156 26.3554 1.22802 35.8421-1.96553 45.3288 1.21758 55.8001 9.15274 61.9019L19.6066 51.4481C15.0702 49.3991 13.056 44.0626 15.105 39.5262 17.154 34.9898 22.4905 32.9756 27.0268 35.0246 29.0237 35.9291 30.6239 37.5294 31.5284 39.5262L41.9822 29.0724C37.5328 23.2593 30.6205 19.8605 23.301 19.8849Z" fill="#FBBC05" fill-rule="nonzero" fill-opacity="1" transform="matrix(1 0 0 1.00315 0.00305664 1.40393e-15)"/></g></g></g></g></g></svg>