<svg width="65" height="68" xmlns="http://www.w3.org/2000/svg" xmlns:xlink="http://www.w3.org/1999/xlink" xml:space="preserve" overflow="hidden"><g><g><g><g><g><path d="M64.7115 40.1163C64.3219 38.9366 63.3016 38.1149 61.982 37.9177 61.3598 37.8248 60.6472 37.8644 59.804 38.0382 58.3342 38.3415 57.2437 38.4569 56.4479 38.4793 59.4517 33.4078 61.8942 27.6246 63.3003 22.1806 65.574 13.3779 64.359 9.36764 62.9392 7.55375 59.1817 2.75256 53.6997 0.17332 47.0861 0.0943997 43.5581 0.05126 40.4609 0.747838 38.8452 1.24877 37.3409 0.98333 35.7234 0.835132 34.0263 0.807726 30.8448 0.756974 28.0339 1.45051 25.632 2.87589 24.3023 2.42622 22.1682 1.79232 19.7036 1.38783 13.9072 0.436218 9.23543 1.17771 5.81827 3.59175 1.68042 6.51459-0.237775 11.5929 0.116985 18.6855 0.229655 20.9374 1.48933 27.789 3.47274 34.2869 4.61264 38.0217 5.82816 41.1232 7.08556 43.5061 8.86875 46.8849 10.7768 48.8747 12.9188 49.5893 14.1193 49.9892 16.3007 50.2693 18.595 48.3585 18.8858 48.7107 19.2738 49.0607 19.7887 49.3857 20.4426 49.7981 21.2422 50.1351 22.0408 50.3348 24.9187 51.0542 27.6144 50.8743 29.9143 49.8659 29.9285 50.2749 29.9394 50.6657 29.9485 51.0032 29.9638 51.5506 29.979 52.0873 29.999 52.5892 30.1353 55.9831 30.3662 58.6219 31.0504 60.4683 31.0879 60.5698 31.1384 60.7246 31.1917 60.8888 31.533 61.9338 32.1037 63.6832 33.5558 65.0533 35.0593 66.4726 36.878 66.9078 38.5437 66.9078 39.3791 66.9078 40.1762 66.7982 40.8753 66.6484 43.3673 66.1143 46.1975 65.3007 48.2448 62.3855 50.1805 59.6296 51.1215 55.4788 51.2917 48.9386 51.3138 48.7536 51.3341 48.577 51.3537 48.4088L51.3943 48.0631 51.8503 48.1032 51.9678 48.1111C54.5059 48.2268 57.6094 47.6886 59.5154 46.8032 61.0215 46.1043 65.8478 43.5563 64.7115 40.1163" fill="#000000" fill-rule="nonzero" fill-opacity="1" transform="scale(1.00057 1)"/><path d="M60.3716 40.7852C52.8247 42.342 52.3058 39.7869 52.3058 39.7869 60.2739 27.9634 63.6051 12.9551 60.7307 9.28187 52.8884-0.737941 39.3134 4.00082 39.0868 4.12364L39.014 4.13684C37.5228 3.82725 35.8544 3.64301 33.9788 3.61231 30.5642 3.55648 27.9738 4.50758 26.0081 5.99818 26.0081 5.99818 1.79156-3.97824 2.91802 18.5452 3.15757 23.3368 9.78584 54.801 17.6916 45.2974 20.5812 41.8221 23.3733 38.8838 23.3733 38.8838 24.7599 39.8049 26.42 40.2749 28.1603 40.1062L28.2955 39.9914C28.2534 40.4228 28.2727 40.8449 28.3496 41.3445 26.3129 43.62 26.9115 44.0194 22.8401 44.8576 18.7203 45.7067 21.1404 47.2181 22.7206 47.6135 24.6363 48.0923 29.068 48.7709 32.0624 44.579L31.9431 45.0573C32.7409 45.6965 33.3013 49.2147 33.2074 52.4042 33.1135 55.5935 33.0508 57.7832 33.6794 59.4936 34.3084 61.204 34.935 65.0523 40.2873 63.9055 44.7594 62.9471 47.077 60.4635 47.3995 56.3206 47.6282 53.3754 48.1461 53.8108 48.1786 51.1776L48.594 49.9311C49.0728 45.9386 48.6701 44.6505 51.4252 45.2497L52.0952 45.3085C54.1227 45.4007 56.7771 44.9822 58.3349 44.2582 61.6892 42.7016 63.6787 40.1023 60.3711 40.7852L60.3716 40.7852" fill="#336791" fill-rule="nonzero" fill-opacity="1" transform="scale(1.00057 1)"/><path d="M27.4256 20.688C26.7456 20.5933 26.1297 20.6809 25.8181 20.9169 25.643 21.0496 25.5886 21.2034 25.5739 21.3092 25.5349 21.5896 25.7313 21.8997 25.8521 22.0596 26.1936 22.5123 26.6925 22.8234 27.1863 22.8919 27.2579 22.9021 27.3292 22.9066 27.4 22.9066 28.2235 22.9066 28.9723 22.2654 29.0383 21.7921 29.1208 21.1993 28.2603 20.8042 27.4256 20.6882M49.9557 20.7068C49.8907 20.2421 49.064 20.1097 48.2793 20.2188 47.4957 20.3279 46.736 20.6816 46.7994 21.1473 46.8501 21.5094 47.5041 22.1276 48.2781 22.1276 48.3435 22.1276 48.4095 22.1233 48.476 22.1139 48.9927 22.0423 49.3718 21.7142 49.552 21.5252 49.826 21.2369 49.9849 20.9156 49.9557 20.7068" fill="#FFFFFF" fill-rule="nonzero" fill-opacity="1" transform="scale(1.00057 1)"/><path d="M62.8829 40.6083C62.5951 39.7382 61.6689 39.4583 60.13 39.776 55.5611 40.719 53.9248 40.0658 53.3876 39.6702 56.939 34.26 59.8605 27.72 61.4367 21.6183 62.1832 18.7279 62.5956 16.0436 62.6293 13.8557 62.6667 11.4543 62.2576 9.68967 61.4141 8.61168 58.0132 4.266 53.0216 1.93494 46.9796 1.87099 42.8257 1.8243 39.3162 2.88731 38.6358 3.18624 37.2031 2.82996 35.6412 2.61122 33.9407 2.5833 30.8225 2.5328 28.127 3.27937 25.8954 4.80119 24.9261 4.44034 22.4209 3.58034 19.3573 3.08677 14.0607 2.23413 9.85182 2.8802 6.84829 5.008 3.2644 7.54715 1.60987 12.0859 1.93037 18.498 2.03822 20.6553 3.26745 27.2917 5.20721 33.6471 7.76057 42.0122 10.5362 46.7476 13.4565 47.7218 13.7983 47.8358 14.1924 47.9154 14.6271 47.9154 15.6924 47.9154 16.9985 47.4353 18.3574 45.8016 20.0149 43.8134 21.7295 41.8731 23.4989 39.9838 24.6469 40.6 25.9081 40.9441 27.198 40.9786 27.2006 41.0123 27.2038 41.0461 27.2069 41.0796 26.9849 41.3443 26.7674 41.613 26.5547 41.8853 25.661 43.0199 25.475 43.2561 22.5981 43.8484 21.7797 44.0174 19.6062 44.4653 19.5742 45.9889 19.5397 47.6536 22.1436 48.3527 22.4402 48.4268 23.474 48.6856 24.4701 48.8133 25.4199 48.8133 27.7299 48.8133 29.7628 48.054 31.3874 46.585 31.3374 52.5195 31.5848 58.3672 32.2974 60.1488 32.881 61.6074 34.3067 65.1721 38.8099 65.1718 39.4707 65.1718 40.198 65.0949 40.9981 64.9234 45.6981 63.9159 47.7391 61.8386 48.5285 57.259 48.951 54.8114 49.676 48.967 50.0171 45.832 50.7368 46.0566 51.6633 46.1594 52.6649 46.1591 54.7538 46.1591 57.1643 45.7153 58.676 45.0137 60.3742 44.225 63.4386 42.2898 62.8829 40.6083ZM51.6904 19.4243C51.6749 20.3497 51.5475 21.1899 51.4125 22.0669 51.2671 23.0102 51.1169 23.9854 51.0791 25.1692 51.0418 26.3213 51.1857 27.519 51.3247 28.6774 51.6059 31.0171 51.8944 33.4258 50.7776 35.8026 50.5921 35.474 50.4269 35.1342 50.2828 34.7853 50.144 34.4488 49.8425 33.9083 49.4251 33.1602 47.8012 30.248 43.9986 23.4284 45.9452 20.6456 46.5251 19.8173 47.9966 18.9657 51.6904 19.4243ZM47.213 3.74503C52.6268 3.86455 56.9093 5.88983 59.9412 9.76427 62.2667 12.7361 59.706 26.2583 52.2928 37.924 52.2182 37.8291 52.1434 37.7347 52.068 37.6406L51.9741 37.5234C53.8898 34.3597 53.5152 31.2295 53.1818 28.4544 53.0447 27.3155 52.9153 26.2398 52.9483 25.2293 52.9823 24.1584 53.1239 23.2398 53.2609 22.3517 53.4292 21.2572 53.6005 20.1246 53.5533 18.7896 53.5886 18.6495 53.6028 18.4841 53.5842 18.2876 53.4637 17.0074 52.002 13.1759 49.0229 9.70794 47.3932 7.81106 45.0167 5.68834 41.7718 4.25661 43.1675 3.96732 45.0761 3.69757 47.213 3.74503ZM16.9194 44.6059C15.4222 46.4061 14.3883 46.0609 14.0483 45.9478 11.8329 45.2088 9.26233 40.5264 6.99598 33.1013 5.0349 26.6765 3.88891 20.216 3.79806 18.4044 3.51182 12.6749 4.90066 8.68198 7.92627 6.53616 12.8503 3.04439 20.9458 5.13438 24.1988 6.19434 24.1521 6.24053 24.1034 6.28367 24.0572 6.33061 18.719 11.7215 18.8457 20.9321 18.8589 21.4952 18.8584 21.7124 18.8766 22.02 18.9015 22.443 18.9934 23.9922 19.1644 26.8755 18.7076 30.1406 18.2833 33.1749 19.2187 36.1447 21.2734 38.2887 21.4843 38.5082 21.7059 38.7173 21.9375 38.915 21.023 39.8945 19.0352 42.0606 16.9194 44.6059ZM22.6237 36.9948C20.9676 35.2666 20.2155 32.863 20.5598 30.3995 21.042 26.9503 20.8641 23.9463 20.7684 22.3324 20.755 22.1065 20.7431 21.9086 20.7362 21.7525 21.516 21.061 25.1298 19.1248 27.7071 19.7153 28.883 19.9846 29.5996 20.7854 29.8975 22.1629 31.4394 29.2943 30.1016 32.2667 29.0266 34.6553 28.8051 35.1474 28.5957 35.6125 28.4171 36.0937L28.2785 36.4657C27.9278 37.4061 27.6015 38.2806 27.3992 39.1109 25.6386 39.1058 23.926 38.3537 22.6237 36.9945ZM22.8939 46.6124C22.3798 46.484 21.9175 46.2609 21.6462 46.0759 21.8728 45.9693 22.276 45.8242 22.9754 45.68 26.3598 44.9835 26.8826 44.4917 28.024 43.0424 28.2856 42.71 28.5823 42.3334 28.9931 41.8746L28.9936 41.8741C29.6055 41.189 29.8854 41.3052 30.3929 41.5158 30.8042 41.6858 31.2049 42.2015 31.3673 42.7689 31.4442 43.0369 31.5305 43.5454 31.2481 43.9413 28.8637 47.2798 25.3892 47.2369 22.8939 46.6124ZM40.6063 63.0947C36.4659 63.9819 34.9999 61.8693 34.0339 59.4543 33.4104 57.8952 33.1038 50.8644 33.3213 43.1 33.3241 42.9968 33.3094 42.897 33.281 42.8031 33.2556 42.6176 33.2168 42.4344 33.1652 42.2545 32.8419 41.1248 32.054 40.1797 31.1087 39.7879 30.7332 39.6324 30.044 39.3469 29.2157 39.5588 29.3923 38.831 29.6986 38.0091 30.0308 37.1191L30.1701 36.7448C30.3269 36.3228 30.5238 35.8856 30.7319 35.4227 31.8568 32.9237 33.3974 29.5007 31.7254 21.7677 31.0991 18.8713 29.0076 17.4568 25.8371 17.7855 23.9364 17.9821 22.1974 18.749 21.33 19.1888 21.1435 19.2832 20.973 19.3745 20.8136 19.4633 21.0557 16.5451 21.9703 11.0912 25.3915 7.64054 27.5457 5.46833 30.4145 4.39542 33.9098 4.45328 40.7969 4.56595 45.2134 8.10035 47.7058 11.0458 49.8537 13.5837 51.0167 16.1403 51.4808 17.5193 47.9903 17.1642 45.6163 17.8532 44.413 19.5737 41.7949 23.3162 45.8452 30.5799 47.7919 34.0709 48.1489 34.7107 48.457 35.2636 48.5539 35.4986 49.1878 37.0349 50.0085 38.0606 50.6076 38.8092 50.7913 39.0386 50.9695 39.2611 51.105 39.4555 50.0478 39.7603 48.1489 40.4645 48.322 43.9844 48.1824 45.7506 47.1899 54.0197 46.6857 56.9413 46.0201 60.801 44.5998 62.2386 40.6063 63.095ZM57.8886 43.3175C56.8075 43.8192 54.9985 44.1955 53.28 44.2765 51.3818 44.3653 50.4155 44.0638 50.1881 43.8783 50.0816 41.6848 50.8979 41.4557 51.762 41.2131 51.8977 41.175 52.0302 41.1377 52.1581 41.093 52.2375 41.1577 52.3246 41.2219 52.42 41.2849 53.9456 42.2918 56.6667 42.4004 60.5084 41.6074L60.5505 41.599C60.0323 42.0835 59.1457 42.7336 57.8886 43.3175Z" fill="#FFFFFF" fill-rule="nonzero" fill-opacity="1" transform="scale(1.00057 1)"/></g></g></g></g></g></svg>