<svg width="60" height="68" xmlns="http://www.w3.org/2000/svg" xmlns:xlink="http://www.w3.org/1999/xlink" xml:space="preserve" overflow="hidden"><g><g><g><path d="M7.81594 27.8358 6.02156 27.9738 0 27.744 1.66499 19.8708 7.81594 27.8358Z" fill="#3C4929" fill-rule="evenodd" fill-opacity="1" transform="matrix(1.0115 0 0 1 1.73569 2.12956)"/><path d="M7.81594 35.1584 6.02156 35.0204 0 35.2502 1.66499 43.1234 7.81594 35.1584Z" fill="#B7CA9D" fill-rule="evenodd" fill-opacity="1" transform="matrix(1.0115 0 0 1 1.73569 2.12956)"/><path d="M1.66499 35.4023 0 35.2494 0 42.6481 1.66499 43.1226 1.66499 35.4023Z" fill="#4B612C" fill-rule="evenodd" fill-opacity="1" transform="matrix(1.0115 0 0 1 1.73569 2.12956)"/><path d="M7.81594 42.365 1.66499 43.1226 1.66499 35.4102 7.81594 35.1576 7.81594 42.365Z" fill="#759C3E" fill-rule="evenodd" fill-opacity="1" transform="matrix(1.0115 0 0 1 1.73569 2.12956)"/><path d="M19.0913 35.7631 14.1449 35.4031 5.4961 35.8164 10.1272 49.9025 19.0913 35.7631Z" fill="#B7CA9D" fill-rule="evenodd" fill-opacity="1" transform="matrix(1.0115 0 0 1 1.73569 2.12956)"/><path d="M1.66499 27.5832 0 27.744 0 20.3453 1.66499 19.8708 1.66499 27.5832Z" fill="#4B612C" fill-rule="evenodd" fill-opacity="1" transform="matrix(1.0115 0 0 1 1.73569 2.12956)"/><path d="M7.81594 20.6284 1.66499 19.8708 1.66499 27.5754 7.81594 27.8358 7.81594 20.6284Z" fill="#759C3E" fill-rule="evenodd" fill-opacity="1" transform="matrix(1.0115 0 0 1 1.73569 2.12956)"/><path d="M19.0913 27.2311 14.1449 27.5832 5.4961 27.1778 10.1272 13.1144 19.0913 27.2311Z" fill="#3C4929" fill-rule="evenodd" fill-opacity="1" transform="matrix(1.0115 0 0 1 1.73569 2.12956)"/><path d="M5.4961 14.6061 10.1272 13.1144 10.1272 26.7339 5.4961 27.1778 5.4961 14.6061Z" fill="#4B612C" fill-rule="evenodd" fill-opacity="1" transform="matrix(1.0115 0 0 1 1.73569 2.12956)"/><path d="M19.092 14.9582 10.1279 13.1144 10.1279 26.7339 19.092 27.2311 19.092 14.9582Z" fill="#759C3E" fill-rule="evenodd" fill-opacity="1" transform="matrix(1.0115 0 0 1 1.73569 2.12956)"/><path d="M5.4961 48.2799 10.1272 49.9017 10.1272 36.2595 5.4961 35.8156 5.4961 48.2799Z" fill="#4B612C" fill-rule="evenodd" fill-opacity="1" transform="matrix(1.0115 0 0 1 1.73569 2.12956)"/><path d="M19.092 48.1497 10.1279 49.9017 10.1279 36.2595 19.092 35.7623 19.092 48.1497Z" fill="#759C3E" fill-rule="evenodd" fill-opacity="1" transform="matrix(1.0115 0 0 1 1.73569 2.12956)"/><path d="M15.8421 57.2471 27.4405 62.7409 54.623 31.3704 27.4405 0 15.8421 5.49375 15.8421 57.2471Z" fill="#4B612C" fill-rule="evenodd" fill-opacity="1" transform="matrix(1.0115 0 0 1 1.73569 2.12956)"/><path d="M54.8983 49.7488 27.4413 62.7409 27.4413 0 54.8983 12.9921 54.8983 49.7488Z" fill="#759C3E" fill-rule="evenodd" fill-opacity="1" transform="matrix(1.0115 0 0 1 1.73569 2.12956)"/></g></g></g></svg>