<svg width="68" height="68" xmlns="http://www.w3.org/2000/svg" xmlns:xlink="http://www.w3.org/1999/xlink" xml:space="preserve" overflow="hidden"><g><g><g><g><g><path d="M57.5781 40.8281 34.5469 40.8281 34.5469 30.3594C34.5469 29.7812 34.0782 29.3125 33.5 29.3125 32.9218 29.3125 32.4531 29.7812 32.4531 30.3594L32.4531 40.8281 9.42188 40.8281C8.8437 40.8281 8.375 41.2968 8.375 41.875L8.375 47.1094C8.375 47.6876 8.8437 48.1562 9.42188 48.1562 10.0001 48.1562 10.4688 47.6876 10.4688 47.1094L10.4688 42.9219 32.4531 42.9219 32.4531 47.1094C32.4531 47.6876 32.9218 48.1562 33.5 48.1562 34.0782 48.1562 34.5469 47.6876 34.5469 47.1094L34.5469 42.9219 56.5312 42.9219 56.5312 47.1094C56.5312 47.6876 56.9999 48.1562 57.5781 48.1562 58.1563 48.1562 58.625 47.6876 58.625 47.1094L58.625 41.875C58.625 41.2968 58.1563 40.8281 57.5781 40.8281Z" fill="#7A838B" fill-rule="nonzero" fill-opacity="1"/><path d="M41.875 65.9531 25.125 65.9531 25.125 51.2969 29.3125 51.2969 31.4062 53.3906 41.875 53.3906 41.875 65.9531Z" fill="#F8C460" fill-rule="nonzero" fill-opacity="1"/><path d="M17.7969 65.9531 1.04688 65.9531 1.04688 51.2969 5.23438 51.2969 7.32812 53.3906 17.7969 53.3906 17.7969 65.9531Z" fill="#F8C460" fill-rule="nonzero" fill-opacity="1"/><path d="M4.1875 58.625 4.1875 51.2969 1.04688 51.2969 1.04688 65.9531 17.7969 65.9531 17.7969 62.8125 8.375 62.8125C6.06231 62.8125 4.1875 60.9376 4.1875 58.625Z" fill="#FAAF42" fill-rule="nonzero" fill-opacity="1"/><path d="M28.2656 58.625 28.2656 51.2969 25.125 51.2969 25.125 65.9531 41.875 65.9531 41.875 62.8125 32.4531 62.8125C30.1405 62.8125 28.2656 60.9376 28.2656 58.625Z" fill="#FAAF42" fill-rule="nonzero" fill-opacity="1"/><path d="M65.9531 65.9531 49.2031 65.9531 49.2031 51.2969 53.3906 51.2969 55.4844 53.3906 65.9531 53.3906 65.9531 65.9531Z" fill="#F8C460" fill-rule="nonzero" fill-opacity="1"/><path d="M35.5938 41.875C35.5938 43.0313 34.6563 43.9688 33.5 43.9688 32.3437 43.9688 31.4062 43.0313 31.4062 41.875 31.4062 40.7187 32.3437 39.7812 33.5 39.7812 34.6563 39.7812 35.5938 40.7187 35.5938 41.875Z" fill="#F8C460" fill-rule="nonzero" fill-opacity="1"/><path d="M52.3438 58.625 52.3438 51.2969 49.2031 51.2969 49.2031 65.9531 65.9531 65.9531 65.9531 62.8125 56.5312 62.8125C54.2186 62.8125 52.3438 60.9376 52.3438 58.625Z" fill="#FAAF42" fill-rule="nonzero" fill-opacity="1"/><path d="M47.1094 1.04688C48.2657 1.04688 49.2031 1.98428 49.2031 3.14062L49.2031 7.32812C49.2031 8.48447 48.2657 9.42188 47.1094 9.42188L19.8906 9.42188C18.7343 9.42188 17.7969 8.48447 17.7969 7.32812L17.7969 3.14062C17.7969 1.98428 18.7343 1.04688 19.8906 1.04688Z" fill="#7A838B" fill-rule="nonzero" fill-opacity="1"/><path d="M23.0312 6.28125C21.8749 6.28125 20.9375 5.34385 20.9375 4.1875L20.9375 1.04688 19.8906 1.04688C18.7342 1.04688 17.7969 1.98428 17.7969 3.14062L17.7969 7.32812C17.7969 8.48447 18.7342 9.42188 19.8906 9.42188L47.1094 9.42188C48.2658 9.42188 49.2031 8.48447 49.2031 7.32812L49.2031 6.28125Z" fill="#5D6972" fill-rule="nonzero" fill-opacity="1"/><path d="M47.1094 12.5625C48.2657 12.5625 49.2031 13.4999 49.2031 14.6562L49.2031 18.8438C49.2031 20.0001 48.2657 20.9375 47.1094 20.9375L19.8906 20.9375C18.7343 20.9375 17.7969 20.0001 17.7969 18.8438L17.7969 14.6562C17.7969 13.4999 18.7343 12.5625 19.8906 12.5625Z" fill="#7A838B" fill-rule="nonzero" fill-opacity="1"/><path d="M47.1094 24.0781C48.2657 24.0781 49.2031 25.0155 49.2031 26.1719L49.2031 30.3594C49.2031 31.5157 48.2657 32.4531 47.1094 32.4531L19.8906 32.4531C18.7343 32.4531 17.7969 31.5157 17.7969 30.3594L17.7969 26.1719C17.7969 25.0155 18.7343 24.0781 19.8906 24.0781Z" fill="#7A838B" fill-rule="nonzero" fill-opacity="1"/><path d="M23.0312 17.7969C21.8749 17.7969 20.9375 16.8595 20.9375 15.7031L20.9375 12.5625 19.8906 12.5625C18.7342 12.5625 17.7969 13.4999 17.7969 14.6562L17.7969 18.8438C17.7969 20.0001 18.7342 20.9375 19.8906 20.9375L47.1094 20.9375C48.2658 20.9375 49.2031 20.0001 49.2031 18.8438L49.2031 17.7969Z" fill="#5D6972" fill-rule="nonzero" fill-opacity="1"/><path d="M23.0312 29.3125C21.8749 29.3125 20.9375 28.3751 20.9375 27.2188L20.9375 24.0781 19.8906 24.0781C18.7342 24.0781 17.7969 25.0155 17.7969 26.1719L17.7969 30.3594C17.7969 31.5158 18.7342 32.4531 19.8906 32.4531L47.1094 32.4531C48.2658 32.4531 49.2031 31.5158 49.2031 30.3594L49.2031 29.3125Z" fill="#5D6972" fill-rule="nonzero" fill-opacity="1"/><path d="M19.8906 9.42188 24.0781 9.42188 24.0781 12.5625 19.8906 12.5625Z" fill="#D6E4E8" fill-rule="nonzero" fill-opacity="1"/><path d="M42.9219 9.42188 47.1094 9.42188 47.1094 12.5625 42.9219 12.5625Z" fill="#D6E4E8" fill-rule="nonzero" fill-opacity="1"/><path d="M19.8906 20.9375 24.0781 20.9375 24.0781 24.0781 19.8906 24.0781Z" fill="#D6E4E8" fill-rule="nonzero" fill-opacity="1"/><path d="M42.9219 20.9375 47.1094 20.9375 47.1094 24.0781 42.9219 24.0781Z" fill="#D6E4E8" fill-rule="nonzero" fill-opacity="1"/><path d="M47.1094 4.1875C47.1094 4.76567 46.6407 5.23438 46.0625 5.23438 45.4843 5.23438 45.0156 4.76567 45.0156 4.1875 45.0156 3.60933 45.4843 3.14062 46.0625 3.14062 46.6407 3.14062 47.1094 3.60933 47.1094 4.1875Z" fill="#F8C460" fill-rule="nonzero" fill-opacity="1"/><path d="M43.9688 4.1875C43.9688 4.76567 43.5 5.23438 42.9219 5.23438 42.3437 5.23438 41.875 4.76567 41.875 4.1875 41.875 3.60933 42.3437 3.14062 42.9219 3.14062 43.5 3.14062 43.9688 3.60933 43.9688 4.1875Z" fill="#F8C460" fill-rule="nonzero" fill-opacity="1"/><path d="M40.8281 4.1875C40.8281 4.76567 40.3594 5.23438 39.7812 5.23438 39.2031 5.23438 38.7344 4.76567 38.7344 4.1875 38.7344 3.60933 39.2031 3.14062 39.7812 3.14062 40.3594 3.14062 40.8281 3.60933 40.8281 4.1875Z" fill="#F8C460" fill-rule="nonzero" fill-opacity="1"/><path d="M47.1094 15.7031C47.1094 16.2813 46.6407 16.75 46.0625 16.75 45.4843 16.75 45.0156 16.2813 45.0156 15.7031 45.0156 15.125 45.4843 14.6562 46.0625 14.6562 46.6407 14.6562 47.1094 15.125 47.1094 15.7031Z" fill="#F8C460" fill-rule="nonzero" fill-opacity="1"/><path d="M43.9688 15.7031C43.9688 16.2813 43.5 16.75 42.9219 16.75 42.3437 16.75 41.875 16.2813 41.875 15.7031 41.875 15.125 42.3437 14.6562 42.9219 14.6562 43.5 14.6562 43.9688 15.125 43.9688 15.7031Z" fill="#F8C460" fill-rule="nonzero" fill-opacity="1"/><path d="M40.8281 15.7031C40.8281 16.2813 40.3594 16.75 39.7812 16.75 39.2031 16.75 38.7344 16.2813 38.7344 15.7031 38.7344 15.125 39.2031 14.6562 39.7812 14.6562 40.3594 14.6562 40.8281 15.125 40.8281 15.7031Z" fill="#F8C460" fill-rule="nonzero" fill-opacity="1"/><path d="M47.1094 27.2188C47.1094 27.7969 46.6407 28.2656 46.0625 28.2656 45.4843 28.2656 45.0156 27.7969 45.0156 27.2188 45.0156 26.6406 45.4843 26.1719 46.0625 26.1719 46.6407 26.1719 47.1094 26.6406 47.1094 27.2188Z" fill="#F8C460" fill-rule="nonzero" fill-opacity="1"/><path d="M43.9688 27.2188C43.9688 27.7969 43.5 28.2656 42.9219 28.2656 42.3437 28.2656 41.875 27.7969 41.875 27.2188 41.875 26.6406 42.3437 26.1719 42.9219 26.1719 43.5 26.1719 43.9688 26.6406 43.9688 27.2188Z" fill="#F8C460" fill-rule="nonzero" fill-opacity="1"/><path d="M40.8281 27.2188C40.8281 27.7969 40.3594 28.2656 39.7812 28.2656 39.2031 28.2656 38.7344 27.7969 38.7344 27.2188 38.7344 26.6406 39.2031 26.1719 39.7812 26.1719 40.3594 26.1719 40.8281 26.6406 40.8281 27.2188Z" fill="#F8C460" fill-rule="nonzero" fill-opacity="1"/></g></g></g></g></g></svg>