<svg width="58" height="68" xmlns="http://www.w3.org/2000/svg" xmlns:xlink="http://www.w3.org/1999/xlink" xml:space="preserve" overflow="hidden"><defs><clipPath id="clip0"><rect x="0" y="0" width="58" height="68"/></clipPath><clipPath id="clip1"><rect x="0" y="0" width="58" height="68"/></clipPath><clipPath id="clip2"><rect x="0" y="0" width="58" height="67"/></clipPath><clipPath id="clip3"><rect x="0" y="0" width="58" height="67"/></clipPath><clipPath id="clip4"><rect x="0" y="0" width="58" height="67"/></clipPath></defs><g clip-path="url(#clip0)"><g clip-path="url(#clip1)"><g clip-path="url(#clip2)"><g clip-path="url(#clip3)"><g clip-path="url(#clip4)"><path d="M8.56003 25.4284C8.56003 25.4284 13.2106 21.3864 26.9721 21.3864 39.5974 21.3864 43.1459 24.2475 46.7491 25.4304L27.9488 34.6051Z" fill="#C9781F" fill-rule="nonzero" fill-opacity="1" transform="matrix(1.02132 0 0 1 0.640177 1.63316)"/><path d="M6.59771 37.5956C6.68263 39.3497 8.4377 38.5378 9.23133 38 9.98553 37.4793 10.2059 37.912 10.2726 36.8849L10.3555 34.8568C9.21313 34.7537 7.97467 35.0247 7.03951 35.703 6.55625 36.0549 5.65445 37.169 6.59973 37.6057" fill="#F6D2A2" fill-rule="nonzero" fill-opacity="1" transform="matrix(1.02132 0 0 1 0.640177 1.63316)"/><path d="M6.59771 37.5956C6.85349 37.5016 7.12342 37.4338 7.29529 37.2013" fill="#C6B198" fill-rule="nonzero" fill-opacity="1" transform="matrix(1.02132 0 0 1 0.640177 1.63316)"/><path d="M10.6508 16.7056C3.92769 14.815 8.92702 6.27823 14.3247 9.7904ZM40.5153 9.14944C45.8362 5.41687 50.6454 13.8374 44.4602 15.9564Z" fill="#37ABC8" fill-rule="nonzero" fill-opacity="1" transform="matrix(1.02132 0 0 1 0.640177 1.63316)"/><path d="M41.6628 59.1772C43.0145 60.0122 45.4843 62.5377 43.4573 63.762 41.5091 65.5433 40.4193 61.8067 38.7097 61.2891 39.4457 60.2902 40.3778 59.3804 41.6618 59.1761ZM17.5174 62.0312C15.9301 62.2758 15.0384 63.7054 13.7161 64.4313 12.4695 65.1733 11.9933 64.1937 11.8811 63.9945 11.683 63.9055 11.7022 64.0774 11.4009 63.7741 10.2453 61.9543 12.604 60.6219 13.8333 59.718 15.5439 59.3723 16.6166 60.8534 17.5184 62.0312Z" fill="#F6D2A2" fill-rule="nonzero" fill-opacity="1" transform="matrix(1.02132 0 0 1 0.640177 1.63316)"/><path d="M10.9318 14.356C10.0452 13.891 9.39511 13.252 9.937 12.2269 10.4395 11.2786 11.3726 11.3817 12.2592 11.8498ZM43.061 13.4664C43.9476 12.9983 44.5977 12.3613 44.0558 11.3372 43.5533 10.3889 42.6202 10.492 41.7336 10.9601Z" fill="#077E91" fill-rule="nonzero" fill-opacity="1" transform="matrix(1.02132 0 0 1 0.640177 1.63316)"/><path d="M49.1643 37.3722C49.0794 39.1252 47.3243 38.3144 46.5307 37.7766 45.7765 37.2559 45.5561 37.6886 45.4894 36.6614L45.4065 34.6334C46.5489 34.5303 47.7874 34.8012 48.7225 35.4796 49.2058 35.8314 50.1076 36.9455 49.1623 37.3823" fill="#F6D2A2" fill-rule="nonzero" fill-opacity="1" transform="matrix(1.02132 0 0 1 0.640177 1.63316)"/><path d="M49.1643 37.3732C48.9085 37.2792 48.6386 37.2114 48.4667 36.9809" fill="#C6B198" fill-rule="nonzero" fill-opacity="1" transform="matrix(1.02132 0 0 1 0.640177 1.63316)"/><path d="M27.2077 5.60087C33.9378 5.60087 40.2464 6.56131 43.5351 13.0185 46.4872 20.2572 45.4378 28.06 45.8877 35.7091 46.2749 42.2765 47.1312 49.8629 44.0801 55.9511 40.8702 62.3547 32.848 63.9652 26.2432 63.7286 21.0528 63.5436 14.7837 61.8522 11.8548 57.1168 8.41748 51.5614 10.0351 43.3006 10.2949 37.1194 10.5901 29.7968 8.30931 22.453 10.7175 15.2871 13.2166 7.85436 19.9559 6.1741 27.2087 5.60188" fill="#37ABC8" fill-rule="nonzero" fill-opacity="1" transform="matrix(1.02132 0 0 1 0.640177 1.63316)"/><path d="M28.3956 14.6239C29.6037 21.6382 41.0835 19.784 39.4356 12.7132 37.9575 6.36922 27.9942 8.12531 28.3956 14.6239M14.6765 15.7583C16.2435 21.8646 26.0329 20.3016 25.6639 14.1761 25.2241 6.83933 13.1782 8.25573 14.6765 15.7583M30.6248 22.8008C30.6299 23.738 30.8442 24.6539 30.6592 25.7064 30.4267 26.1462 29.9687 26.1917 29.5744 26.3706 29.03 26.2853 28.568 25.9253 28.3521 25.4183 28.2106 24.3112 28.4047 23.2386 28.4401 22.1325Z" fill="#FFFFFF" fill-rule="nonzero" fill-opacity="1" transform="matrix(1.02132 0 0 1 0.640177 1.63316)"/><path d="M15.7239 14.7624C15.7239 13.7717 16.4619 12.973 17.3769 12.973 18.2918 12.973 19.0298 13.7717 19.0298 14.7624 19.0298 15.7532 18.2918 16.5519 17.3769 16.5519 16.4619 16.5519 15.7239 15.7532 15.7239 14.7624Z" fill="#000000" fill-rule="nonzero" fill-opacity="1" transform="matrix(1.02132 0 0 1 0.640177 1.63316)"/><path d="M17.7388 15.1648C17.7388 14.9121 17.9127 14.7099 18.129 14.7099 18.3454 14.7099 18.5183 14.9121 18.5183 15.1648 18.5183 15.4176 18.3444 15.6198 18.129 15.6198 17.9137 15.6198 17.7388 15.4176 17.7388 15.1648Z" fill="#FFFFFF" fill-rule="nonzero" fill-opacity="1" transform="matrix(1.02132 0 0 1 0.640177 1.63316)"/><path d="M29.6017 14.3176C29.6017 13.3268 30.3266 12.5282 31.2274 12.5282 32.1282 12.5282 32.8531 13.3268 32.8531 14.3176 32.8531 15.3084 32.1282 16.1071 31.2274 16.1071 30.3266 16.1071 29.6017 15.3084 29.6017 14.3176Z" fill="#000000" fill-rule="nonzero" fill-opacity="1" transform="matrix(1.02132 0 0 1 0.640177 1.63316)"/><path d="M31.5833 14.72C31.5833 14.4672 31.7551 14.265 31.9674 14.265 32.1797 14.265 32.3516 14.4672 32.3516 14.72 32.3516 14.9727 32.1797 15.1749 31.9674 15.1749 31.7551 15.1749 31.5833 14.9727 31.5833 14.72ZM25.9015 22.9413C25.1807 24.6873 26.3039 28.1782 28.2611 25.6002 28.1196 24.4932 28.3137 23.4205 28.3481 22.3145Z" fill="#FFFFFF" fill-rule="nonzero" fill-opacity="1" transform="matrix(1.02132 0 0 1 0.640177 1.63316)"/><path d="M25.7863 19.5798C24.4416 19.694 23.3427 21.2904 24.0423 22.5541 24.9684 24.2243 27.0348 22.4065 28.3208 22.5764 29.8019 22.6067 31.0151 24.1404 32.205 22.8534 33.5294 21.4248 31.6358 20.0287 30.1568 19.416Z" fill="#F6D2A2" fill-rule="nonzero" fill-opacity="1" transform="matrix(1.02132 0 0 1 0.640177 1.63316)"/><path d="M8.56003 25.4284 8.95634 32.017C8.92601 34.0015 10.8307 32.7479 10.9298 35.8688 11.0289 38.9897 9.77726 38.3983 9.11608 39.9259 8.45489 41.4535 8.00803 48.6073 8.00803 48.6073 8.00803 48.6073 8.68539 49.9438 10.7984 51.1479 12.9113 52.352 16.3153 53.0283 19.2573 52.8949 22.1993 52.7614 24.3041 52.1316 24.8309 51.7828 25.3576 51.434 26.2291 50.333 26.5576 49.4808 26.8862 48.6285 27.5717 41.6102 27.5241 37.5946 27.4766 33.5789 26.8114 29.8737 26.8114 29.8737Z" fill="#EF9325" fill-rule="nonzero" fill-opacity="1" transform="matrix(1.02132 0 0 1 0.640177 1.63316)"/><path d="M27.2097 44.9819C18.5395 45.9484 8.47915 43.2763 8.47915 43.2763 8.47915 43.2763 8.62676 40.5669 9.28794 39.6125 18.306 42.4028 27.4028 41.5182 27.4028 41.5182 27.5373 42.782 27.4433 43.7889 27.2208 44.9819ZM26.1209 50.3229C17.4507 51.2894 8.01107 48.5102 8.01107 48.5102 8.01107 48.5102 7.98074 45.9069 8.32447 44.7635 17.3425 47.5538 26.9732 46.8583 26.9732 46.8583 26.8923 48.2332 26.6982 49.5839 26.1199 50.3219Z" fill="#E5E5E5" fill-rule="nonzero" fill-opacity="1" transform="matrix(1.02132 0 0 1 0.640177 1.63316)"/><path d="M46.7501 25.4284 46.7198 32.017C46.7501 34.0015 45.5672 32.7479 45.4661 35.8688 45.365 38.9897 46.6338 38.3983 47.3021 39.9259 47.9704 41.4535 48.4142 48.6073 48.4142 48.6073 48.4142 48.6073 47.7287 49.9438 45.5875 51.1479 43.4462 52.352 40.0038 53.0283 37.0224 52.8949 34.041 52.7614 31.9118 52.1316 31.379 51.7828 30.8462 51.434 29.9637 50.333 29.63 49.4808 29.2964 48.6285 28.6029 41.6102 28.6524 37.5946 28.7019 33.5789 29.3732 29.8737 29.3732 29.8737Z" fill="#EF9325" fill-rule="nonzero" fill-opacity="1" transform="matrix(1.02132 0 0 1 0.640177 1.63316)"/><path d="M28.982 44.9819C37.7614 45.9484 47.9501 43.2763 47.9501 43.2763 47.9501 43.2763 47.8005 40.5669 47.1413 39.6125 38.0101 42.4028 28.799 41.5182 28.799 41.5182 28.6625 42.782 28.7586 43.7889 28.984 44.9819ZM30.087 50.3229C38.8664 51.2894 48.4243 48.5102 48.4243 48.5102 48.4243 48.5102 48.4546 45.9069 48.1058 44.7635 38.9766 47.5538 29.2226 46.8583 29.2226 46.8583 29.3035 48.2332 29.5006 49.5839 30.087 50.3219Z" fill="#E5E5E5" fill-rule="nonzero" fill-opacity="1" transform="matrix(1.02132 0 0 1 0.640177 1.63316)"/><path d="M50.2511 33.8721C49.9782 34.3877 49.4383 34.6344 49.045 34.4261L48.7296 34.2593C48.3353 34.0511 48.2383 33.4677 48.5112 32.9511L54.655 21.3703C54.928 20.8547 55.4678 20.608 55.8611 20.8162L56.1765 20.983C56.5708 21.1913 56.6679 21.7747 56.3949 22.2913Z" fill="#D2E261" fill-rule="nonzero" fill-opacity="1" transform="matrix(1.02132 0 0 1 0.640177 1.63316)"/><path d="M47.3506 39.3416C47.1919 39.6408 46.744 39.7156 46.3497 39.5074L46.0343 39.3406C45.64 39.1323 45.451 38.7208 45.6097 38.4206L48.491 32.9875C48.6497 32.6883 49.0976 32.6134 49.4919 32.8217L49.8073 32.9885C50.2016 33.1968 50.3907 33.6083 50.2319 33.9085Z" fill="#000000" fill-rule="nonzero" fill-opacity="1" transform="matrix(1.02132 0 0 1 0.640177 1.63316)"/><path d="M49.9125 32.7914 49.597 32.6246C49.2027 32.4163 48.8014 32.4052 48.6973 32.5993L48.5133 32.9461C48.6164 32.752 49.0187 32.7641 49.413 32.9713L49.7285 33.1382C50.1227 33.3464 50.3573 33.672 50.2542 33.8661L50.4382 33.5193C50.5413 33.3252 50.3067 32.9986 49.9125 32.7914Z" fill="#9B9B9B" fill-rule="nonzero" fill-opacity="1" transform="matrix(1.02132 0 0 1 0.640177 1.63316)"/><path d="M46.0505 35.4614C46.2527 34.9185 46.9806 34.6931 47.6822 34.9539 48.3838 35.2147 48.7872 35.8638 48.585 36.4047 48.3828 36.9455 47.6549 37.173 46.9533 36.9122 46.2517 36.6513 45.8483 36.0023 46.0505 35.4614Z" fill="#F6D2A2" fill-rule="nonzero" fill-opacity="1" transform="matrix(1.02132 0 0 1 0.640177 1.63316)"/><path d="M5.7323 34.0571C5.981 34.5829 6.51076 34.8659 6.91212 34.6658L7.23564 34.5141C7.63801 34.324 7.76135 33.7437 7.51366 33.218L1.90773 21.3692C1.65903 20.8435 1.1313 20.5605 0.727911 20.7606L0.404395 20.9123C0.00202198 21.1023-0.121319 21.6827 0.126373 22.2084Z" fill="#D2E261" fill-rule="nonzero" fill-opacity="1" transform="matrix(1.02132 0 0 1 0.640177 1.63316)"/><path d="M8.3912 39.656C8.53577 39.9623 8.9806 40.0574 9.37994 39.8683L9.70346 39.7166C10.1058 39.5266 10.3141 39.1242 10.1685 38.8169L7.53995 33.2595C7.39537 32.9531 6.95054 32.8591 6.5512 33.0472L6.22768 33.1988C5.82531 33.3889 5.61705 33.7913 5.76263 34.0986Z" fill="#000000" fill-rule="nonzero" fill-opacity="1" transform="matrix(1.02132 0 0 1 0.640177 1.63316)"/><path d="M6.12153 32.9956 6.44505 32.844C6.84742 32.6539 7.24979 32.662 7.34483 32.8601L7.51265 33.216C7.41863 33.0168 7.01727 33.0108 6.61287 33.1998L6.28935 33.3515C5.88698 33.5415 5.63626 33.857 5.73028 34.0551L5.56245 33.6992C5.46843 33.5011 5.71612 33.1857 6.12153 32.9956Z" fill="#9B9B9B" fill-rule="nonzero" fill-opacity="1" transform="matrix(1.02132 0 0 1 0.640177 1.63316)"/><path d="M10.1099 35.6131C10.3121 36.156 9.90768 36.803 9.20706 37.0638 8.50645 37.3246 7.77652 37.0992 7.57533 36.5563 7.37414 36.0134 7.77753 35.3664 8.47814 35.1055 9.17876 34.8447 9.90768 35.0712 10.1099 35.6131Z" fill="#F6D2A2" fill-rule="nonzero" fill-opacity="1" transform="matrix(1.02132 0 0 1 0.640177 1.63316)"/><path d="M11.4403 19.3361C11.1734 19.8214 10.5426 19.9872 10.032 19.7072L9.44566 19.3837C8.93511 19.1036 8.73797 18.4839 9.00487 17.9986L15.1143 6.89999C15.3812 6.41472 16.012 6.24891 16.5226 6.52896L17.1089 6.85247C17.6195 7.13252 17.7509 7.65722 17.5497 8.23753 15.4085 14.4046 11.4383 19.3361 11.4383 19.3361Z" fill="#960000" fill-rule="nonzero" fill-opacity="1" transform="matrix(1.02132 0 0 1 0.640177 1.63316)"/><path d="M13.0569 12.9973C14.9151 9.62258 16.1344 6.72913 15.8452 6.39045L15.8513 6.37832 15.829 6.36821 15.826 6.36619C12.9689 4.81938 9.12619 6.349 7.22856 9.79647 5.33094 13.2439 6.09423 17.3041 8.93106 18.8853L8.93005 18.8853C8.94219 18.8893 8.94825 18.8954 8.95634 18.8994L8.96342 18.8873C9.39814 18.956 11.1876 16.3719 13.0559 12.9973Z" fill="#595959" fill-rule="nonzero" fill-opacity="1" transform="matrix(1.02132 0 0 1 0.640177 1.63316)"/><path d="M43.6817 19.3604C43.9345 19.8528 44.5613 20.0378 45.0789 19.7719L45.6855 19.4645C46.2042 19.1987 46.4195 18.585 46.1657 18.0916L40.3687 6.82012C40.116 6.32777 39.4892 6.14276 38.9715 6.40865L38.365 6.71599C37.8463 6.98188 37.6997 7.50254 37.8847 8.08891 39.8461 14.3166 43.6726 19.3594 43.6726 19.3594Z" fill="#960000" fill-rule="nonzero" fill-opacity="1" transform="matrix(1.02132 0 0 1 0.640177 1.63316)"/><path d="M42.2492 12.9791C40.4901 9.5417 39.3527 6.61489 39.653 6.29441L39.6459 6.28228C39.654 6.27823 39.6631 6.27621 39.6701 6.27217L39.6732 6.27116C42.5747 4.80927 46.3689 6.44707 48.1655 9.95115 49.962 13.4552 49.0824 17.4871 46.2011 18.9853L46.2011 18.9874C46.189 18.9914 46.1809 18.9975 46.1738 19.0015L46.1668 18.9894C45.732 19.046 44.0053 16.4114 42.2441 12.9841Z" fill="#595959" fill-rule="nonzero" fill-opacity="1" transform="matrix(1.02132 0 0 1 0.640177 1.63316)"/><path d="M47.9784 11.5313C47.9784 11.5313 45.8402 6.17309 43.3602 3.35547 40.8803 0.537845 16.6166-0.435736 12.6323 3.35547 8.64799 7.14667 7.14566 11.5323 7.14566 11.5323L7.14566 10.3454C7.14566 10.3454 8.98768 5.13582 12.6323 2.16857 16.2769-0.79868 40.2201-0.64501 43.3097 2.16857 46.3993 4.98215 47.9784 10.3444 47.9784 10.3444Z" fill="#353535" fill-rule="nonzero" fill-opacity="1" transform="matrix(1.02132 0 0 1 0.640177 1.63316)"/><path d="M48.6942 9.7439C49.1997 10.7508 49.2937 11.7325 48.8813 11.9438 48.4688 12.1551 47.7206 11.5151 47.203 10.5082 46.6854 9.50126 46.6035 8.5206 47.016 8.3083 47.4285 8.09599 48.1766 8.73696 48.6942 9.7439ZM6.71094 9.58416C7.25687 8.5934 8.02219 7.97366 8.42962 8.19709 8.83704 8.42052 8.72482 9.41027 8.17889 10.3909 7.63296 11.3716 6.86764 12.0014 6.46021 11.776 6.05278 11.5505 6.165 10.5628 6.71094 9.58214Z" fill="#960000" fill-rule="nonzero" fill-opacity="1" transform="matrix(1.02132 0 0 1 0.640177 1.63316)"/><path d="M38.8361 10.4031 16.2061 10.4031C12.142 10.4031 12.1571 21.1863 15.9716 21.807L23.8623 21.3015C24.8167 21.3015 26.7204 17.6114 27.0773 17.3223 27.4342 17.0331 28.612 16.9967 29.075 17.3223 29.538 17.6478 30.5915 20.9295 31.5458 20.9295L39.4366 21.809C43.1217 20.1156 42.1926 10.4051 38.8432 10.4051Z" fill="#FFFFFF" fill-rule="nonzero" fill-opacity="0.6" transform="matrix(1.02132 0 0 1 0.640177 1.63316)"/><path d="M22.2134 12.6323 13.6908 12.6171C13.3339 13.7868 12.9356 15.2659 13.1327 16.7056L22.265 16.7157C24.0645 16.7157 25.581 17.0554 26.9903 17.4234 27.0167 17.3894 27.0458 17.3576 27.0773 17.3283 27.4342 17.0382 28.6109 17.0028 29.075 17.3283 29.1943 17.4122 29.355 17.6963 29.5421 18.0684 30.2607 18.2294 30.9935 18.3182 31.7298 18.3333L41.6193 18.3434C42.0106 17.0372 41.7225 15.6359 41.6345 14.3196 38.6339 14.3196 33.864 14.2519 31.5772 14.2519 28.3552 14.2519 25.5416 12.7091 22.2175 12.6343Z" fill="#FFFFFF" fill-rule="nonzero" fill-opacity="0.5" transform="matrix(1.02132 0 0 1 0.640177 1.63316)"/><path d="M25.6164 19.509C25.5173 17.1838 29.9576 16.8926 30.4823 18.8398 31.007 20.7869 25.8358 21.2358 25.6174 19.509 25.4425 18.1341 25.6174 19.509 25.6174 19.509Z" fill="#000000" fill-rule="nonzero" fill-opacity="1" transform="matrix(1.02132 0 0 1 0.640177 1.63316)"/></g></g></g></g></g></svg>