<svg width="68" height="68" xmlns="http://www.w3.org/2000/svg" xmlns:xlink="http://www.w3.org/1999/xlink" xml:space="preserve" overflow="hidden"><g><g><g><g><g><path d="M66.7883 0.0675171 66.7883 16.7469 50.1432 33.3919 50.1432 16.6775 66.7883 0.0677788" fill="#A596FF" fill-rule="nonzero" fill-opacity="1" transform="matrix(1 0 0 1.00402 0.00315294 -2.86785e-15)"/><path d="M33.4984 0.0675171 33.4984 16.7469 50.1435 33.3919 50.1435 16.6775 33.4984 0.0677788" fill="#000000" fill-rule="nonzero" fill-opacity="1" transform="matrix(1 0 0 1.00402 0.00315294 -2.86785e-15)"/><path d="M66.8225 66.6807 50.1432 66.6807 33.4982 50.0357 50.2118 50.0357 66.8225 66.6807" fill="#A596FF" fill-rule="nonzero" fill-opacity="1" transform="matrix(1 0 0 1.00402 0.00315294 -2.86785e-15)"/><path d="M66.8225 33.3909 50.1432 33.3909 33.4982 50.0359 50.2118 50.0359 66.8225 33.3909" fill="#000000" fill-rule="nonzero" fill-opacity="1" transform="matrix(1 0 0 1.00402 0.00315294 -2.86785e-15)"/><path d="M0.209617 66.7152 0.209617 50.0359 16.8547 33.3909 16.8547 50.105 0.209617 66.7152" fill="#A596FF" fill-rule="nonzero" fill-opacity="1" transform="matrix(1 0 0 1.00402 0.00315294 -2.86785e-15)"/><path d="M33.4995 66.7152 33.4995 50.0359 16.8544 33.3909 16.8544 50.105 33.4992 66.7155" fill="#000000" fill-rule="nonzero" fill-opacity="1" transform="matrix(1 0 0 1.00402 0.00315294 -2.86785e-15)"/><path d="M0.175858 0.101014 16.8552 0.101014 33.5002 16.7461 16.7864 16.7461 0.175858 0.101014" fill="#A596FF" fill-rule="nonzero" fill-opacity="1" transform="matrix(1 0 0 1.00402 0.00315294 -2.86785e-15)"/><path d="M0.175858 33.3906 16.8552 33.3906 33.5002 16.7455 16.7864 16.7455 0.175858 33.3906" fill="#000000" fill-rule="nonzero" fill-opacity="1" transform="matrix(1 0 0 1.00402 0.00315294 -2.86785e-15)"/></g></g></g></g></g></svg>