<svg width="149" height="38" xmlns="http://www.w3.org/2000/svg" xmlns:xlink="http://www.w3.org/1999/xlink" xml:space="preserve" overflow="hidden"><defs><clipPath id="clip0"><rect x="0" y="0" width="149" height="38"/></clipPath><clipPath id="clip1"><rect x="0" y="0" width="149" height="38"/></clipPath></defs><g clip-path="url(#clip0)"><g clip-path="url(#clip1)"><path d="M36.8495 37.3946 32.7545 37.3946 32.7545 22.2722C32.7545 16.7041 30.7898 13.9201 26.8587 13.9201 25.948 13.9201 25.1114 14.1116 24.3473 14.4945 23.5831 14.8774 22.919 15.3949 22.355 16.0504 21.7909 16.7059 21.3545 17.451 21.044 18.2876 20.7335 19.1242 20.58 19.9987 20.58 20.9078L20.58 37.3946 16.4868 37.3946 16.4868 21.2907C16.4868 19.1069 16.0124 17.332 15.0672 15.9676 14.1202 14.6032 12.7196 13.9201 10.8636 13.9201 9.91829 13.9201 9.04376 14.1288 8.2434 14.548 7.44303 14.9671 6.75134 15.5312 6.16832 16.2401 5.58529 16.9491 5.13164 17.7512 4.8039 18.6429 4.47617 19.5347 4.3123 20.4351 4.3123 21.3459L4.3123 37.3946 0.219065 37.3946 0.219065 17.9064C0.219065 16.8507 0.200091 15.7502 0.163867 14.6032 0.127644 13.4561 0.0724467 12.2642 0 11.0274L3.65856 11.0274 3.65856 15.3397 4.03976 15.3397C5.89578 12.1003 8.6246 10.4806 12.228 10.4806 13.9753 10.4806 15.495 10.955 16.7869 11.9002 18.0789 12.8472 18.9966 14.1392 19.5434 15.7761L19.652 15.7761C20.5973 14.0288 21.8082 12.7109 23.2813 11.8192 24.7561 10.9274 26.4379 10.4806 28.3318 10.4806 30.9158 10.4806 32.9805 11.4724 34.5277 13.4561 36.075 15.4398 36.8478 18.1979 36.8478 21.7271L36.8478 37.3946ZM58.1436 37.3946 57.7624 34.0103 57.5985 34.0103C55.815 36.6666 53.1586 37.9948 49.6277 37.9948 48.4996 37.9948 47.4612 37.812 46.5159 37.4498 45.569 37.0858 44.7496 36.5683 44.0596 35.8939 43.3697 35.2194 42.8229 34.4294 42.4227 33.5187 42.0225 32.6096 41.8224 31.6074 41.8224 30.5156 41.8224 27.3124 43.1506 24.8837 45.807 23.2278 48.4634 21.5719 52.322 20.7439 57.3795 20.7439L57.3795 20.1436C57.3795 15.8141 55.3596 13.6476 51.3198 13.6476 48.8084 13.6476 46.5884 14.2841 44.6599 15.5588L43.6767 12.7196C46.0054 11.2275 48.7532 10.4806 51.9201 10.4806 58.3247 10.4806 61.5279 13.9926 61.5279 21.0164L61.5279 31.1176C61.5279 32.3906 61.5555 33.548 61.6107 34.5847 61.6659 35.6231 61.766 36.5597 61.9109 37.3963L58.1436 37.3963ZM57.4347 23.747 56.6153 23.747C49.5552 23.747 46.0243 25.8221 46.0243 29.9705 46.0243 31.6092 46.4607 32.827 47.3353 33.6291 48.2081 34.4294 49.3 34.8296 50.6109 34.8296 51.4475 34.8296 52.2754 34.6847 53.0948 34.3932 53.9141 34.1017 54.642 33.6929 55.2785 33.165 55.915 32.6372 56.4342 31.9921 56.8344 31.228 57.2346 30.4638 57.4347 29.6083 57.4347 28.663L57.4347 23.747ZM85.8786 15.1759C84.2762 14.3013 82.4202 13.8649 80.3106 13.8649 78.8185 13.8649 77.4886 14.1288 76.3243 14.6567 75.16 15.1845 74.1768 15.9124 73.3764 16.8404 72.576 17.7684 71.9568 18.8689 71.5204 20.1436 71.084 21.4166 70.8649 22.8 70.8649 24.2921 70.8649 25.8203 71.0926 27.2227 71.548 28.4957 72.0034 29.7687 72.6399 30.8519 73.4592 31.7437 74.2768 32.6355 75.2514 33.3272 76.3795 33.8188 77.5076 34.3104 78.7633 34.5553 80.1467 34.5553 82.1114 34.5553 84.0588 34.1189 85.989 33.2444L86.8066 36.4096C84.7678 37.4291 82.2942 37.9379 79.3826 37.9379 77.4524 37.9379 75.7068 37.6188 74.1405 36.9823 72.576 36.3458 71.2289 35.435 70.1008 34.2535 68.9727 33.0702 68.1085 31.6609 67.5082 30.0222 66.9079 28.3836 66.6078 26.5465 66.6078 24.5077 66.6078 22.4326 66.9442 20.5404 67.6169 18.8292 68.2896 17.1198 69.228 15.645 70.4285 14.4083 71.6291 13.1715 73.0763 12.2055 74.7684 11.5156 76.4606 10.8239 78.3252 10.4772 80.3641 10.4772 83.0204 10.4772 85.2042 10.9515 86.9153 11.8968L85.8786 15.1759ZM122.021 18.6153C122.021 21.4908 121.629 24.1109 120.846 26.4758 120.063 28.8424 118.954 30.8795 117.515 32.5906 116.079 34.3018 114.348 35.63 112.329 36.5752 110.309 37.5205 108.061 37.9948 105.588 37.9948 103.221 37.9948 101.056 37.5308 99.0915 36.6028 97.1251 35.6748 95.433 34.3828 94.0133 32.7269 92.5937 31.071 91.4932 29.1046 90.7101 26.8311 89.927 24.5577 89.5372 22.0548 89.5372 19.3243 89.5372 16.4868 89.946 13.8753 90.7653 11.4914 91.5847 9.10758 92.7214 7.07045 94.1772 5.37658 95.633 3.68443 97.37 2.36487 99.3899 1.41961 101.412 0.474353 103.623 0 106.026 0 108.427 0 110.619 0.455379 112.603 1.36441 114.586 2.27517 116.27 3.54816 117.653 5.18684 119.037 6.82551 120.11 8.7902 120.874 11.0826 121.638 13.375 122.021 15.8865 122.021 18.6153ZM117.598 18.8344C117.598 16.6507 117.307 14.6222 116.724 12.7472 116.141 10.8739 115.332 9.23523 114.295 7.83459 113.257 6.43395 112.02 5.34208 110.583 4.55896 109.146 3.77758 107.552 3.38602 105.807 3.38602 104.023 3.38602 102.395 3.77758 100.92 4.55896 99.4451 5.34208 98.1911 6.43223 97.1527 7.83459 96.1143 9.23523 95.3053 10.9101 94.7223 12.8576 94.1393 14.805 93.8495 16.9249 93.8495 19.2173 93.8495 21.3649 94.141 23.3761 94.7223 25.2494 95.3053 27.1244 96.1143 28.7527 97.1527 30.1361 98.1894 31.5195 99.4365 32.6113 100.892 33.4117 102.348 34.2121 103.949 34.6123 105.696 34.6123 107.48 34.6123 109.108 34.2121 110.583 33.4117 112.058 32.6113 113.312 31.5005 114.35 30.0809 115.389 28.6613 116.187 26.9967 116.753 25.0855 117.315 23.1743 117.598 21.0906 117.598 18.8344ZM146.808 27.5142C146.808 29.0787 146.516 30.5087 145.933 31.8006 145.35 33.0926 144.522 34.1948 143.45 35.1039 142.377 36.0146 141.076 36.7149 139.546 37.2065 138.018 37.6981 136.307 37.9431 134.414 37.9431 130.628 37.9431 127.627 37.1617 125.407 35.5955L126.552 32.156C128.99 33.6842 131.701 34.4484 134.687 34.4484 137.198 34.4484 139.146 33.8481 140.529 32.6476 141.913 31.447 142.604 29.8463 142.604 27.8437 142.604 25.9877 142.066 24.487 140.993 23.3399 139.919 22.1946 138.145 21.1475 135.67 20.2005 129.374 17.8357 126.226 14.3772 126.226 9.8286 126.226 8.41071 126.507 7.09977 127.071 5.89923 127.635 4.69868 128.427 3.66028 129.447 2.78747 130.466 1.91466 131.675 1.24194 133.076 0.76759 134.477 0.294961 135.996 0.0586473 137.635 0.0586473 140.8 0.0586473 143.384 0.64167 145.387 1.80599L144.131 5.19029C142.347 4.06219 140.127 3.49814 137.471 3.49814 135.36 3.49814 133.649 4.02596 132.339 5.08162 131.028 6.13727 130.375 7.5379 130.375 9.28525 130.375 10.1218 130.492 10.8687 130.728 11.5242 130.965 12.1797 131.356 12.7972 131.903 13.3802 132.448 13.9632 133.186 14.5187 134.114 15.0448 135.042 15.5726 136.217 16.128 137.635 16.7093 139.272 17.3648 140.674 18.0651 141.839 18.812 143.003 19.5589 143.958 20.3679 144.705 21.2407 145.452 22.1152 145.989 23.0708 146.316 24.1075 146.644 25.139 146.808 26.2757 146.808 27.5142Z" fill="#333333" fill-rule="nonzero" fill-opacity="1" transform="matrix(1.01493 0 0 1 0 0.00258738)"/></g></g></svg>