<svg width="170" height="68" xmlns="http://www.w3.org/2000/svg" xmlns:xlink="http://www.w3.org/1999/xlink" xml:space="preserve" overflow="hidden"><g><g><g><g><g><path d="M163.014 2.60822 163.014 2.42192C163.014 2.32877 162.921 2.32877 162.828 2.23562 162.734 2.23562 162.641 2.14247 162.641 2.14247L162.082 2.14247 162.082 3.07398 162.641 3.07398C162.734 3.07398 162.828 2.98082 162.921 2.98082 163.014 2.98082 163.014 2.88767 163.014 2.79452ZM164.504 5.03014 163.386 5.03014 162.362 3.81918 162.082 3.81918 162.082 5.03014 161.244 5.03014 161.244 1.67671 163.107 1.67671C163.293 1.67671 163.386 1.76986 163.573 1.86302 163.759 1.95617 163.852 2.04932 163.945 2.14247 164.039 2.23562 164.039 2.42192 164.039 2.60822 164.039 2.88767 163.945 3.07398 163.852 3.26028 163.759 3.44658 163.573 3.53973 163.293 3.63288ZM165.249 3.44658C165.249 2.70137 164.97 2.04932 164.504 1.58356 163.945 1.02466 163.386 0.745206 162.641 0.745206 161.896 0.745206 161.244 1.02466 160.778 1.58356 160.219 2.14247 160.033 2.70137 160.033 3.44658 160.033 4.19178 160.312 4.84384 160.778 5.30959 161.337 5.8685 161.896 6.14795 162.641 6.14795 163.386 6.14795 164.039 5.8685 164.504 5.30959 164.97 4.75069 165.249 4.19178 165.249 3.44658M165.995 3.44658C165.995 4.37809 165.622 5.21644 164.97 5.8685 164.318 6.52055 163.48 6.89316 162.548 6.89316 161.617 6.89316 160.778 6.52055 160.126 5.8685 159.474 5.21644 159.102 4.37809 159.102 3.44658 159.102 2.51507 159.474 1.67671 160.126 1.02466 160.778 0.372603 161.617 4.13672e-16 162.548 4.13672e-16 163.48 4.13672e-16 164.318 0.372603 164.97 1.02466 165.715 1.67671 165.995 2.51507 165.995 3.44658M23.3808 3.44658C14.9973 3.44658 7.82467 7.82467 4.00548 13.9726 0.745206 19.748 2.06837e-14 29.063 2.06837e-14 35.211 2.06837e-14 41.3589 0.745206 50.7672 4.00548 56.4494 7.73151 62.5973 14.9041 66.9754 23.3808 66.9754L146.154 66.9754C154.537 66.9754 161.71 62.5973 165.529 56.4494 168.789 50.7672 169.534 41.3589 169.534 35.211 169.534 29.063 168.789 19.6548 165.529 13.9726 161.803 7.82467 154.63 3.44658 146.154 3.44658L23.3808 3.44658Z" fill="#0094A1" fill-rule="nonzero" fill-opacity="1" transform="matrix(1.00275 0 0 1 5.19407e-15 0.0122959)"/><path d="M105.074 31.7644 115.414 31.7644 115.414 31.485C115.414 26.7343 113.551 26.4548 110.104 26.4548 105.912 26.3617 105.167 27.6658 105.074 31.7644M32.5096 26.6411C35.863 26.6411 37.7261 27.0137 37.7261 31.5781L37.7261 31.7644 27.5726 31.7644C27.6658 27.8521 28.5041 26.6411 32.5096 26.6411M18.1644 35.3973C18.1644 46.4822 20.9589 50.4877 32.6959 50.4877 37.074 50.4877 40.6137 50.1151 43.222 48.7179 45.6439 47.3206 47.1343 44.8987 47.1343 40.5206L37.9124 40.5206C37.8192 43.6877 35.6767 44.0603 32.6959 44.0603 28.411 44.0603 27.5726 42.2905 27.5726 36.9809L27.5726 36.7946 47.1343 36.7946 47.1343 35.3973C47.1343 23.2877 43.874 20.2137 32.6959 20.2137 20.7726 20.2137 18.1644 23.9398 18.1644 35.3973M53.3754 29.9014C53.3754 35.863 55.4247 38.5644 67.9069 38.5644 69.0247 38.5644 70.7946 38.4713 71.8192 38.937 72.7508 39.4028 73.2165 40.2411 73.2165 41.7315 73.2165 44.3398 72.285 44.6192 67.8138 44.6192 65.3918 44.6192 62.8768 44.5261 62.6905 41.2658L53.3754 41.2658C53.4685 47.7863 56.5425 49.9288 62.3179 50.3946 64.0877 50.4877 65.9508 50.4877 67.9069 50.4877 75.8247 50.4877 82.4384 49.1836 82.4384 40.6137 82.4384 32.4165 78.1535 31.8576 67.9069 31.5781 62.7836 31.485 62.5042 30.3672 62.5042 28.6904 62.5042 26.7343 62.6905 26.0822 67.9069 26.0822 69.7699 26.0822 71.7261 26.2685 72.0987 28.5973L80.948 28.5973 80.948 27.3863C80.948 20.3069 73.496 20.2137 67.9069 20.2137 59.4302 20.2137 53.3754 20.4 53.3754 29.9014M130.504 20.2137 153.606 20.2137 153.606 27.0137 146.712 27.0137 146.712 50.2083 137.304 50.2083 137.304 27.0137 130.411 27.0137 130.411 20.2137ZM95.8521 35.211C95.8521 23.7534 98.3672 20.1206 110.291 20.1206 121.375 20.1206 124.636 23.1014 124.636 35.211L124.636 36.5151 105.074 36.5151 105.074 36.7946C105.074 42.1042 105.912 43.9672 110.291 43.9672 113.178 43.9672 115.414 43.6877 115.6 40.4274L124.636 40.4274C124.543 44.6192 123.145 47.0411 120.723 48.4384 118.208 49.8357 114.669 50.2083 110.291 50.2083 98.6467 50.2083 95.8521 46.2959 95.8521 35.211M11.3644 55.7973C6.61371 50.674 5.58905 42.7562 5.58905 35.211 5.58905 27.6658 6.61371 19.748 11.3644 14.6247 14.3452 11.4575 20.1206 9.03563 24.9644 9.03563L88.2138 9.03563 88.2138 61.3864 24.9644 61.3864C20.0274 61.3864 14.3452 58.9644 11.3644 55.7973" fill="#FFFFFF" fill-rule="nonzero" fill-opacity="1" transform="matrix(1.00275 0 0 1 5.19407e-15 0.0122959)"/></g></g></g></g></g></svg>