<svg width="77" height="77" xmlns="http://www.w3.org/2000/svg" xmlns:xlink="http://www.w3.org/1999/xlink" xml:space="preserve" overflow="hidden"><g><g><path d="M46.6543 57.3265 46.6543 47.3396C48.6101 48.5639 50.5582 49.4802 52.5063 50.0731 54.4544 50.6737 56.2947 50.9663 58.0195 50.9663 60.1293 50.9663 61.7925 50.666 63.0014 50.0731 64.218 49.4725 64.8263 48.5639 64.8263 47.3396 64.8263 46.5619 64.5491 45.9074 64.0024 45.3915 63.448 44.8679 62.7396 44.4136 61.8772 44.0209 61.0071 43.6282 60.06 43.2817 59.0359 42.966 58.0118 42.6503 57.0108 42.3038 56.0637 41.9111 54.5314 41.3105 53.1839 40.6714 52.0135 39.9784 50.8508 39.2854 49.8729 38.4923 49.0798 37.576 48.2867 36.6674 47.6861 35.6125 47.2703 34.4113 46.8545 33.2178 46.6466 31.7933 46.6466 30.1532 46.6466 27.9125 47.1163 25.9875 48.0634 24.3782 49.0028 22.7689 50.2579 21.4445 51.8287 20.4127 53.3918 19.3809 55.1936 18.6263 57.211 18.1489 59.2361 17.6638 61.3305 17.4251 63.5173 17.4251 65.2267 17.4251 66.9515 17.5637 68.7071 17.8332 70.4627 18.1104 72.1952 18.5031 73.8969 19.0267L73.8969 28.567C72.3954 27.6584 70.7784 26.9731 69.0613 26.5188 67.3442 26.0645 65.6579 25.8335 64.0024 25.8335 63.2247 25.8335 62.4932 25.9028 61.8002 26.0491 61.1072 26.1877 60.5066 26.3956 59.9753 26.6728 59.4517 26.95 59.0359 27.2965 58.7356 27.7277 58.4353 28.1589 58.2813 28.644 58.2813 29.1907 58.2813 29.9222 58.5123 30.5459 58.9589 31.0618 59.4132 31.5854 59.9984 32.032 60.7299 32.4093 61.4614 32.7866 62.2622 33.1254 63.1554 33.4257 64.0486 33.726 64.9264 34.0263 65.8119 34.342 67.3904 34.9118 68.8226 35.5355 70.1008 36.2131 71.379 36.8907 72.4801 37.6838 73.3964 38.5924 74.3127 39.501 75.0134 40.5713 75.5062 41.7956 75.999 43.0199 76.2377 44.4752 76.2377 46.1692 76.2377 48.5331 75.7449 50.5582 74.7516 52.2368 73.7583 53.9154 72.4416 55.2783 70.8015 56.3332 69.1614 57.3881 67.2672 58.1581 65.1189 58.6355 62.9783 59.1206 60.7453 59.3593 58.4353 59.3593 54.1926 59.3593 50.2656 58.6817 46.6543 57.3265Z" fill="#000000" fill-rule="nonzero" fill-opacity="1"/><path d="M0.77 19.0729 19.6427 19.0729 19.6427 27.1656 0.77 27.1656 0.77 19.0729Z" fill="#000000" fill-rule="nonzero" fill-opacity="1"/><path d="M0.77 51.4591 19.6427 51.4591 19.6427 59.5518 0.77 59.5518 0.77 51.4591Z" fill="#000000" fill-rule="nonzero" fill-opacity="1"/><path d="M6.1369 26.642 14.2758 26.642 14.2758 52.6295 6.1369 52.6295 6.1369 26.642Z" fill="#000000" fill-rule="nonzero" fill-opacity="1"/><path d="M22.3608 19.0729 41.2335 19.0729 41.2335 27.1656 22.3608 27.1656 22.3608 19.0729Z" fill="#000000" fill-rule="nonzero" fill-opacity="1"/><path d="M22.3608 51.4591 41.2335 51.4591 41.2335 59.5518 22.3608 59.5518 22.3608 51.4591Z" fill="#000000" fill-rule="nonzero" fill-opacity="1"/><path d="M27.7277 26.642 35.8666 26.642 35.8666 52.6295 27.7277 52.6295 27.7277 26.642Z" fill="#000000" fill-rule="nonzero" fill-opacity="1"/></g></g></svg>