<svg width="77" height="77" xmlns="http://www.w3.org/2000/svg" xmlns:xlink="http://www.w3.org/1999/xlink" xml:space="preserve" overflow="hidden"><g><g><path d="M35.4362 10.0108 37.1049 13.1451C37.4801 13.7234 37.8865 14.2354 38.3653 14.7122 39.7688 16.0982 41.077 17.5775 42.2811 19.1399 45.1086 22.8526 47.0157 26.9755 48.3776 31.4346 49.1944 34.1585 49.6379 36.9527 49.6712 39.7782 49.8079 48.2253 46.9121 55.4786 41.0735 61.5067 40.1239 62.4626 39.0978 63.3396 38.0057 64.129 37.4273 64.129 37.1538 63.6855 36.9154 63.2771 36.4812 62.5197 36.1924 61.6881 36.0635 60.8248 35.8583 59.8028 35.7235 58.7809 35.7899 57.7257L35.7899 57.249C35.743 57.1473 35.233 10.2512 35.4362 10.0108Z" fill="#599636" fill-rule="nonzero" fill-opacity="1"/><path d="M35.4362 9.90727C35.3678 9.77049 35.2994 9.87405 35.231 9.94048 35.2643 10.6244 35.0259 11.234 34.6527 11.8163 34.2423 12.3947 33.6991 12.8383 33.1539 13.3151 30.1252 15.9373 27.7413 19.1048 25.8323 22.6474 23.2921 27.4152 21.9829 32.5249 21.6116 37.9043 21.4416 39.8446 22.2252 46.6915 22.8368 48.667 24.5055 53.9115 27.5029 58.3061 31.3856 62.1203 32.3391 63.0387 33.3591 63.8906 34.4143 64.7094 34.7211 64.7094 34.7543 64.4358 34.8246 64.2326 34.959 63.7978 35.0616 63.3537 35.1314 62.9039L35.8153 57.7961Z" fill="#6CAC48" fill-rule="nonzero" fill-opacity="1"/><path d="M37.1049 66.2042C37.1733 65.4226 37.5485 64.7738 37.9569 64.1271 37.5465 63.9571 37.2417 63.619 37.0033 63.2419 36.7978 62.8849 36.6276 62.5086 36.4953 62.1183 36.0185 60.688 35.9169 59.1873 35.7801 57.7257L35.7801 56.8406C35.6101 56.9773 35.5749 58.1341 35.5749 58.3061 35.4755 59.8509 35.2705 61.387 34.9614 62.9039 34.8598 63.5174 34.7914 64.129 34.4143 64.6742 34.4143 64.7426 34.4143 64.811 34.4475 64.9126 35.061 66.7181 35.2291 68.5568 35.3327 70.4307L35.3327 71.1146C35.3327 71.9314 35.2994 71.7594 35.9775 72.033 36.251 72.1346 36.5559 72.1698 36.8294 72.373 37.0346 72.373 37.0678 72.203 37.0678 72.0662L36.9662 70.9426 36.9662 67.8084C36.933 67.2613 37.0346 66.7181 37.103 66.2061Z" fill="#C2BFBF" fill-rule="nonzero" fill-opacity="1"/></g></g></svg>