<svg width="77" height="77" xmlns="http://www.w3.org/2000/svg" xmlns:xlink="http://www.w3.org/1999/xlink" xml:space="preserve" overflow="hidden"><defs><clipPath id="clip0"><rect x="0" y="0" width="77" height="77"/></clipPath><clipPath id="clip1"><rect x="0" y="0" width="77" height="77"/></clipPath></defs><g clip-path="url(#clip0)"><g clip-path="url(#clip1)"><path d="M66.4366 22.4583C60.6744 22.4583 57.065 26.4688 57.065 26.4688 55.1464 23.9679 52.5028 22.4647 48.0288 22.4647 43.3061 22.4647 40.1748 26.4688 40.1748 26.4688 38.2546 23.9662 34.7896 22.4583 32.0833 22.4583 27.8981 22.4583 24.5742 24.3095 22.5466 28.9712L15.7529 43.829 8.06896 24.9576C7.10165 22.8241 4.70823 21.8568 2.47523 22.8546 0.239021 23.854-0.583917 26.3484 0.425104 28.4836L9.80467 49.6425C11.2821 52.8573 12.8365 54.5417 15.7545 54.5417 18.8714 54.5417 20.2301 52.7081 21.7044 49.6441 21.7044 49.6441 28.0922 35.3943 28.875 33.6875 29.6578 31.9807 30.9588 30.4792 32.8854 30.4792 35.0911 30.4792 36.8958 32.2839 36.8958 34.4896L36.8958 50.3323C36.8958 52.6471 38.6396 54.5417 40.9415 54.5417 43.2435 54.5417 44.9167 52.6471 44.9167 50.3323L44.9167 34.4896C44.9167 32.2839 46.7214 30.4792 48.9271 30.4792 51.1328 30.4792 52.9375 32.2839 52.9375 34.4896L52.9375 50.5312C52.9375 52.737 54.7422 54.5417 56.9479 54.5417 59.1536 54.5417 60.9583 52.737 60.9583 50.5312L60.9583 34.4896C60.9583 32.2839 62.763 30.4792 64.9688 30.4792 67.1745 30.4792 68.9792 32.2839 68.9792 34.4896L68.9792 50.5312C68.9792 52.737 70.7839 54.5417 72.9896 54.5417 75.1953 54.5417 77 52.737 77 50.5312L77 49.6265 77 34.4896 77 32.656C77 26.6596 72.2051 22.4583 66.4366 22.4583Z" fill="#9E9E9E" fill-rule="nonzero" fill-opacity="1"/></g></g></svg>