<svg width="68" height="68" xmlns="http://www.w3.org/2000/svg" xmlns:xlink="http://www.w3.org/1999/xlink" xml:space="preserve" overflow="hidden"><g><g><g><g><g><path d="M1.21019 52.3438 28.8205 52.3438 44.6545 67 44.6545 52.3438 65.7877 52.3438 65.7877 0 1.21019 0ZM11.613 12.2359 23.718 12.2359 47.011 33.9585 47.011 12.2359 54.7317 12.2359 54.7317 40.3047 43.0203 40.3047 19.3358 18.1895 19.3358 40.3047 11.6151 40.3047Z" fill="#8DC63F" fill-rule="nonzero" fill-opacity="1"/><path d="M19.3358 18.1895 43.0203 40.3047 54.7306 40.3047 54.7306 12.2348 47.011 12.2348 47.011 33.9575 23.718 12.2348 11.614 12.2348 11.614 40.3047 19.3347 40.3047Z" fill="#FFFFFF" fill-rule="nonzero" fill-opacity="1"/><path d="M1.21019 0 65.7888 0 65.7888 52.3438 1.21019 52.3438Z" fill="#27AAE1" fill-rule="nonzero" fill-opacity="1"/><path d="M33.5 0 65.7898 0 65.7898 26.1719 33.5 26.1719Z" fill="#34A574" fill-rule="nonzero" fill-opacity="1"/><path d="M33.5 26.1719 65.7898 26.1719 65.7898 52.3438 33.5 52.3438Z" fill="#8DC63F" fill-rule="nonzero" fill-opacity="1"/><path d="M1.21019 0 33.5 0 33.5 26.1719 1.21019 26.1719Z" fill="#27AAE1" fill-rule="nonzero" fill-opacity="1"/><path d="M1.21019 26.1719 33.5 26.1719 33.5 52.3438 1.21019 52.3438Z" fill="#375C93" fill-rule="nonzero" fill-opacity="1"/><path d="M33.5 52.3438 33.6612 56.8485 28.8205 52.3438Z" fill="#375C93" fill-rule="nonzero" fill-opacity="1"/><path d="M17.1342 16.572 45.1465 42.7272 58.9966 42.7272 58.9966 9.52866 49.8658 9.52866 49.8658 35.219 22.3194 9.52866 8.00231 9.52866 8.00231 42.7251 17.1332 42.7251Z" fill="#FFFFFF" fill-rule="nonzero" fill-opacity="1"/></g></g></g></g></g></svg>