<svg width="68" height="68" xmlns="http://www.w3.org/2000/svg" xmlns:xlink="http://www.w3.org/1999/xlink" xml:space="preserve" overflow="hidden"><defs><clipPath id="clip0"><rect x="0" y="0" width="68" height="68"/></clipPath><clipPath id="clip1"><rect x="0" y="0" width="68" height="68"/></clipPath><clipPath id="clip2"><rect x="0" y="0" width="67" height="67"/></clipPath><clipPath id="clip3"><rect x="0" y="0" width="67" height="67"/></clipPath><clipPath id="clip4"><rect x="0" y="0" width="67" height="67"/></clipPath></defs><g clip-path="url(#clip0)"><g clip-path="url(#clip1)"><g clip-path="url(#clip2)"><g clip-path="url(#clip3)"><g clip-path="url(#clip4)"><path d="M50.0479 58.4684 43.085 50.5965" stroke="#284A6A" stroke-width="0.272205" stroke-linecap="butt" stroke-linejoin="miter" stroke-miterlimit="10" stroke-opacity="1" fill="none" fill-rule="nonzero" transform="matrix(1.00649 0 0 1 -16.9221 -33.6662)"/><path d="M28.1024 52.4122 33.5519 60.3602" stroke="#284A6A" stroke-width="0.136102" stroke-linecap="butt" stroke-linejoin="miter" stroke-miterlimit="10" stroke-opacity="1" fill="none" fill-rule="nonzero" transform="matrix(1.00649 0 0 1 -16.9221 -33.6662)"/><path d="M50.0479 58.4684 56.9347 50.5204M58.3721 67.2448 66.544 60.3602M58.3721 67.247 66.544 74.4361M57.0109 83.5192 50.0479 75.7996M43.085 83.517 50.0479 75.7973M33.5496 74.1338 41.4215 67.247M33.5496 60.3602 41.4215 67.247M50.0479 58.4684 33.5496 60.3602M50.0502 58.4684 66.5463 60.3602M58.3721 67.247 56.9347 50.5226M58.3721 67.247 57.0109 83.517M66.5463 74.4361 50.0479 75.7973M33.5496 74.1338 50.0502 75.7973M43.085 83.517 41.4215 67.247M43.085 50.5965 41.4215 67.247" stroke="#284A6A" stroke-width="0.272205" stroke-linecap="butt" stroke-linejoin="miter" stroke-miterlimit="10" stroke-opacity="1" fill="none" fill-rule="nonzero" transform="matrix(1.00649 0 0 1 -16.9221 -33.6662)"/><path d="M25.9822 62.4782 33.5496 60.3602M35.1392 44.9209 43.0873 50.5965M44.8963 41.3656 43.085 50.5987M44.8985 41.3656 56.9303 50.5226M55.119 41.3656 56.9303 50.5226M64.8805 44.9209 56.9347 50.5226M71.9935 52.4144 56.9347 50.5226M66.5463 60.3602 71.9935 52.4122M66.5463 60.3602 74.2637 62.4782M66.5463 60.3602 74.1137 71.8636M55.1213 41.3656 43.0873 50.5965M66.5463 60.3602 64.8805 44.9209M66.5463 74.4361 74.1137 71.8614M66.5463 74.4361 74.2637 62.4805M66.5463 74.4361 71.9957 81.7774M66.5463 74.4338 64.8805 89.2687M57.0109 83.517 64.8805 89.2709M57.0109 83.517 71.9935 81.7774M57.0109 83.517 55.1974 92.8262M57.0109 83.517 44.903 92.8195M43.0895 83.517 44.903 92.8262M43.085 83.517 55.1951 92.8195M43.085 83.517 35.1392 89.2709M43.0873 83.517 28.1024 81.8535M33.5496 74.1338 28.1024 81.8512M33.5496 74.1338 35.1392 89.2687M33.5496 74.1338 25.9061 71.7875M33.5496 60.3602 25.9061 71.7875M33.5496 74.1338 25.9822 62.4782M35.1392 44.9231 33.5496 60.3602M28.1024 52.4122 43.0873 50.6032" stroke="#284A6A" stroke-width="0.136102" stroke-linecap="butt" stroke-linejoin="miter" stroke-miterlimit="10" stroke-opacity="1" fill="none" fill-rule="nonzero" transform="matrix(1.00649 0 0 1 -16.9221 -33.6662)"/><path d="M35.1392 44.9209 29.3114 42.1984M35.1392 44.9209 34.687 38.5647M44.903 41.3633 34.6847 38.5647M44.903 41.3656 40.5148 35.9923M44.903 41.3656 46.7143 34.9333M35.1392 44.9209 40.5126 35.9923M55.119 41.3656 46.7187 34.9333M55.119 41.3656 53.2272 34.7049M44.903 41.3656 53.2272 34.7049M55.119 41.3656 59.5072 35.9923M64.8805 44.9231 59.5072 35.9923M64.8828 44.9209 65.4111 38.5647M55.119 41.3633 65.4111 38.5647M64.8805 44.9231 70.8539 41.8939M64.8805 44.9209 75.2488 46.506M71.9935 52.4122 75.2488 46.506M71.9935 52.4144 70.8583 41.8939M71.9935 52.4144 78.8064 51.8838M71.9935 52.4144 81.3027 57.7116M74.2637 62.4782 78.8064 51.8838M74.2637 62.4782 81.3027 57.7094M74.2637 62.4782 82.1356 64.0678M74.1137 71.8636 82.1356 64.0678M74.1137 71.8636 82.3617 70.3501M74.2637 62.4782 82.3617 70.3479M74.1137 71.8636 81.1505 76.5541M71.9935 81.7774 81.1505 76.5541M71.9935 81.7774 78.7303 82.4625M74.1137 71.8681 78.7303 82.4625M71.9935 81.7774 75.1727 87.7485M71.9935 81.7774 70.7845 92.2195M70.7845 92.2195 64.8805 89.2687M64.8805 89.2687 65.335 95.851M64.8805 89.2687 75.1727 87.7552M64.8805 89.2687 59.5072 98.3496M55.1951 92.8195 59.5027 98.3451M55.1951 92.8195 65.335 95.8465M55.1929 92.8195 53.2249 99.6324M55.1951 92.8195 46.7187 99.6324M44.903 92.8195 46.7143 99.6324M44.9008 92.8195 53.2272 99.6324M44.903 92.8195 40.5932 98.3451M35.1437 89.2687 40.5932 98.3496M44.903 92.8195 34.6109 95.9987M35.1392 89.2687 34.6109 96.0032M35.1392 89.2687 29.2375 92.5218M28.1024 81.8512 29.2375 92.5218M35.1392 89.2687 24.7732 87.8313M28.1024 81.858 24.7732 87.8313M28.1024 81.858 21.2918 82.5431M28.1024 81.858 18.717 76.6369M25.9039 71.7875 18.717 76.6302M25.9039 71.7875 17.7319 70.3501M25.9061 71.7875 21.2895 82.5341M25.9822 62.4782 17.7319 70.3479M25.9061 71.7875 17.7342 64.0678M25.9822 62.4782 18.9432 57.7855M25.9822 62.4782 17.7319 64.0678M25.9822 62.4782 21.2895 51.8838M28.1024 52.4122 21.2918 51.8838M28.1024 52.4144 18.9454 57.7878M28.1024 52.4144 24.8471 46.8128M28.1024 52.4144 29.3114 42.1984M35.1392 44.9209 24.8471 46.8128" stroke="#24405D" stroke-width="0.105749" stroke-linecap="butt" stroke-linejoin="miter" stroke-miterlimit="10" stroke-opacity="1" fill="none" fill-rule="nonzero" transform="matrix(1.00649 0 0 1 -16.9221 -33.6662)"/><path d="M20.6875 37.5146 20.7461 29.5688 28.757 29.6247 28.7029 37.5705ZM29.3586 28.7516 29.4127 20.8035 37.4259 20.8617 37.3696 28.8075ZM29.3586 46.2014 29.4127 38.2556 37.4259 38.3116 37.3696 46.2596ZM38.1019 37.4385 38.1582 29.4927 46.1692 29.5486 46.1151 37.4967Z" fill="#256EA5" fill-rule="nonzero" fill-opacity="1"/><path d="M37.6422 19.6236 37.6805 14.0981 43.2645 14.1384 43.2149 19.6617ZM23.6823 19.6236 23.7206 14.0981 29.3046 14.1362 29.264 19.6617ZM14.0151 29.4523 14.0557 23.929 19.6374 23.9671 19.5991 29.4927ZM14.0083 43.3513 14.0669 37.828 19.6509 37.8862 19.5923 43.4073ZM47.3094 43.2439 47.35 37.7183 52.9317 37.7586 52.8934 43.2819ZM47.4221 29.5106 47.4784 23.9872 53.0624 24.0455 53.0038 29.5688Z" fill="#3378BC" fill-rule="nonzero" fill-opacity="1"/><path d="M9.48794 20.5506 9.515 16.9169 13.1655 16.9415 13.1385 20.5752ZM16.6245 13.1578 16.6516 9.52628 20.2999 9.55092 20.2728 13.1846ZM26.4427 9.50169 26.4675 5.86795 30.118 5.89259 30.091 9.52628ZM7.34722 30.6099 7.37197 26.9761 11 27.0008 10.973 30.6345ZM53.6956 16.9683 57.3529 16.9415 57.3754 20.5685 53.7204 20.5909ZM46.5613 9.45015 50.2163 9.42556 50.2434 13.0503 46.586 13.0749ZM36.7093 5.88586 40.3644 5.86121 40.3914 9.48597 36.7341 9.51062ZM55.8273 27.0187 59.4847 26.9918 59.5094 30.6188 55.8544 30.6412Z" fill="#169BD6" fill-rule="nonzero" fill-opacity="1"/><path d="M23.6079 52.7725 23.6462 47.2494 29.2302 47.2872 29.1896 52.813ZM37.5679 52.7725 37.6084 47.2494 43.1901 47.2872 43.1519 52.813Z" fill="#3378BC" fill-rule="nonzero" fill-opacity="1"/><path d="M53.6708 49.9674 53.6979 46.3359 57.3461 46.3606 57.3214 49.9942ZM46.6176 57.4407 46.6446 53.807 50.2952 53.8339 50.2681 57.4653ZM36.795 61.0185 36.822 57.3848 40.4703 57.4095 40.4432 61.0432ZM55.8183 39.9057 55.8454 36.2742 59.4936 36.3011 59.4688 39.9325ZM9.49698 46.3337 13.1543 46.3091 13.1768 49.9335 9.52179 49.9581ZM16.6336 53.7758 20.2886 53.7512 20.3157 57.3755 16.6584 57.4002ZM26.4067 57.3399 30.064 57.3153 30.0888 60.9402 26.4337 60.9649ZM7.36973 36.2877 11.0271 36.263 11.0518 39.8878 7.39678 39.9124Z" fill="#169BD6" fill-rule="nonzero" fill-opacity="1"/><path d="M-7.95268 24.893-7.93897 22.9249-5.93367 22.9396-5.94737 24.9077Z" fill="#00A8DA" fill-rule="nonzero" fill-opacity="1" transform="matrix(1.00649 0 0 1 69.3477 -5.70109)"/><path d="M-7.95268 24.893-7.93897 22.9249-5.93367 22.9396-5.94737 24.9077Z" fill="#00A8DA" fill-rule="nonzero" fill-opacity="1" transform="matrix(1.00649 0 0 1 71.9543 0.241876)"/><path d="M-7.95268 24.893-7.93897 22.9249-5.93367 22.9396-5.94737 24.9077Z" fill="#00A8DA" fill-rule="nonzero" fill-opacity="1" transform="matrix(1.00649 0 0 1 65.8195 -10.9611)"/><path d="M-7.95268 24.893-7.93897 22.9249-5.93367 22.9396-5.94737 24.9077Z" fill="#00A8DA" fill-rule="nonzero" fill-opacity="1" transform="matrix(1.00649 0 0 1 19.5675 -15.4574)"/><path d="M-7.95268 24.893-7.93897 22.9249-5.93367 22.9396-5.94737 24.9077Z" fill="#00A8DA" fill-rule="nonzero" fill-opacity="1" transform="matrix(1.00649 0 0 1 7.9848 6.48985)"/><path d="M-7.95268 24.893-7.93897 22.9249-5.93367 22.9396-5.94737 24.9077Z" fill="#00A8DA" fill-rule="nonzero" fill-opacity="1" transform="matrix(1.00649 0 0 1 61.3709 -15.4569)"/><path d="M-7.95268 24.893-7.93897 22.9249-5.93367 22.9396-5.94737 24.9077Z" fill="#00A8DA" fill-rule="nonzero" fill-opacity="1" transform="matrix(1.00649 0 0 1 9.13539 0.240408)"/><path d="M-7.95268 24.893-7.93897 22.9249-5.93367 22.9396-5.94737 24.9077Z" fill="#00A8DA" fill-rule="nonzero" fill-opacity="1" transform="matrix(1.00649 0 0 1 30.9176 -21.5546)"/><path d="M-7.95268 24.893-7.93897 22.9249-5.93367 22.9396-5.94737 24.9077Z" fill="#00A8DA" fill-rule="nonzero" fill-opacity="1" transform="matrix(1.00649 0 0 1 11.5893 -5.70305)"/><path d="M-7.95268 24.893-7.93897 22.9249-5.93367 22.9396-5.94737 24.9077Z" fill="#00A8DA" fill-rule="nonzero" fill-opacity="1" transform="matrix(1.00649 0 0 1 15.1938 -11.037)"/><path d="M-2.58203 19.3613-0.613929 19.3476-0.599242 21.3529-2.56734 21.3666ZM9.57416 15.4936 11.5423 15.4799 11.5569 17.4852 9.58884 17.4989Z" fill="#00A8DA" fill-rule="nonzero" fill-opacity="1" transform="matrix(1.00649 0 0 1 19.5675 -15.4574)"/><path d="M-7.95268 24.893-7.93897 22.9249-5.93367 22.9396-5.94737 24.9077Z" fill="#00A8DA" fill-rule="nonzero" fill-opacity="1" transform="matrix(1.00649 0 0 1 56.0009 -18.9627)"/><path d="M-7.95268 24.893-7.93897 22.9249-5.93367 22.9396-5.94737 24.9077Z" fill="#00A8DA" fill-rule="nonzero" fill-opacity="1" transform="matrix(1.00649 0 0 1 72.9527 6.41544)"/><path d="M-7.95268 24.893-7.93897 22.9249-5.93367 22.9396-5.94737 24.9077Z" fill="#00A8DA" fill-rule="nonzero" fill-opacity="1" transform="matrix(1.00649 0 0 1 43.6519 -22.9249)"/><path d="M-7.95268 24.893-7.93897 22.9249-5.93367 22.9396-5.94737 24.9077Z" fill="#00A8DA" fill-rule="nonzero" fill-opacity="1" transform="matrix(1.00649 0 0 1 49.9415 -21.63)"/><path d="M-7.95268 24.893-7.93897 22.9249-5.93367 22.9396-5.94737 24.9077Z" fill="#00A8DA" fill-rule="nonzero" fill-opacity="1" transform="matrix(1.00649 0 0 1 61.369 34.688)"/><path d="M-7.95268 24.893-7.93897 22.9249-5.93367 22.9396-5.94737 24.9077Z" fill="#00A8DA" fill-rule="nonzero" fill-opacity="1" transform="matrix(1.00649 0 0 1 72.9527 12.7403)"/><path d="M-7.95268 24.893-7.93897 22.9249-5.93367 22.9396-5.94737 24.9077Z" fill="#00A8DA" fill-rule="nonzero" fill-opacity="1" transform="matrix(1.00649 0 0 1 19.5655 34.687)"/><path d="M-7.95268 24.893-7.93897 22.9249-5.93367 22.9396-5.94737 24.9077Z" fill="#00A8DA" fill-rule="nonzero" fill-opacity="1" transform="matrix(1.00649 0 0 1 71.9543 19.0656)"/><path d="M-7.95268 24.893-7.93897 22.9249-5.93367 22.9396-5.94737 24.9077Z" fill="#00A8DA" fill-rule="nonzero" fill-opacity="1" transform="matrix(1.00649 0 0 1 49.94 40.8606)"/><path d="M-7.95268 24.893-7.93897 22.9249-5.93367 22.9396-5.94737 24.9077Z" fill="#00A8DA" fill-rule="nonzero" fill-opacity="1" transform="matrix(1.00649 0 0 1 69.3457 25.01)"/><path d="M-7.95268 24.893-7.93897 22.9249-5.93367 22.9396-5.94737 24.9077Z" fill="#00A8DA" fill-rule="nonzero" fill-opacity="1" transform="matrix(1.00649 0 0 1 65.8185 30.3445)"/><path d="M28.1639 76.7352 30.132 76.7215 30.1467 78.7268 28.1786 78.7405ZM16.0826 80.4521 18.0507 80.4384 18.0654 82.4437 16.0973 82.4574Z" fill="#00A8DA" fill-rule="nonzero" fill-opacity="1" transform="matrix(1.00649 0 0 1 19.5675 -15.4574)"/><path d="M-7.95268 24.893-7.93897 22.9249-5.93367 22.9396-5.94737 24.9077Z" fill="#00A8DA" fill-rule="nonzero" fill-opacity="1" transform="matrix(1.00649 0 0 1 25.0115 38.4215)"/><path d="M-7.95268 24.893-7.93897 22.9249-5.93367 22.9396-5.94737 24.9077Z" fill="#00A8DA" fill-rule="nonzero" fill-opacity="1" transform="matrix(1.00649 0 0 1 11.5129 24.9317)"/><path d="M-7.95268 24.893-7.93897 22.9249-5.93367 22.9396-5.94737 24.9077Z" fill="#00A8DA" fill-rule="nonzero" fill-opacity="1" transform="matrix(1.00649 0 0 1 9.1344 19.0646)"/><path d="M-7.95268 24.893-7.93897 22.9249-5.93367 22.9396-5.94737 24.9077Z" fill="#00A8DA" fill-rule="nonzero" fill-opacity="1" transform="matrix(1.00649 0 0 1 15.1165 30.343)"/><path d="M-7.95268 24.893-7.93897 22.9249-5.93367 22.9396-5.94737 24.9077Z" fill="#00A8DA" fill-rule="nonzero" fill-opacity="1" transform="matrix(1.00649 0 0 1 7.9848 12.7393)"/><path d="M-7.95268 24.893-7.93897 22.9249-5.93367 22.9396-5.94737 24.9077Z" fill="#00A8DA" fill-rule="nonzero" fill-opacity="1" transform="matrix(1.00649 0 0 1 37.284 42.0796)"/><path d="M-7.95268 24.893-7.93897 22.9249-5.93367 22.9396-5.94737 24.9077Z" fill="#00A8DA" fill-rule="nonzero" fill-opacity="1" transform="matrix(1.00649 0 0 1 30.8413 40.7847)"/></g></g></g></g></g></svg>