<svg width="58" height="58" xmlns="http://www.w3.org/2000/svg" xmlns:xlink="http://www.w3.org/1999/xlink" xml:space="preserve" overflow="hidden"><defs><clipPath id="clip0"><rect x="0" y="0" width="58" height="58"/></clipPath><clipPath id="clip1"><rect x="0" y="0" width="58" height="58"/></clipPath></defs><g clip-path="url(#clip0)"><g clip-path="url(#clip1)"><path d="M58 29C58 45.0163 45.0163 58 29 58 12.9837 58 0 45.0163 0 29-6.43929e-15 12.9837 12.9837-3.21965e-15 29-3.21965e-15 45.0163-9.65894e-15 58 12.9837 58 29Z" fill="#FF0000" fill-rule="nonzero" fill-opacity="1"/><path d="M34.4545 28.3146 34.4545 28.241C37.0883 27.448 38.8838 25.5393 38.8838 22.6562 38.8838 18.0061 34.9189 16.2389 31.0674 16.2389L18.0344 16.2389 18.0344 16.6184 19.3428 17.7285C20.9117 19.0086 21.1213 19.2578 21.1213 20.4133L21.1213 41.7555 30.3197 41.7555C35.1455 41.7555 39.977 40.0223 39.977 34.4715 39.9713 31.2033 37.6604 28.6771 34.4545 28.3146ZM25.6582 20.1357 29.4021 20.1357C31.934 20.1357 32.7213 20.4869 33.4916 21.2119 34.075 21.767 34.3412 22.526 34.3469 23.4152 34.3469 24.2365 34.0637 24.9785 33.4633 25.5506 32.7156 26.2699 31.6848 26.6211 29.8043 26.6211L25.6582 26.6211 25.6582 20.1357ZM29.8383 37.8699 25.6582 37.8699 25.6582 30.5123 30.0195 30.5123C33.6955 30.5123 35.4287 31.4469 35.4287 34.1146 35.4287 37.4734 32.1775 37.8699 29.8383 37.8699Z" fill="#FFFFFF" fill-rule="nonzero" fill-opacity="1"/></g></g></svg>