<svg width="66" height="68" xmlns="http://www.w3.org/2000/svg" xmlns:xlink="http://www.w3.org/1999/xlink" xml:space="preserve" overflow="hidden"><g><g><g><g><g><path d="M64.3311 31.7069C65.0537 33.319 65.5123 35.0423 65.7 36.8003 65.8806 38.5583 65.7903 40.3372 65.4151 42.0674 65.0468 43.7976 64.4075 45.4584 63.5181 46.9871 62.9344 48.0086 62.2464 48.9675 61.4543 49.85 60.6691 50.7255 59.7936 51.5177 58.8416 52.2125 57.8827 52.9074 56.8612 53.4911 55.7772 53.9705 54.7002 54.4431 53.5745 54.8044 52.421 55.0406 51.879 56.7222 51.0729 58.3135 50.0306 59.7449 48.9953 61.1763 47.7376 62.4341 46.3061 63.4694 44.8747 64.5117 43.2904 65.3178 41.6088 65.8598 39.9272 66.4087 38.1692 66.6797 36.3973 66.6797 35.223 66.6867 34.0417 66.5616 32.8882 66.3253 31.7417 66.0821 30.616 65.7138 29.5389 65.2344 28.4619 64.7549 27.4404 64.1573 26.4884 63.4625 25.5434 62.7676 24.6679 61.9685 23.8896 61.086 22.1525 61.4612 20.3736 61.5516 18.6156 61.3709 16.8575 61.1833 15.1343 60.7247 13.5152 60.002 11.9031 59.2863 10.4092 58.3135 9.09585 57.1253 7.78254 55.937 6.6638 54.5473 5.78132 53.0186 5.19068 51.9971 4.70427 50.9201 4.33599 49.8013 3.96771 48.6826 3.7245 47.5291 3.59943 46.3548 3.47435 45.1874 3.4813 44.0061 3.60637 42.8318 3.73145 41.6644 3.98855 40.5109 4.35683 39.3922 3.17556 38.0789 2.20274 36.5849 1.48007 34.9728 0.764357 33.3538 0.298794 31.6374 0.118128 29.8794-0.069487 28.1214 0.0277948 26.3425 0.396076 24.6123 0.764357 22.8821 1.40364 21.2213 2.29307 19.6926 2.87676 18.6712 3.56468 17.7053 4.34989 16.8297 5.13509 15.9542 6.01757 15.1621 6.96955 14.4672 7.92152 13.7723 8.94992 13.1817 10.027 12.7092 11.111 12.2297 12.2367 11.8753 13.3901 11.6391 13.9321 9.95054 14.7382 8.36623 15.7735 6.9348 16.8159 5.50337 18.0736 4.24566 19.505 3.20335 20.9364 2.16799 22.5207 1.36195 24.2023 0.812998 25.8839 0.270999 27.6419-0.0069487 29.4138-2.19712e-14 30.5882-0.0069487 31.7695 0.111179 32.9229 0.354384 34.0764 0.597588 35.2021 0.95892 36.2792 1.43838 37.3562 1.92479 38.3777 2.51543 39.3296 3.2103 40.2816 3.91212 41.1571 4.70427 41.9354 5.58675 43.6656 5.21847 45.4445 5.12814 47.2025 5.30881 48.9605 5.48947 50.6769 5.95503 52.2959 6.67075 53.908 7.39342 55.402 8.35929 56.7153 9.54751 58.0286 10.7288 59.1473 12.1116 60.0298 13.6472 60.6205 14.6618 61.1069 15.7388 61.4751 16.8645 61.8434 17.9832 62.0936 19.1367 62.2117 20.311 62.3368 21.4854 62.3368 22.6667 62.2048 23.841 62.0797 25.0153 61.8226 26.1688 61.4543 27.2875 62.6425 28.6008 63.6084 30.0879 64.3311 31.7069ZM41.178 61.3709C42.6928 60.7455 44.0686 59.8214 45.2291 58.6609 46.3895 57.5005 47.3137 56.1246 47.9391 54.6029 48.5645 53.0881 48.891 51.4621 48.891 49.8222L48.891 34.3266C48.8864 34.3127 48.8818 34.2965 48.8772 34.2779 48.8725 34.264 48.8655 34.2501 48.8563 34.2362 48.8471 34.2223 48.8355 34.2107 48.8216 34.2015 48.8077 34.1876 48.7938 34.1784 48.7799 34.1737L43.1723 30.9356 43.1723 49.6554C43.1723 49.843 43.1445 50.0376 43.0958 50.2183 43.0472 50.4059 42.9777 50.5796 42.8804 50.7463 42.7831 50.9131 42.672 51.066 42.533 51.198 42.3979 51.3327 42.2461 51.4494 42.0813 51.5454L28.8024 59.2099C28.6912 59.2794 28.5036 59.3766 28.4063 59.4322 28.9552 59.8978 29.5528 60.3078 30.1782 60.6691 30.8105 61.0304 31.4637 61.3362 32.1447 61.5863 32.8257 61.8295 33.5275 62.0171 34.2362 62.1422 34.952 62.2673 35.6746 62.3298 36.3973 62.3298 38.0372 62.3298 39.6632 62.0032 41.178 61.3709ZM9.55446 50.8506C10.3814 52.2751 11.4723 53.5119 12.7717 54.5125 14.0781 55.5132 15.5581 56.2428 17.1424 56.6666 18.7267 57.0905 20.3805 57.2017 22.0065 56.9863 23.6325 56.7709 25.196 56.2428 26.6205 55.4228L40.0454 47.675 40.0801 47.6403C40.0893 47.631 40.0963 47.6171 40.1009 47.5986 40.1102 47.5847 40.1171 47.5708 40.1218 47.5569L40.1218 41.0251 23.9174 50.3989C23.7507 50.4962 23.5769 50.5657 23.3963 50.6213 23.2087 50.6699 23.021 50.6908 22.8265 50.6908 22.6389 50.6908 22.4512 50.6699 22.2636 50.6213 22.083 50.5657 21.9023 50.4962 21.7355 50.3989L8.45657 42.7276C8.33844 42.6581 8.16472 42.5538 8.06744 42.4913 7.94236 43.207 7.87982 43.9297 7.87982 44.6523 7.87982 45.375 7.94931 46.0977 8.07439 46.8134 8.19946 47.5222 8.39403 48.224 8.63723 48.9049 8.88739 49.5859 9.19313 50.2391 9.55446 50.8645ZM6.06621 21.8745C5.24627 23.299 4.71817 24.8694 4.50276 26.4954 4.28735 28.1214 4.39853 29.7682 4.8224 31.3595 5.24627 32.9438 5.97588 34.4239 6.97649 35.7302 7.97711 37.0296 9.22092 38.1206 10.6385 38.9405L24.0564 46.6953C24.0703 46.6999 24.0865 46.7045 24.105 46.7092L24.1537 46.7092C24.1722 46.7092 24.1884 46.7045 24.2023 46.6953 24.2162 46.6906 24.2301 46.6837 24.244 46.6744L29.8725 43.4224 13.6681 34.0695C13.5083 33.9722 13.3554 33.8541 13.2164 33.722 13.0818 33.587 12.965 33.4352 12.869 33.2704 12.7787 33.1036 12.7022 32.9299 12.6536 32.7423 12.6049 32.5616 12.5771 32.374 12.5841 32.1794L12.5841 16.3989C11.9031 16.6491 11.243 16.9548 10.6176 17.3162 9.99223 17.6844 9.40159 18.1014 8.84569 18.5669 8.29675 19.0325 7.78254 19.5467 7.31698 20.1026 6.85142 20.6515 6.44144 21.2491 6.08011 21.8745ZM52.1569 32.6033C52.3237 32.7006 52.4766 32.8118 52.6156 32.9507 52.7476 33.0828 52.8657 33.2356 52.963 33.4024 53.0533 33.5692 53.1298 33.7498 53.1784 33.9305 53.2201 34.1181 53.2479 34.3057 53.2409 34.5003L53.2409 50.2808C55.4715 49.4608 57.4171 48.0225 58.8555 46.1324 60.3008 44.2424 61.1694 41.984 61.3709 39.6215 61.5724 37.2589 61.0999 34.8825 60.002 32.777 58.9041 30.6716 57.2295 28.9205 55.1727 27.7392L41.7547 19.9845C41.7408 19.9798 41.7246 19.9752 41.7061 19.9706L41.6575 19.9706C41.6436 19.9752 41.6274 19.9798 41.6088 19.9845 41.5949 19.9891 41.581 19.9961 41.5671 20.0053L35.9665 23.2434 52.1708 32.6033ZM57.7506 24.1954 57.7437 24.1954 57.7437 24.2023ZM57.7437 24.1884C58.1467 21.8537 57.8757 19.4494 56.9585 17.2606 56.0482 15.0717 54.5264 13.1886 52.5808 11.8267 50.6352 10.4717 48.3421 9.69343 45.9726 9.5892 43.5961 9.49192 41.2475 10.0687 39.1907 11.2499L25.7727 18.9977C25.7588 19.007 25.7472 19.0186 25.738 19.0325L25.7102 19.0742C25.7055 19.0881 25.7009 19.1043 25.6963 19.1228 25.6916 19.1367 25.6893 19.1529 25.6893 19.1715L25.6893 25.6476 41.8937 16.2878C42.0605 16.1905 42.2411 16.121 42.4218 16.0654 42.6094 16.0168 42.797 15.9959 42.9846 15.9959 43.1792 15.9959 43.3668 16.0168 43.5544 16.0654 43.7351 16.121 43.9088 16.1905 44.0756 16.2878L57.3546 23.9591C57.4727 24.0286 57.6464 24.1259 57.7437 24.1884ZM22.6319 17.0174C22.6319 16.8297 22.6597 16.6421 22.7083 16.4545 22.757 16.2739 22.8265 16.0932 22.9238 15.9264 23.021 15.7666 23.1322 15.6137 23.2712 15.4748 23.4032 15.3427 23.5561 15.2246 23.7229 15.1343L37.0018 7.46985C37.1269 7.39342 37.3006 7.29613 37.3979 7.24749 35.5773 5.72573 33.3538 4.75291 30.9981 4.45412 28.6425 4.14837 26.2522 4.5236 24.105 5.53116 21.9509 6.53873 20.1304 8.14388 18.8588 10.1451 17.5872 12.1533 16.9131 14.4741 16.9131 16.8506L16.9131 32.3462C16.9178 32.3647 16.9224 32.3809 16.927 32.3948 16.9317 32.4087 16.9386 32.4226 16.9479 32.4365 16.9571 32.4504 16.9687 32.4643 16.9826 32.4782 16.9919 32.4875 17.0058 32.4968 17.0243 32.506L22.6319 35.7441ZM25.6754 37.4952 32.8951 41.6644 40.1148 37.4952 40.1148 29.1637 32.9021 24.9945 25.6824 29.1637Z" fill="#000000" fill-rule="nonzero" fill-opacity="1" transform="matrix(1 0 0 1.00459 0.0944356 0.00698062)"/></g></g></g></g></g></svg>