<svg width="222" height="38" xmlns="http://www.w3.org/2000/svg" xmlns:xlink="http://www.w3.org/1999/xlink" xml:space="preserve" overflow="hidden"><defs><clipPath id="clip0"><rect x="0" y="0" width="222" height="38"/></clipPath><clipPath id="clip1"><rect x="0" y="0" width="222" height="38"/></clipPath></defs><g clip-path="url(#clip0)"><g clip-path="url(#clip1)"><path d="M136.559 11.3861 136.559 13.5062C136.559 13.901 136.234 14.2178 135.839 14.203 135.237 14.1798 134.396 14.1502 133.881 14.1418 131.003 14.1418 129.415 15.8586 129.415 18.9775L129.415 26.7061C129.415 27.0905 129.103 27.403 128.718 27.403L126.193 27.403C125.808 27.403 125.498 27.0905 125.498 26.7061L125.498 11.1876C125.498 10.8032 125.81 10.4907 126.193 10.4907L128.598 10.4907C128.982 10.4907 129.295 10.8011 129.295 11.1876L129.295 12.1758C130.446 10.9827 132.281 10.3408 134.549 10.3408 134.924 10.3408 135.4 10.3936 135.731 10.44 136.204 10.5055 136.559 10.9109 136.559 11.3861ZM110.723 17.9216C110.585 17.7485 110.602 17.4972 110.761 17.3409L116.973 11.2382C117.252 10.9637 117.058 10.4928 116.667 10.4928L113.052 10.4928C112.877 10.4928 112.71 10.5583 112.581 10.6765L105.585 17.0981C105.306 17.3557 104.854 17.1572 104.854 16.7771L104.854 11.1876C104.854 10.8032 104.542 10.4907 104.158 10.4907L101.634 10.4907C101.25 10.4907 100.937 10.8011 100.937 11.1876L100.937 26.704C100.937 27.0884 101.25 27.4009 101.634 27.4009L104.153 27.4009C104.54 27.4009 104.852 27.0862 104.85 26.6998L104.827 23.0994C104.825 22.9052 104.907 22.7172 105.051 22.5842L107.228 20.5654C107.412 20.3944 107.705 20.4155 107.864 20.6119L113.122 27.1411C113.255 27.3059 113.453 27.4009 113.664 27.4009L117.292 27.4009C117.655 27.4009 117.858 26.9828 117.634 26.6956L110.723 17.9216ZM90.1129 10.4928 87.5874 10.4928C87.203 10.4928 86.8905 10.8032 86.8905 11.1897L86.8905 26.7061C86.8905 27.0905 87.203 27.403 87.5874 27.403L90.1129 27.403C90.4972 27.403 90.8098 27.0905 90.8098 26.7061L90.8098 11.1876C90.8098 10.8032 90.4972 10.4928 90.1129 10.4928ZM180.583 10.4928 165.337 10.4928C164.954 10.4928 164.64 10.8054 164.64 11.1897L164.64 13.447C164.64 13.8314 164.952 14.1439 165.337 14.1439L170.521 14.1439C170.761 14.1439 170.956 14.3382 170.956 14.5789L170.956 26.7061C170.956 27.0905 171.268 27.403 171.652 27.403L174.267 27.403C174.651 27.403 174.964 27.0905 174.964 26.7061L174.964 14.5768C174.964 14.336 175.158 14.1418 175.399 14.1418L180.583 14.1418C180.967 14.1418 181.28 13.8292 181.28 13.4449L181.28 11.1876C181.28 10.8032 180.967 10.4928 180.583 10.4928ZM159.367 18.9458C159.367 23.9483 155.686 27.5804 150.614 27.5804 145.525 27.5804 141.832 23.9483 141.832 18.9458 141.832 13.9602 145.525 10.3429 150.614 10.3429 155.686 10.3429 159.367 13.9602 159.367 18.9458ZM155.42 18.9458C155.42 15.9282 153.488 13.901 150.614 13.901 147.768 13.901 145.78 15.9747 145.78 18.9458 145.78 21.9338 147.768 24.0201 150.614 24.0201 153.444 24.0222 155.42 21.9338 155.42 18.9458ZM192.362 10.4928 189.836 10.4928C189.454 10.4928 189.139 10.8054 189.139 11.1897L189.139 26.7061C189.139 27.0905 189.452 27.403 189.836 27.403L192.362 27.403C192.746 27.403 193.058 27.0905 193.058 26.7061L193.058 11.1876C193.058 10.8032 192.746 10.4928 192.362 10.4928ZM69.7439 10.3429C67.4675 10.3429 65.4192 11.1284 64.0213 12.5158 63.8333 12.7016 63.544 12.6868 63.373 12.4883 62.1778 11.101 60.3406 10.3429 58.1297 10.3429 56.1025 10.3429 54.3689 10.9447 53.1737 12.0576L53.1737 11.1876C53.1737 10.8032 52.8611 10.4907 52.4768 10.4907L50.0716 10.4907C49.6873 10.4907 49.3748 10.8011 49.3748 11.1876L49.3748 26.704C49.3748 27.0884 49.6873 27.4009 50.0716 27.4009L52.5972 27.4009C52.9815 27.4009 53.2919 27.0884 53.2919 26.704L53.2919 18.7072C53.2919 15.6896 54.8377 13.9602 57.53 13.9602 59.9035 13.9602 61.1072 15.3454 61.1072 18.0779L61.1072 26.704C61.1072 27.0884 61.4197 27.4009 61.804 27.4009L64.3296 27.4009C64.7139 27.4009 65.0264 27.0884 65.0264 26.704L65.0264 18.7072C65.0264 15.6896 66.57 13.9602 69.2624 13.9602 71.638 13.9602 72.8417 15.3454 72.8417 18.0779L72.8417 26.704C72.8417 27.0884 73.1542 27.4009 73.5385 27.4009L76.064 27.4009C76.4484 27.4009 76.7609 27.0884 76.7609 26.704L76.7609 17.7506C76.763 13.0437 74.2037 10.3429 69.7439 10.3429ZM219.885 26.6956 212.971 17.9216C212.834 17.7464 212.851 17.4972 213.009 17.3409L219.222 11.2361C219.501 10.9637 219.306 10.4907 218.916 10.4907L215.3 10.4907C215.127 10.4907 214.958 10.5562 214.83 10.6744L207.834 17.096C207.555 17.3515 207.103 17.1551 207.103 16.775L207.103 11.1876C207.103 10.8032 206.79 10.4907 206.406 10.4907L203.881 10.4907C203.496 10.4907 203.184 10.8032 203.184 11.1876L203.184 26.704C203.184 27.0884 203.496 27.4009 203.881 27.4009L206.4 27.4009C206.786 27.4009 207.099 27.0862 207.097 26.6998L207.073 23.1015C207.073 22.9052 207.154 22.7193 207.297 22.5863L209.477 20.5654C209.66 20.3944 209.954 20.4155 210.112 20.6119L215.37 27.139C215.503 27.3037 215.702 27.3988 215.913 27.3988L219.541 27.3988C219.906 27.4009 220.109 26.9828 219.885 26.6956ZM35.2372 9.77909C35.1908 9.67351 35.1422 9.57215 35.0873 9.48135 35.0324 9.39054 34.9669 9.29974 34.893 9.21105 34.5108 8.74227 33.8879 8.28192 33.0918 7.84481L26.6871 4.33523 20.2825 0.821435C19.4864 0.384322 18.7557 0.103471 18.137 0.0232282 18.0188 0.00844663 17.9026 0 17.7928 0 17.1087 0 16.2513 0.301967 15.3011 0.821435L8.89642 4.33312 2.49176 7.8427C1.69566 8.27981 1.07272 8.73804 0.690512 9.20894 0.616604 9.29974 0.551143 9.39054 0.49624 9.47923 0.441337 9.57003 0.392768 9.6714 0.346312 9.77698 0.109806 10.3281 0 11.0672 0 11.9393L0 25.9818C0 27.0229 0.154151 27.8781 0.49624 28.4419 0.838328 29.0057 1.54151 29.559 2.49176 30.0785L8.89642 33.5901 15.3011 37.0997C16.0972 37.5347 16.8278 37.8177 17.4465 37.8979 17.5648 37.9127 17.6809 37.9233 17.7907 37.9233 17.9005 37.9233 18.0167 37.9148 18.1349 37.8979 18.7536 37.8177 19.4843 37.5368 20.2804 37.0997L33.0897 30.0785C34.0378 29.559 34.7431 29.0057 35.0852 28.4419 35.1401 28.3511 35.1887 28.2498 35.2351 28.1442 35.4716 27.5951 35.5814 26.854 35.5814 25.9818L35.5814 11.9393C35.5836 11.0672 35.4737 10.3281 35.2372 9.77909ZM10.2584 26.2542C10.2584 26.5731 9.91635 26.7779 9.6355 26.6238L7.34435 25.3674C6.80587 25.0717 6.47012 24.5058 6.47012 23.8913L6.47012 17.1044C6.47012 16.7856 6.81221 16.5829 7.09306 16.7349L9.82343 18.2299C10.0937 18.3778 10.2605 18.6607 10.2605 18.969L10.2605 26.2542ZM29.1134 23.8913C29.1134 24.5058 28.7777 25.0738 28.2392 25.3695L25.9481 26.6238C25.6672 26.7779 25.3251 26.5752 25.3251 26.2542L25.3251 17.2628C25.3251 16.9439 24.983 16.7391 24.7022 16.8933L20.5633 19.1612C20.0249 19.4568 19.6891 20.0227 19.6891 20.6372L19.6891 29.5569C19.6891 29.8652 19.5223 30.1481 19.252 30.296L18.6016 30.6507C18.0969 30.9273 17.4866 30.9273 16.982 30.6507L16.3358 30.296C16.0655 30.1481 15.8987 29.8652 15.8987 29.5569L15.8987 20.6393C15.8987 20.0249 15.5629 19.4589 15.0244 19.1633L6.47012 14.4754 6.47012 14.032C6.47012 13.4175 6.80587 12.8516 7.34435 12.5559L8.28826 12.0365C8.79294 11.7598 9.40321 11.7598 9.90579 12.0365L16.982 15.9135C17.4866 16.1901 18.0969 16.1901 18.5995 15.9135L21.8683 14.1207C22.1597 13.9602 22.1597 13.5421 21.8683 13.3816L14.524 9.35676C14.2326 9.19627 14.2326 8.77816 14.524 8.61768L16.982 7.27044C17.4866 6.99381 18.0969 6.99381 18.6016 7.27044L28.2392 12.5517C28.7798 12.8473 29.1155 13.4133 29.1155 14.0299L29.1155 23.8913Z" fill="#293239" fill-rule="nonzero" fill-opacity="1" transform="matrix(1.00919 0 0 1 1.17759e-14 0.0383645)"/></g></g></svg>