<svg width="229" height="38" xmlns="http://www.w3.org/2000/svg" xmlns:xlink="http://www.w3.org/1999/xlink" xml:space="preserve" overflow="hidden"><g><g><path d="M35.3611 1.05556C39.0556 1.05556 42.1694 2.26944 44.7028 4.75 47.1833 7.23056 48.45 10.2917 48.45 13.8806 48.45 17.4694 47.1833 20.5306 44.7028 23.0111 42.2222 25.4917 39.1611 26.7583 35.5722 26.7583 31.9306 26.7583 28.8694 25.4917 26.3889 23.0111 23.9083 20.5306 22.6417 17.5222 22.6417 13.9861 22.6417 11.6111 23.2222 9.44722 24.3306 7.44167 25.4389 5.43611 27.0222 3.85278 28.975 2.69167 30.9278 1.63611 33.0917 1.05556 35.3611 1.05556ZM35.4667 3.43056C33.6722 3.43056 31.9306 3.90556 30.2944 4.85556 28.6583 5.80556 27.3917 7.07222 26.4944 8.65556 25.5972 10.2389 25.1222 12.0333 25.1222 13.9861 25.1222 16.8889 26.125 19.3694 28.1306 21.375 30.1361 23.3806 32.5639 24.3833 35.4139 24.3833 37.3139 24.3833 39.0556 23.9083 40.6917 23.0111 42.3278 22.1139 43.5944 20.8472 44.4917 19.2111 45.3889 17.6278 45.8639 15.8333 45.8639 13.8806 45.8639 11.9278 45.3889 10.1861 44.4917 8.60278 43.5944 7.01944 42.3278 5.75278 40.6389 4.80278 39.0556 3.90556 37.3139 3.43056 35.4667 3.43056Z" fill="#68686B" fill-rule="nonzero" fill-opacity="1" transform="matrix(1.00672 0 0 1 0 0.131944)"/><path d="M55.1 26.9694 55.1 0.95 55.6806 0.95 72.9917 20.9 72.9917 0.95 75.5778 0.95 75.5778 26.9694 74.9444 26.9694 57.7389 7.28333 57.7389 26.9694 55.1 26.9694Z" fill="#68686B" fill-rule="nonzero" fill-opacity="1" transform="matrix(1.00672 0 0 1 0 0.131944)"/><path d="M82.5972 0.95 85.025 0.95 85.025 26.9167 82.5972 26.9167 82.5972 0.95Z" fill="#68686B" fill-rule="nonzero" fill-opacity="1" transform="matrix(1.00672 0 0 1 0 0.131944)"/><path d="M170.631 0.95 165.617 0.95 158.597 19.7389 172.742 19.7917 175.433 26.8639 180.553 26.8639 170.631 0.95ZM164.719 16.6778 168.203 7.81111 171.633 16.6778 164.719 16.6778Z" fill="#68686B" fill-rule="nonzero" fill-opacity="1" transform="matrix(1.00672 0 0 1 0 0.131944)"/><path d="M185.883 0.95 190.792 0.95 190.792 22.1139 200.608 22.1139 200.608 26.8111 185.883 26.8111 185.883 0.95Z" fill="#68686B" fill-rule="nonzero" fill-opacity="1" transform="matrix(1.00672 0 0 1 0 0.131944)"/><path d="M205.833 0.95 210.742 0.95 210.742 22.1139 220.558 22.1139 220.558 26.8111 205.833 26.8111 205.833 0.95Z" fill="#68686B" fill-rule="nonzero" fill-opacity="1" transform="matrix(1.00672 0 0 1 0 0.131944)"/><path d="M166.303 37.7361C166.303 37.7361 154.269 33.4083 151.631 26.1778 148.675 18.1028 159.653 16.2556 170.947 16.5722 177.017 16.7306 184.458 17.6806 184.458 17.6806 184.458 17.6806 166.936 19.8972 160.603 25.0167 154.375 30.0306 166.303 37.7361 166.303 37.7361Z" fill="#FF6C0E" fill-rule="nonzero" fill-opacity="1" transform="matrix(1.00672 0 0 1 0 0.131944)"/><path d="M114.053 20.6889C111.731 23.275 108.933 24.5944 105.556 24.5944 102.442 24.5944 99.8028 23.5917 97.7444 21.5861 95.6861 19.5806 94.6306 17.0472 94.6306 14.0917 94.6306 12.0861 95.1056 10.2917 96.0028 8.70833 96.9 7.125 98.2195 5.85833 99.9083 4.90833 101.597 3.95833 103.392 3.48333 105.344 3.48333 107.139 3.48333 108.775 3.85278 110.306 4.53889 111.731 5.225 112.997 6.22778 114 7.54722L114 4.16944C113.261 3.53611 112.417 2.79722 111.519 2.375 109.672 1.47778 107.614 1.00278 105.292 1.00278 101.492 1.00278 98.325 2.21667 95.7917 4.69722 93.2583 7.17778 91.9917 10.1861 91.9917 13.775 91.9917 17.2056 93.0472 20.1083 95.1056 22.5361 97.5861 25.3861 101.017 26.8639 105.292 26.8639 107.561 26.8639 109.619 26.4417 111.467 25.5972 112.364 25.175 113.208 24.4361 114 23.8556L114 20.6889Z" fill="#68686B" fill-rule="nonzero" fill-opacity="1" transform="matrix(1.00672 0 0 1 0 0.131944)"/><path d="M9.34167 12.7194C3.48333 11.5056 2.375 9.975 2.375 7.6L2.375 7.54722C2.375 5.01389 4.80278 3.16667 8.12778 3.16667 10.925 3.16667 13.1417 4.01111 15.3056 5.91111L15.5167 6.06944 15.5694 6.01667 15.5694 3.11389C13.3 1.58333 11.0833 0.95 8.18056 0.95 3.53611 0.95 0 3.85278 0 7.70556L0 7.75833C0 11.6639 2.48056 13.7222 8.49722 14.9889 14.1972 16.15 15.2528 17.6278 15.2528 20.0028L15.2528 20.0556C15.2528 22.8 12.7722 24.7 9.28889 24.7 5.85833 24.7 3.43056 23.6972 0.633333 21.1111L0.422222 20.9528 0.369444 21.0056 0.369444 23.9611C3.06111 25.9667 5.80556 26.9167 9.18333 26.9167 14.1444 26.9167 17.6278 24.0667 17.6278 19.95L17.6278 19.8972C17.6278 16.0444 15.1472 13.9333 9.34167 12.7194Z" fill="#68686B" fill-rule="nonzero" fill-opacity="1" transform="matrix(1.00672 0 0 1 0 0.131944)"/><path d="M151.208 0.95 145.297 18.525 145.192 18.8944 145.033 18.525 139.228 0.897222 134.531 0.897222 128.672 18.525 128.567 18.8944 128.408 18.525 122.497 0.95 116.639 0.95 125.981 26.9167 130.836 26.9167 136.694 9.975 136.8 9.60556 136.906 9.975 142.764 26.9167 147.567 26.9167 156.908 0.95Z" fill="#68686B" fill-rule="nonzero" fill-opacity="1" transform="matrix(1.00672 0 0 1 0 0.131944)"/><path d="M224.517 5.85833C222.933 5.85833 221.614 4.53889 221.614 2.95556 221.614 1.37222 222.933 0.0527778 224.517 0.0527778 226.153 0.0527778 227.472 1.37222 227.472 2.95556 227.472 4.53889 226.153 5.85833 224.517 5.85833ZM224.517 0.369444C223.092 0.369444 221.983 1.53056 221.983 2.90278 221.983 4.32778 223.144 5.43611 224.517 5.43611 225.942 5.43611 227.05 4.275 227.05 2.90278 227.103 1.53056 225.942 0.369444 224.517 0.369444ZM225.256 4.64444 224.464 3.325 224.147 3.325 224.147 4.64444 223.25 4.64444 223.25 1.16111 224.781 1.16111C225.625 1.16111 225.994 1.68889 225.994 2.21667 225.994 2.63889 225.783 3.00833 225.361 3.16667L226.364 4.59167 225.256 4.59167ZM224.094 1.74167 224.094 2.69167 224.517 2.69167C224.886 2.69167 225.044 2.53333 225.044 2.21667 225.044 1.9 224.886 1.74167 224.517 1.74167L224.094 1.74167Z" fill="#68686B" fill-rule="nonzero" fill-opacity="1" transform="matrix(1.00672 0 0 1 0 0.131944)"/></g></g></svg>