<svg width="197" height="38" xmlns="http://www.w3.org/2000/svg" xmlns:xlink="http://www.w3.org/1999/xlink" xml:space="preserve" overflow="hidden"><g><g><path d="M103.699 37.3562 94.0422 13.5355 94.0422 37.3562 92.0165 37.3562 92.0165 10.8661 95.0785 10.8661 104.845 35.1422 114.031 10.8661 116.983 10.8661 116.983 37.3719 115.005 37.3719 115.005 13.724 105.898 37.3405 103.699 37.3405 103.699 37.3562ZM138.292 32.1273C137.365 35.6289 134.429 37.9058 130.331 37.9058 125.149 37.9058 121.255 34.3413 121.255 27.7934 121.255 21.2455 125.039 17.681 129.985 17.681 134.884 17.681 138.621 20.9785 138.621 28.2802L123.264 28.2802C123.437 33.7289 126.546 36.2413 130.362 36.2413 133.22 36.2413 135.434 34.7025 136.172 32.1587L138.292 32.1587 138.292 32.1273ZM123.312 26.6157 136.549 26.6157C136.282 21.7165 133.534 19.2983 129.954 19.2983 126.452 19.2826 123.657 21.8107 123.312 26.6157Z" fill="#1CAF89" fill-rule="nonzero" fill-opacity="1" transform="scale(1.01176 1)"/><path d="M143.254 37.3562 143.254 18.2149 144.855 18.2149 145.138 21.8893C146.174 18.9843 148.106 17.6653 150.508 17.6653 151.183 17.6653 151.843 17.7752 152.487 17.9479L152.487 19.9107C151.812 19.6909 151.105 19.581 150.398 19.581 147.603 19.581 145.217 22.3132 145.217 26.8983L145.217 37.3405 143.254 37.3405 143.254 37.3562ZM155.031 23.1769C155.313 19.895 158.218 17.6496 162.458 17.6496 166.729 17.6496 169.555 20.0521 169.555 23.9463L169.555 37.3405 167.954 37.3405 167.671 34.1686C166.509 36.1471 164.326 37.8901 160.903 37.8901 157.182 37.8901 154.497 35.8645 154.497 32.4884 154.497 29.2066 156.475 27.2281 161.861 26.3331L167.608 25.3909 167.608 23.7421C167.608 20.9942 165.677 19.2983 162.379 19.2983 159.317 19.2983 157.37 20.8843 157.119 23.1926L155.031 23.1769ZM167.593 30.5413 167.593 26.9769 162.442 27.8562C157.857 28.6256 156.538 30.086 156.538 32.3471 156.538 34.9223 158.517 36.2099 161.406 36.2099 164.452 36.2256 167.577 33.886 167.593 30.5413Z" fill="#CE5800" fill-rule="nonzero" fill-opacity="1" transform="scale(1.01176 1)"/><path d="M174.643 37.3562 174.643 10.8661 176.622 10.8661 176.622 26.019 185.792 18.2149 188.477 18.2149 178.647 26.5686 189.686 37.3405 187.017 37.3405 176.637 27.2281 176.637 37.3405 174.643 37.3405 174.643 37.3562ZM192.214 13.5669 192.214 10.8347 194.617 10.8347 194.617 13.5512 192.214 13.5669ZM192.402 37.3562 192.402 18.2149 194.381 18.2149 194.381 37.3405 192.402 37.3562Z" fill="#AE00CC" fill-rule="nonzero" fill-opacity="1" transform="scale(1.01176 1)"/><path d="M3.23471 11.6983C3.23471 10.8504 2.5438 10.1595 1.69587 10.1595 0.847934 10.1595 0.157025 10.8504 0.157025 11.6983L0.157025 14.9331C0.157025 15.781 0.847934 16.4719 1.69587 16.4719 2.5438 16.4719 3.23471 15.781 3.23471 14.9331L3.23471 11.6983ZM11.7455 7.44298C11.7455 6.59504 11.0545 5.90413 10.2066 5.90413 9.35868 5.90413 8.66777 6.59504 8.66777 7.44298L8.66777 14.9331C8.66777 15.781 9.35868 16.4719 10.2066 16.4719 11.0545 16.4719 11.7455 15.781 11.7455 14.9331L11.7455 7.44298ZM20.2562 1.60165C20.2562 0.753719 19.5653 0.0628099 18.7174 0.0628099 17.8694 0.0628099 17.1785 0.753719 17.1785 1.60165L17.1785 18.0107C17.1785 18.8587 17.8694 19.5496 18.7174 19.5496 19.5653 19.5496 20.2562 18.8587 20.2562 18.0107L20.2562 1.60165ZM28.7512 7.44298C28.7512 6.59504 28.0603 5.90413 27.2124 5.90413 26.3645 5.90413 25.6736 6.59504 25.6736 7.44298L25.6736 14.9331C25.6736 15.781 26.3645 16.4719 27.2124 16.4719 28.0603 16.4719 28.7512 15.781 28.7512 14.9331L28.7512 7.44298ZM37.2463 11.6983C37.2463 10.8504 36.5554 10.1595 35.7074 10.1595 34.8595 10.1595 34.1686 10.8504 34.1686 11.6983L34.1686 14.9331C34.1686 15.781 34.8595 16.4719 35.7074 16.4719 36.5554 16.4719 37.2463 15.781 37.2463 14.9331L37.2463 11.6983ZM45.7727 7.44298C45.7727 6.59504 45.0818 5.90413 44.2339 5.90413 43.386 5.90413 42.695 6.59504 42.695 7.44298L42.695 14.9331C42.695 15.781 43.386 16.4719 44.2339 16.4719 45.0818 16.4719 45.7727 15.781 45.7727 14.9331L45.7727 7.44298ZM54.2678 1.60165C54.2678 0.753719 53.5769 0.0628099 52.7289 0.0628099 51.881 0.0628099 51.1901 0.753719 51.1901 1.60165L51.1901 18.0107C51.1901 18.8587 51.881 19.5496 52.7289 19.5496 53.5769 19.5496 54.2678 18.8587 54.2678 18.0107L54.2678 1.60165ZM62.7785 7.44298C62.7785 6.57934 62.0719 5.87273 61.2083 5.87273 60.3446 5.87273 59.638 6.57934 59.638 7.44298L59.638 14.9331C59.638 15.7967 60.3446 16.5033 61.2083 16.5033 62.0719 16.5033 62.7785 15.7967 62.7785 14.9331L62.7785 7.44298ZM71.2579 11.6983C71.2579 10.8504 70.5669 10.1595 69.719 10.1595 68.8711 10.1595 68.1802 10.8504 68.1802 11.6983L68.1802 14.9331C68.1802 15.781 68.8711 16.4719 69.719 16.4719 70.5669 16.4719 71.2579 15.781 71.2579 14.9331L71.2579 11.6983ZM20.2562 24.9826 23.381 24.9826 23.381 37.3405 20.2562 37.3405 20.2562 24.9826ZM48.5207 28.5157C47.7198 28.076 46.8091 27.8562 45.8983 27.8562 43.8884 27.8562 42.4752 29.2694 42.4752 31.1537 42.4752 33.0066 43.8256 34.4512 45.8983 34.4512 46.8091 34.4512 47.7198 34.2314 48.5207 33.7917L48.5207 37.1207C47.5942 37.4033 46.6364 37.5603 45.6785 37.5603 42.1455 37.5603 39.0835 35.1422 39.0835 31.1537 39.0835 27.4793 41.8628 24.7628 45.6785 24.7628 46.6364 24.7628 47.5942 24.9198 48.5207 25.2025L48.5207 28.5157ZM15.9694 28.5157C15.1686 28.076 14.2579 27.8562 13.3471 27.8562 11.3215 27.8562 9.92397 29.2694 9.92397 31.1537 9.92397 33.0066 11.243 34.4512 13.3471 34.4512 14.2579 34.4512 15.1686 34.2314 15.9694 33.7917L15.9694 37.1207C15.043 37.4033 14.0851 37.5603 13.1273 37.5603 9.62562 37.5603 6.56364 35.1422 6.56364 31.1537 6.56364 27.4793 9.34298 24.7628 13.1273 24.7628 14.0851 24.7628 15.043 24.9198 15.9694 25.2025L15.9694 28.5157ZM58.3347 27.919C56.5446 27.919 55.0843 29.3636 55.0686 31.1537 55.0686 32.9438 56.5132 34.4041 58.3033 34.4198 60.0934 34.4198 61.5537 32.9752 61.5694 31.1851L61.5694 31.1694C61.6008 29.4107 60.2033 27.9661 58.4446 27.9347 58.4446 27.9347 58.4446 27.9347 58.4289 27.9347 58.3975 27.8876 58.3661 27.8876 58.3347 27.919M64.8669 31.1537C64.8669 34.7025 62.1347 37.5603 58.3504 37.5603 54.5661 37.5603 51.8339 34.7025 51.8339 31.1537 51.8339 27.605 54.5661 24.7628 58.3504 24.7628 62.1347 24.7628 64.8669 27.6364 64.8669 31.1537M35.2207 27.7777C34.4355 27.5579 33.619 27.4322 32.8025 27.4008 31.5463 27.4008 30.8711 27.8248 30.8711 28.4215 30.8711 29.1752 31.7818 29.4422 32.3 29.6149L33.1636 29.8818C35.1893 30.5256 36.1157 31.9074 36.1157 33.4306 36.1157 36.5397 33.3835 37.576 30.9967 37.576 29.8661 37.5603 28.7355 37.4504 27.6207 37.2463L27.6207 34.3884C28.5785 34.6711 29.5678 34.8281 30.5727 34.8438 32.1116 34.8438 32.8496 34.3884 32.8496 33.6975 32.8496 33.0851 32.2372 32.7083 31.4678 32.457L30.8083 32.2372C29.0653 31.6876 27.6364 30.6669 27.6364 28.6256 27.6364 26.3174 29.3793 24.7628 32.2372 24.7628 33.2579 24.7785 34.2785 24.9198 35.2835 25.1554L35.2207 27.7777Z" fill="#212121" fill-rule="nonzero" fill-opacity="1" transform="scale(1.01176 1)"/></g></g></svg>