<svg width="158" height="58" xmlns="http://www.w3.org/2000/svg" xmlns:xlink="http://www.w3.org/1999/xlink" xml:space="preserve" overflow="hidden"><defs><clipPath id="clip0"><rect x="0" y="0" width="158" height="58"/></clipPath><clipPath id="clip1"><rect x="0" y="0" width="158" height="58"/></clipPath></defs><g clip-path="url(#clip0)"><g clip-path="url(#clip1)"><path d="M0 0 157.969 0 157.969 57.3224 0 57.3224Z" fill="#231F20" fill-rule="nonzero" fill-opacity="1" transform="matrix(1 0 0 1.01182 0.0155584 -1.16665e-15)"/><path d="M99.7133 47.7357 100.548 47.7357 100.548 44.13 103.375 47.7357 104.28 47.7357 104.28 42.8716 103.446 42.8716 103.446 46.4631 100.618 42.8716 99.7133 42.8716ZM105.426 47.7357 109.342 47.7357 109.342 46.958 106.274 46.958 106.274 45.6147 109.187 45.6147 109.187 44.837 106.274 44.837 106.274 43.6493 109.286 43.6493 109.286 42.8716 105.44 42.8716ZM110.092 43.6493 111.831 43.6493 111.831 47.7357 112.665 47.7357 112.665 43.6493 114.39 43.6493 114.39 42.8716 110.148 42.8716ZM116.653 47.7357 117.529 47.7357C117.529 47.7357 118.604 44.3987 118.745 44.0028 118.858 44.3987 119.947 47.7357 119.947 47.7357L120.81 47.7357 122.422 42.8716 121.545 42.8716 120.428 46.5197 119.226 42.8716 118.293 42.8716 117.133 46.5197C117.006 46.1237 116.002 42.8716 116.002 42.8716L115.097 42.8716ZM125.306 42.7585C124.588 42.7193 123.887 42.9806 123.369 43.4796 122.472 44.5356 122.472 46.0859 123.369 47.1418 123.889 47.6366 124.589 47.897 125.306 47.8629 126.716 47.9678 127.943 46.9103 128.048 45.5008 128.153 44.0913 127.096 42.8636 125.686 42.7585 125.56 42.749 125.433 42.749 125.306 42.7585M123.977 46.5904C123.666 46.2412 123.504 45.7847 123.525 45.3178 123.501 44.8505 123.664 44.3928 123.977 44.0452 124.334 43.7063 124.814 43.5276 125.306 43.5503 126.286 43.4628 127.152 44.1862 127.239 45.1663 127.327 46.1464 126.603 47.0119 125.623 47.0994 125.518 47.1089 125.412 47.1089 125.306 47.0994 124.814 47.1222 124.334 46.9434 123.977 46.6045M128.869 47.7357 129.718 47.7357 129.718 45.7561 131.415 45.7561C131.895 45.7561 132.178 45.9117 132.22 46.7742L132.22 46.9156C132.22 47.3963 132.22 47.566 132.376 47.7074L133.309 47.7074 133.196 47.5801C133.055 47.4105 133.026 47.1984 132.998 46.35 133.027 45.9323 132.805 45.5374 132.433 45.3461 132.866 45.1269 133.127 44.671 133.097 44.1866 133.137 43.4928 132.607 42.8976 131.914 42.8575 131.865 42.8546 131.816 42.8546 131.768 42.8575L128.855 42.8575ZM129.718 43.6493 131.556 43.6493C132.023 43.6493 132.277 43.8897 132.277 44.3139 132.277 44.7381 132.192 44.9784 131.542 44.9784L129.718 44.9784ZM134.327 47.7498 135.176 47.7498 135.176 46.1662 135.911 45.4875 137.763 47.7498 138.909 47.7498 136.547 44.9219C136.674 44.8229 138.824 42.8858 138.824 42.8858L137.622 42.8858 135.176 45.134 135.176 42.8858 134.327 42.8858ZM139.559 44.2714C139.559 45.3461 140.634 45.5299 140.973 45.5864L142.019 45.7703C142.571 45.8692 142.797 46.0389 142.797 46.3783 142.804 46.5305 142.747 46.679 142.641 46.7883 142.363 47.0137 142.009 47.1248 141.652 47.0994 141.128 47.0994 140.238 46.9721 140.238 46.1096L140.238 46.0106 139.389 46.0106 139.389 46.0813C139.373 46.5154 139.531 46.9379 139.828 47.2549 140.315 47.6685 140.943 47.8764 141.581 47.8347 142.182 47.8643 142.773 47.6677 143.235 47.2832 143.512 46.9969 143.657 46.6066 143.631 46.2086 143.631 45.1905 142.557 44.9926 142.217 44.936L141.086 44.7381C140.478 44.6249 140.407 44.3704 140.407 44.2007 140.405 44.0492 140.461 43.9025 140.563 43.7907 140.795 43.5943 141.093 43.4932 141.397 43.5079 142.429 43.5079 142.613 43.9604 142.67 44.3139L142.67 44.3846 143.504 44.3846 143.504 44.2856C143.504 43.3099 142.698 42.7444 141.468 42.7444 140.238 42.7444 139.545 43.3099 139.545 44.2432M60.3342 22.7225C59.3585 21.7876 58.0512 21.2789 56.7003 21.3085 55.1716 21.2052 53.6954 21.8873 52.7836 23.1184L52.7836 22.2135C52.4487 21.764 51.9295 21.489 51.3696 21.4641 50.8063 21.4762 50.282 21.7541 49.9556 22.2135L49.9556 42.8575 52.9391 42.8575 52.9391 35.1513C53.8674 36.3391 55.3233 36.9902 56.8275 36.8905 58.1701 36.9205 59.4688 36.4112 60.4331 35.4765 61.9319 33.9495 62.1016 31.3336 62.1016 29.0288 62.1016 26.7241 61.9319 24.1365 60.4331 22.6094M56.0357 34.105C53.3491 34.105 52.9391 31.7295 52.9391 29.0288 52.9391 26.3281 53.3491 23.9951 56.0357 23.9951 58.7222 23.9951 59.1181 26.3281 59.1181 29.0288 59.1181 31.7295 58.7364 34.105 56.0357 34.105M72.9326 36.7633 72.9326 35.3493C71.928 36.4585 70.4653 37.0384 68.9735 36.9188 67.5079 37.0366 66.0619 36.522 65.0003 35.5048 64.2075 34.6053 63.7876 33.437 63.8267 32.2385 63.8267 29.6793 65.5517 27.8552 68.9452 27.8552L72.8761 27.8552 72.8761 26.7806C72.8761 24.8576 71.9287 23.9527 69.624 23.9527 68.3625 23.7913 67.1142 24.3342 66.3718 25.3666L64.4064 23.4719C65.7006 21.89 67.7045 21.0661 69.7371 21.2803 73.8093 21.2803 75.8596 23.0619 75.8596 26.512L75.8596 36.6784ZM72.9326 30.0469 69.4401 30.0469C67.6868 30.0469 66.7819 30.8529 66.7819 32.2244 66.7819 33.596 67.6303 34.3878 69.4967 34.3878 70.5204 34.5312 71.5552 34.2156 72.3246 33.5253 72.8245 32.8884 73.0576 32.0824 72.9751 31.2771ZM83.396 34.1474C82.1942 34.1474 81.7841 33.5535 81.7841 32.3799L81.7841 15.4123C81.4325 14.9361 80.8772 14.6531 80.2853 14.6487 79.7206 14.6685 79.1977 14.9511 78.8713 15.4123L78.8713 32.5638C78.6399 34.6673 80.1575 36.5602 82.261 36.7918 82.4877 36.8167 82.7161 36.8214 82.9436 36.8057L84.7817 36.8057 84.7817 34.1898ZM96.3904 35.1372C95.2252 36.3384 93.6092 36.995 91.9364 36.9471 90.2718 36.9959 88.6641 36.3384 87.5107 35.1372 86.0967 33.6384 85.7574 31.7154 85.7574 29.142 85.7574 26.5685 86.1109 24.6738 87.5107 23.175 88.6642 21.9738 90.2718 21.3163 91.9364 21.3651 93.6092 21.3172 95.2252 21.9738 96.3904 23.175 97.8044 24.6738 98.1438 26.5968 98.1438 29.142 98.1438 31.6871 97.7903 33.6384 96.3904 35.1372M94.1281 24.9707C93.5468 24.3948 92.7544 24.083 91.9364 24.1082 91.1268 24.0823 90.3429 24.395 89.773 24.9707 88.3978 27.5815 88.3978 30.7024 89.773 33.3132 90.3399 33.8964 91.1231 34.219 91.9364 34.204 92.7579 34.2184 93.5496 33.8966 94.1281 33.3132 95.5033 30.7024 95.5033 27.5815 94.1281 24.9707M119.99 34.1474C118.788 34.1474 118.378 33.5535 118.378 32.3799L118.378 15.4123C118.026 14.9361 117.471 14.6531 116.879 14.6487 116.286 14.6486 115.729 14.9325 115.38 15.4123L115.38 32.5638C115.149 34.6673 116.666 36.5602 118.77 36.7918 118.996 36.8167 119.225 36.8214 119.452 36.8057L121.305 36.8057 121.305 34.1898ZM109.074 36.7633 109.074 35.3493C108.069 36.4585 106.606 37.0384 105.115 36.9188 103.649 37.0366 102.203 36.522 101.141 35.5048 100.349 34.6053 99.9288 33.437 99.9678 32.2385 99.9678 29.6793 101.693 27.8552 105.086 27.8552L109.017 27.8552 109.017 26.7806C109.017 24.8576 108.07 23.9527 105.765 23.9527 104.504 23.7913 103.255 24.3342 102.513 25.3666L100.548 23.4719C101.842 21.89 103.846 21.0661 105.878 21.2803 109.95 21.2803 112.001 23.0619 112.001 26.512L112.001 36.6784ZM109.074 30.0469 105.581 30.0469C103.828 30.0469 102.923 30.8529 102.923 32.2244 102.923 33.596 103.771 34.3878 105.638 34.3878 106.662 34.5312 107.696 34.2156 108.466 33.5253 108.966 32.8884 109.199 32.0824 109.116 31.2771ZM129.548 24.1648 129.548 21.8176 126.72 21.8176 126.72 17.208C126.36 16.7366 125.801 16.4598 125.207 16.4586 124.644 16.4848 124.124 16.7659 123.793 17.2222L123.793 21.8176 122.096 21.8176 122.096 24.1648 123.793 24.1648 123.793 32.5355C123.612 34.6909 125.212 36.5857 127.367 36.7672 127.533 36.7812 127.699 36.7846 127.865 36.7774L129.647 36.7774 129.647 34.1615 128.417 34.1615C127.314 34.1615 126.791 33.5111 126.791 32.3941L126.791 24.1789ZM141.977 35.1372C140.812 36.3384 139.196 36.995 137.523 36.9471 135.858 36.9977 134.25 36.3399 133.097 35.1372 131.683 33.6384 131.344 31.7154 131.344 29.142 131.344 26.5685 131.697 24.6738 133.097 23.175 134.25 21.9723 135.858 21.3145 137.523 21.3651 139.196 21.3172 140.812 21.9738 141.977 23.175 143.391 24.6738 143.73 26.5968 143.73 29.142 143.73 31.6871 143.377 33.6384 141.977 35.1372M139.715 24.9707C139.133 24.3948 138.341 24.083 137.523 24.1082 136.713 24.0823 135.929 24.395 135.359 24.9707 133.984 27.5815 133.984 30.7024 135.359 33.3132 135.926 33.8964 136.71 34.219 137.523 34.204 138.373 34.2308 139.195 33.897 139.785 33.2849 141.16 30.6741 141.16 27.5532 139.785 24.9425M146.261 45.8268C145.45 45.8268 144.791 45.1685 144.791 44.3563 144.791 43.5441 145.45 42.8858 146.261 42.8858 147.073 42.8858 147.732 43.5441 147.732 44.3563 147.732 45.1685 147.073 45.8268 146.261 45.8268M146.261 43.0978C145.582 43.1133 145.044 43.6764 145.059 44.3556 145.059 44.3559 145.059 44.356 145.059 44.3563 145.059 45.02 145.598 45.5582 146.261 45.5582 146.924 45.5582 147.463 45.02 147.463 44.3563 147.479 43.677 146.941 43.1137 146.261 43.0978 146.261 43.0978 146.261 43.0978 146.261 43.0978M146.615 45.1622 146.247 44.4977 146.007 44.4977 146.007 45.1622 145.795 45.1622 145.795 43.5503 146.332 43.5503C146.598 43.5425 146.818 43.7514 146.827 44.0168 146.827 44.0215 146.827 44.0263 146.827 44.0311 146.832 44.2392 146.69 44.4225 146.487 44.4694L146.869 45.1622ZM146.304 43.7483 146.007 43.7483 146.007 44.3139 146.304 44.3139C146.459 44.3216 146.592 44.2016 146.601 44.0456 146.601 44.0407 146.601 44.0359 146.601 44.0311 146.601 43.8748 146.475 43.7481 146.318 43.748 146.314 43.7479 146.308 43.748 146.304 43.7483M41.1041 29.6227C41.2378 28.9347 41.8188 28.4234 42.5181 28.3784L42.5181 18.7775C42.5338 16.3177 40.5524 14.3109 38.0925 14.2953 38.0925 14.2953 38.0924 14.2953 38.0924 14.2953L18.5513 14.2953C16.0914 14.3108 14.11 16.3175 14.1256 18.7774 14.1256 18.7774 14.1256 18.7775 14.1256 18.7775L14.1256 38.5024C14.1099 40.9623 16.0913 42.969 18.5512 42.9847 18.5512 42.9847 18.5513 42.9847 18.5513 42.9847L38.0783 42.9847C40.5381 42.9692 42.5195 40.9625 42.504 38.5026 42.504 38.5026 42.504 38.5024 42.504 38.5024L42.504 32.281C42.3056 32.393 42.0813 32.4514 41.8536 32.4506 41.2915 32.4648 40.8243 32.0205 40.8103 31.4585 40.8082 31.3736 40.8167 31.2891 40.8355 31.2063ZM17.9716 32.0972 17.7029 33.6808C17.5693 34.3688 16.9883 34.8801 16.289 34.9251 15.7269 34.9392 15.2597 34.495 15.2457 33.9329 15.2436 33.8481 15.2521 33.7635 15.2709 33.6808L15.5395 32.0972C15.6732 31.4091 16.2542 30.8978 16.9535 30.8529 17.5156 30.8387 17.9827 31.283 17.9967 31.845 17.9989 31.9299 17.9904 32.0144 17.9716 32.0972M22.2135 32.0972 21.252 37.6258C21.1288 38.322 20.5439 38.8426 19.838 38.8842 19.276 38.9002 18.8074 38.4575 18.7915 37.8954 18.7889 37.8046 18.7985 37.714 18.82 37.6258L19.7673 32.0972C19.9009 31.4091 20.4819 30.8978 21.1813 30.8529 21.7433 30.8387 22.2105 31.283 22.2245 31.845 22.2266 31.9299 22.2182 32.0144 22.1994 32.0972M26.8372 29.5803 24.999 40.1709C24.8759 40.8672 24.2909 41.3878 23.585 41.4294 23.023 41.4453 22.5544 41.0026 22.5386 40.4406 22.5359 40.3498 22.5455 40.2592 22.567 40.1709L24.391 29.5803C24.5142 28.884 25.0991 28.3634 25.805 28.3218 26.3748 28.308 26.8482 28.7586 26.8621 29.3286 26.864 29.4132 26.8557 29.4977 26.8372 29.5803M31.8992 24.5324 29.4389 38.8135C29.3064 39.5045 28.7267 40.0206 28.0249 40.0719 27.4549 40.078 26.9879 39.6208 26.9818 39.0508 26.981 38.971 26.9893 38.8914 27.0069 38.8135L29.4672 24.5324C29.6096 23.8495 30.1856 23.3425 30.8811 23.2881 31.4432 23.274 31.9104 23.7182 31.9244 24.2803 31.9265 24.3651 31.918 24.4497 31.8992 24.5324M36.3249 23.1184 34.5009 33.7232C34.3719 34.4138 33.7884 34.9274 33.0869 34.9675 32.5252 34.9894 32.0519 34.5518 32.0298 33.99 32.0263 33.9004 32.0348 33.8106 32.0547 33.7232L33.8788 23.1184C34.0211 22.4355 34.5972 21.9286 35.2927 21.8741 35.8548 21.86 36.322 22.3043 36.336 22.8663 36.3381 22.9512 36.3296 23.0357 36.3108 23.1184M40.0719 25.6636 39.1246 31.2063C38.9822 31.8893 38.4062 32.3962 37.7106 32.4506 37.1486 32.4648 36.6814 32.0205 36.6674 31.4585 36.6653 31.3736 36.6738 31.2891 36.6926 31.2063L37.6541 25.6636C37.7877 24.9755 38.3687 24.4643 39.068 24.4193 39.6301 24.4051 40.0973 24.8494 40.1113 25.4115 40.1134 25.4963 40.1049 25.5809 40.0861 25.6636" fill="#FFFFFF" fill-rule="nonzero" fill-opacity="1" transform="matrix(1 0 0 1.01182 0.0155584 -1.16665e-15)"/></g></g></svg>