<svg width="118" height="68" xmlns="http://www.w3.org/2000/svg" xmlns:xlink="http://www.w3.org/1999/xlink" xml:space="preserve" overflow="hidden"><g><g><g><g><g><path d="M39.9549 61.7522 35.1434 61.7522 35.1434 42.6844 39.9549 42.6844 39.9549 61.7522Z" fill="#C4122E" fill-rule="nonzero" fill-opacity="1" transform="matrix(1.00318 0 0 1 -1.72612 -1.88186)"/><g><path d="M205.745 1108.31C205.547 1108.41 203.998 1109.33 201.697 1109.33 198.586 1109.33 196.428 1107.17 196.428 1104.24 196.428 1101.41 198.493 1099.15 201.697 1099.15 203.959 1099.15 205.533 1100.05 205.745 1100.17L205.745 1095.05C205.141 1094.88 203.497 1094.37 201.36 1094.37 195.948 1094.37 191.198 1098.1 191.198 1104.25 191.198 1109.94 195.495 1114.11 201.36 1114.11 203.616 1114.11 205.289 1113.57 205.745 1113.43L205.745 1108.31ZM155.522 1108.31C155.328 1108.41 153.781 1109.33 151.48 1109.33 148.363 1109.33 146.207 1107.17 146.207 1104.24 146.207 1101.41 148.273 1099.15 151.48 1099.15 153.742 1099.15 155.315 1100.05 155.522 1100.17L155.522 1095.05C154.924 1094.88 153.281 1094.37 151.133 1094.37 145.725 1094.37 140.981 1098.1 140.981 1104.25 140.981 1109.94 145.279 1114.11 151.134 1114.11 153.399 1114.11 155.069 1113.57 155.522 1113.43L155.522 1108.31ZM220.881 1109.26C218.026 1109.26 215.906 1107.01 215.906 1104.24 215.906 1101.47 218.026 1099.23 220.881 1099.23 223.732 1099.23 225.858 1101.47 225.858 1104.24 225.858 1107.01 223.732 1109.26 220.881 1109.26M230.956 1104.24C230.956 1098.79 226.745 1094.37 220.882 1094.37 215.016 1094.37 210.811 1098.79 210.811 1104.25 210.811 1109.69 215.017 1114.11 220.881 1114.11 226.745 1114.11 230.956 1109.69 230.956 1104.24M185.194 1109.44C185.123 1109.46 183.097 1110.02 181.433 1110.02 179.505 1110.02 178.456 1109.38 178.456 1108.46 178.456 1107.3 179.871 1106.89 180.662 1106.64L181.989 1106.22C185.113 1105.23 186.535 1103.09 186.535 1100.77 186.535 1095.98 182.323 1094.37 178.641 1094.37 176.082 1094.37 173.684 1094.84 173.448 1094.89L173.448 1099.28C173.872 1099.17 175.89 1098.57 177.991 1098.57 180.386 1098.57 181.486 1099.27 181.486 1100.35 181.486 1101.32 180.534 1101.87 179.34 1102.25 179.051 1102.35 178.612 1102.48 178.313 1102.58 175.634 1103.43 173.399 1105 173.399 1108.16 173.399 1111.72 176.07 1114.12 180.505 1114.12 182.847 1114.12 185.051 1113.55 185.194 1113.51L185.194 1109.44Z" fill="#C4122E" fill-rule="nonzero" fill-opacity="1" transform="matrix(1.00318 0 0 -1 -129.122 1154.58)"/><path d="M135.878 1134.27C135.878 1135.58 134.805 1136.65 133.49 1136.65 132.174 1136.65 131.1 1135.58 131.1 1134.27L131.1 1129.26C131.133 1127.94 132.23 1126.9 133.549 1126.93 134.822 1126.97 135.846 1127.99 135.878 1129.26L135.878 1134.27ZM148.999 1140.84C148.999 1142.16 147.929 1143.22 146.61 1143.22 145.29 1143.22 144.221 1142.16 144.221 1140.84L144.221 1129.26C144.221 1127.94 145.29 1126.87 146.61 1126.87 147.929 1126.87 148.999 1127.94 148.999 1129.26L148.999 1140.84ZM162.121 1149.83C162.121 1151.14 161.048 1152.21 159.733 1152.21 158.416 1152.21 157.343 1151.14 157.343 1149.83L157.343 1124.51C157.377 1123.19 158.472 1122.14 159.792 1122.18 161.065 1122.21 162.089 1123.23 162.121 1124.51L162.121 1149.83ZM175.242 1140.84C175.242 1142.16 174.172 1143.22 172.854 1143.22 171.534 1143.22 170.464 1142.16 170.464 1140.84L170.464 1129.26C170.464 1127.94 171.534 1126.87 172.852 1126.87 174.172 1126.87 175.242 1127.94 175.242 1129.26L175.242 1140.84ZM188.349 1134.27C188.351 1135.58 187.287 1136.64 185.975 1136.65 184.659 1136.65 183.591 1135.58 183.586 1134.27L183.586 1129.26C183.586 1127.95 184.653 1126.88 185.968 1126.88 187.282 1126.88 188.349 1127.95 188.349 1129.26L188.349 1134.27ZM201.476 1140.84C201.442 1142.15 200.35 1143.19 199.034 1143.16 197.766 1143.13 196.745 1142.1 196.713 1140.84L196.713 1129.26C196.713 1127.95 197.78 1126.88 199.095 1126.88 200.409 1126.88 201.476 1127.95 201.476 1129.26L201.476 1140.84ZM214.606 1149.83C214.606 1151.14 213.539 1152.21 212.224 1152.21 210.91 1152.21 209.843 1151.14 209.843 1149.83L209.843 1124.51C209.785 1123.19 210.805 1122.08 212.12 1122.02 213.435 1121.96 214.548 1122.98 214.606 1124.3 214.609 1124.37 214.609 1124.44 214.606 1124.51L214.606 1149.83ZM227.733 1140.84C227.733 1142.15 226.668 1143.22 225.322 1143.22 224.006 1143.22 222.941 1142.15 222.941 1140.84L222.941 1129.26C222.941 1127.94 224.008 1126.88 225.322 1126.88 226.668 1126.88 227.733 1127.94 227.733 1129.26L227.733 1140.84ZM240.835 1134.27C240.835 1135.58 239.769 1136.65 238.452 1136.65 237.135 1136.65 236.068 1135.58 236.068 1134.27L236.068 1129.26C236.068 1127.94 237.136 1126.87 238.452 1126.87 239.765 1126.87 240.834 1127.94 240.834 1129.26L240.834 1134.27Z" fill="#15495D" fill-rule="nonzero" fill-opacity="1" transform="matrix(1.00318 0 0 -1 -129.122 1154.58)"/><path d="M238.081 1097.22 238.081 1096.92 237.231 1096.92 237.231 1094.71 236.88 1094.71 236.88 1096.92 236.027 1096.92 236.027 1097.22 238.081 1097.22ZM238.26 1097.22 238.807 1097.22 239.558 1095.16 239.57 1095.16 240.297 1097.22 240.834 1097.22 240.834 1094.71 240.476 1094.71 240.476 1096.77 240.464 1096.77 239.701 1094.71 239.371 1094.71 238.627 1096.77 238.61 1096.77 238.61 1094.71 238.26 1094.71 238.26 1097.22Z" fill="#C4122E" fill-rule="nonzero" fill-opacity="1" transform="matrix(1.00318 0 0 -1 -129.122 1154.58)"/></g></g></g></g></g></g></svg>