<svg width="68" height="68" xmlns="http://www.w3.org/2000/svg" xmlns:xlink="http://www.w3.org/1999/xlink" xml:space="preserve" overflow="hidden"><g><g><g><g><g><path d="M62.594 51.5876C58.897 51.4954 56.0317 51.8651 53.6286 52.8817 52.9353 53.1587 51.8261 53.159 51.7337 54.0372 52.1034 54.4069 52.1496 55.0077 52.4732 55.5159 53.0283 56.44 53.9981 57.6879 54.8763 58.3352 55.8466 59.0745 56.8175 59.8137 57.8337 60.4608 59.6363 61.57 61.6699 62.2168 63.4259 63.3261 64.443 63.9726 65.459 64.8051 66.4758 65.4981 66.9842 65.8673 67.3075 66.4687 67.9548 66.6995L67.9548 66.5611C67.631 66.1449 67.5386 65.5443 67.2153 65.0821 66.7537 64.6199 66.291 64.204 65.8288 63.7418 64.4887 61.9398 62.8251 60.3683 61.0228 59.0745 59.5441 58.0577 56.3088 56.6714 55.7082 54.9613 55.7082 54.9613 55.6617 54.9153 55.6158 54.8691 56.6323 54.7767 57.8337 54.4069 58.8046 54.1296 60.3758 53.7134 61.8083 53.8061 63.4259 53.3901 64.1652 53.2052 64.9047 52.9741 65.6439 52.743L65.6439 52.3273C64.8125 51.4954 64.2117 50.3864 63.3335 49.6007 60.9766 47.5668 58.3884 45.5799 55.7082 43.9163 54.2754 42.9919 52.4267 42.3911 50.9017 41.6056 50.3476 41.3281 49.423 41.1897 49.0997 40.7275 48.2675 39.7109 47.8053 38.3709 47.2048 37.1692 45.8649 34.6271 44.5705 31.8083 43.4151 29.1282 42.5837 27.3256 42.0753 25.5231 41.0585 23.8598 36.2985 16.0034 31.1225 11.2434 23.1739 6.57555 21.4638 5.60522 19.4305 5.18925 17.2585 4.68111 16.1035 4.63462 14.9478 4.54245 13.7926 4.49597 13.0531 4.17244 12.3136 3.29455 11.6665 2.87858 9.03284 1.2147 2.23895-2.38956 0.298031 2.37044-0.949875 5.37413 2.14678 8.33159 3.20928 9.85708 3.99553 10.9198 5.01181 12.1213 5.56644 13.323 5.88997 14.1081 5.98214 14.9406 6.30567 15.7723 7.04544 17.8051 7.73819 20.0701 8.70905 21.9651 9.21745 22.9354 9.77181 23.9519 10.4189 24.8301 10.7886 25.3382 11.4354 25.5696 11.5743 26.4013 10.9275 27.3256 10.8811 28.7122 10.511 29.8674 8.84744 35.0896 9.49477 41.5594 11.8514 45.395 12.5906 46.55 14.3469 49.0925 16.7038 48.1217 18.7837 47.29 18.3215 44.6558 18.9218 42.3451 19.061 41.79 18.9685 41.4208 19.2456 41.051L19.2456 41.1437C19.8927 42.4373 20.5395 43.6855 21.1403 44.9793 22.5731 47.2435 25.0684 49.6007 27.1479 51.1721 28.2575 52.0035 29.1353 53.4363 30.5219 53.9447L30.5219 53.8058 30.4292 53.8058C30.1519 53.3898 29.7359 53.2052 29.3664 52.8814 28.5348 52.05 27.6101 51.0332 26.9633 50.1088 25.0227 47.5206 23.3123 44.6555 21.7874 41.6978 21.0481 40.2656 20.4008 38.6941 19.8002 37.2616 19.5226 36.7065 19.5226 35.875 19.0607 35.598 18.3674 36.6145 17.3509 37.4927 16.8425 38.7403 15.9649 40.7275 15.8722 43.1768 15.5486 45.7183 15.3638 45.7651 15.4559 45.7183 15.3635 45.8113 13.885 45.441 13.3766 43.9163 12.8217 42.6222 11.4352 39.3412 11.2041 34.0728 12.406 30.2834 12.7295 29.3128 14.1161 26.2629 13.5615 25.3385 13.2842 24.4603 12.3595 23.9519 11.8514 23.2589 11.2508 22.3808 10.6035 21.272 10.1878 20.3012 9.07853 17.7132 8.52391 14.8479 7.32248 12.2599 6.76786 11.0582 5.7978 9.81086 5.01181 8.70161 4.13392 7.45397 3.16333 6.57555 2.47005 5.09681 2.23922 4.58867 1.91542 3.75673 2.28517 3.20211 2.37761 2.83236 2.56222 2.69397 2.93223 2.60153 3.53308 2.09286 5.24317 2.73992 5.84348 3.01723 7.55358 3.70998 8.98609 4.35758 10.4189 5.32791 11.0657 5.79009 11.759 6.66825 12.5906 6.89934L13.5612 6.89934C15.0402 7.22261 16.7036 6.99178 18.0901 7.40748 20.5397 8.19294 22.7577 9.34841 24.7451 10.5963 30.7992 14.4319 35.7898 19.8852 39.1637 26.4013 39.7184 27.4638 39.9492 28.4349 40.4576 29.5436 41.4285 31.8083 42.6299 34.119 43.6 36.3372 44.5705 38.509 45.4947 40.7275 46.8812 42.53 47.5745 43.5001 50.3471 44.0087 51.595 44.5172 52.5194 44.9329 53.9522 45.3029 54.7838 45.811 56.355 46.7811 57.9262 47.8909 59.4052 48.9534 60.1447 49.508 62.4551 50.6635 62.594 51.5876Z" fill="#00546B" fill-rule="nonzero" fill-opacity="1" transform="scale(1 1.00091)"/><path d="M15.4557 11.4277C14.6702 11.4277 14.1158 11.5207 13.5612 11.6591L13.5612 11.7515 13.6537 11.7515C14.0237 12.491 14.6702 12.9994 15.1321 13.6462 15.5021 14.3855 15.8254 15.1252 16.1954 15.8647 16.2414 15.8182 16.2876 15.7723 16.2876 15.7723 16.9349 15.3098 17.2582 14.5706 17.2582 13.4613 16.9809 13.1381 16.9347 12.8145 16.7036 12.491 16.4265 12.0286 15.8254 11.7977 15.4557 11.4277Z" fill="#00546B" fill-rule="nonzero" fill-opacity="1" transform="scale(1 1.00091)"/></g></g></g></g></g></svg>