<svg width="78" height="68" xmlns="http://www.w3.org/2000/svg" xmlns:xlink="http://www.w3.org/1999/xlink" xml:space="preserve" overflow="hidden"><g><g><g><g><g><path d="M74.909 51.4508C70.7483 53.6195 49.1951 62.4815 44.6065 64.8737 40.0179 67.2662 37.4688 67.243 33.8438 65.5102 30.2191 63.7773 7.2826 54.5124 3.15083 52.5374 1.08601 51.5507 0 50.7175 0 49.9305L0 42.0501C0 42.0501 29.8607 35.5496 34.6813 33.8201 39.5017 32.0906 41.1742 32.0281 45.2765 33.5308 49.3793 35.034 73.9092 39.4597 77.9636 40.9446L77.9618 48.7136C77.9624 49.4926 77.0269 50.3472 74.909 51.4508" fill="#912626" fill-rule="nonzero" fill-opacity="1" transform="scale(1.00026 1)"/><path d="M74.9075 43.617C70.7471 45.7848 49.1944 54.647 44.6059 57.0389 40.0176 59.4317 37.4685 59.4083 33.8438 57.6754 30.2188 55.9438 7.28321 46.6774 3.15174 44.7036-0.979723 42.7286-1.06621 41.3695 2.99216 39.7803 7.05053 38.1906 29.8604 29.2415 34.6816 27.512 39.502 25.7831 41.1742 25.7201 45.2765 27.2233 49.379 28.7259 70.8032 37.2535 74.857 38.7382 78.9123 40.2247 79.0679 41.4486 74.9075 43.617" fill="#C6302B" fill-rule="nonzero" fill-opacity="1" transform="scale(1.00026 1)"/><path d="M74.909 38.6998C70.7483 40.8688 49.1951 49.7304 44.6065 52.1236 40.0179 54.5152 37.4688 54.492 33.8438 52.7592 30.2188 51.0272 7.2826 41.7614 3.15083 39.7864 1.08601 38.7997 0 37.9677 0 37.1804L0 29.2991C0 29.2991 29.8607 22.7989 34.6813 21.0694 39.5017 19.3399 41.1742 19.2771 45.2765 20.7801 49.3796 22.283 73.9095 26.7077 77.9636 28.193L77.9618 35.9629C77.9624 36.7416 77.0269 37.5961 74.909 38.6998" fill="#912626" fill-rule="nonzero" fill-opacity="1" transform="scale(1.00026 1)"/><path d="M74.9075 30.866C70.7471 33.0344 49.1944 41.896 44.6059 44.2888 40.0176 46.6807 37.4685 46.6573 33.8438 44.9244 30.2188 43.1928 7.28321 33.9267 3.15174 31.9526-0.979723 29.9782-1.06621 28.6187 2.99216 27.029 7.05053 25.4402 29.8607 16.4905 34.6816 14.7613 39.502 13.0321 41.1742 12.9694 45.2765 14.4723 49.379 15.9749 70.8032 24.5019 74.857 25.9872 78.9123 27.4734 79.0679 28.6976 74.9075 30.866" fill="#C6302B" fill-rule="nonzero" fill-opacity="1" transform="scale(1.00026 1)"/><path d="M74.909 25.4761C70.7483 27.6445 49.1951 36.5068 44.6065 38.8999 40.0179 41.2918 37.4688 41.2683 33.8438 39.5355 30.2188 37.8035 7.2826 28.5374 3.15083 26.5634 1.08601 25.5757 0 24.7434 0 23.9571L0 16.0754C0 16.0754 29.8607 9.57552 34.6813 7.84631 39.5017 6.11649 41.1742 6.05436 45.2765 7.55699 49.3796 9.05992 73.9095 13.4847 77.9636 14.9699L77.9618 22.7395C77.9624 23.5176 77.0269 24.3722 74.909 25.4761" fill="#912626" fill-rule="nonzero" fill-opacity="1" transform="scale(1.00026 1)"/><path d="M74.9075 17.6423C70.7471 19.8107 49.1944 28.673 44.6059 31.0649 40.0176 33.4568 37.4685 33.4333 33.8438 31.7014 30.2191 29.9685 7.28321 20.703 3.15205 18.7286-0.979723 16.7546-1.06591 15.3948 2.99216 13.8054 7.05053 12.2162 29.8607 3.26777 34.6816 1.53795 39.502-0.191559 41.1742-0.253686 45.2765 1.24925 49.379 2.75218 70.8032 11.2791 74.857 12.7644 78.9123 14.2494 79.0679 15.474 74.9075 17.6423" fill="#C6302B" fill-rule="nonzero" fill-opacity="1" transform="scale(1.00026 1)"/><path d="M48.5089 9.976 41.8059 10.6719 40.3054 14.2826 37.8818 10.2534 30.1418 9.55785 35.9172 7.47507 34.1843 4.27795 39.5915 6.39271 44.689 4.7238 43.3112 8.02964 48.5089 9.976M39.9052 27.4928 27.3954 22.3043 45.3209 19.5527 39.9052 27.4928M22.5613 11.983C27.8528 11.983 32.1423 13.6458 32.1423 15.6966 32.1423 17.748 27.8528 19.4105 22.5613 19.4105 17.2699 19.4105 12.9803 17.7477 12.9803 15.6966 12.9803 13.6458 17.2699 11.983 22.5613 11.983" fill="#FFFFFF" fill-rule="nonzero" fill-opacity="1" transform="scale(1.00026 1)"/><path d="M56.4308 10.963 67.0399 15.1554 56.4399 19.3438 56.4308 10.9627" fill="#621B1C" fill-rule="nonzero" fill-opacity="1" transform="scale(1.00026 1)"/><path d="M44.6936 15.6058 56.4308 10.963 56.4399 19.3438 55.289 19.7939 44.6936 15.6058" fill="#9A2928" fill-rule="nonzero" fill-opacity="1" transform="scale(1.00026 1)"/></g></g></g></g></g></svg>