<svg width="162" height="38" xmlns="http://www.w3.org/2000/svg" xmlns:xlink="http://www.w3.org/1999/xlink" xml:space="preserve" overflow="hidden"><defs><linearGradient x1="85.2734" y1="10.7204" x2="102.334" y2="26.7099" gradientUnits="userSpaceOnUse" spreadMethod="pad" id="fill0"><stop offset="0" stop-color="#000000" stop-opacity="1"/><stop offset="1" stop-color="#FFFFFF" stop-opacity="1"/></linearGradient><linearGradient x1="102.782" y1="26.1328" x2="84.8282" y2="11.2969" gradientUnits="userSpaceOnUse" spreadMethod="pad" id="fill1"><stop offset="0" stop-color="#000000" stop-opacity="1"/><stop offset="1" stop-color="#FFFFFF" stop-opacity="1"/></linearGradient></defs><g><g><path d="M10.2059 13.2678C10.2059 14.4273 10.0422 15.372 9.71485 16.1018 9.38746 16.8325 8.71954 17.4376 7.71108 17.917 8.71856 18.3691 9.38648 18.9741 9.71485 19.7322 10.0422 20.463 10.2059 21.3955 10.2059 22.5296L10.2059 29.2191C10.2059 30.4292 10.432 31.2857 10.8841 31.7885 11.3362 32.3175 12.1171 32.5821 13.2269 32.5821L16.2888 32.5821C16.9183 32.5821 17.233 32.8973 17.233 33.5277L17.233 34.5098C17.233 35.1393 16.9183 35.454 16.2888 35.454L13.2269 35.454C11.0093 35.454 9.40938 34.9751 8.42723 34.0173 7.46944 33.0596 6.99054 31.4596 6.99054 29.2176L6.99054 22.5282C6.99054 21.394 6.76448 20.5877 6.31238 20.1093 5.86029 19.6055 5.07885 19.3537 3.96808 19.3537L0.945615 19.3537C0.316179 19.3537 0.00146154 19.039 0.00146154 18.4095L0.00146154 17.4274C0.00146154 16.7979 0.316667 16.4832 0.947077 16.4832L3.971 16.4832C5.07983 16.4832 5.86125 16.2314 6.31531 15.7276 6.76741 15.2238 6.99346 14.4039 6.99346 13.2678L6.99346 6.612C6.99346 4.36902 7.47236 2.76913 8.43015 1.81231 9.41036 0.854513 11.0093 0.375615 13.2269 0.375615L16.2888 0.375615C16.9183 0.375615 17.233 0.690821 17.233 1.32123L17.233 2.30338C17.233 2.93379 16.9183 3.249 16.2888 3.249L13.2269 3.249C12.1181 3.249 11.3372 3.51354 10.8841 4.04262 10.432 4.57169 10.2059 5.42815 10.2059 6.612ZM40.6615 0C41.2909 0 41.6056 0.315206 41.6056 0.945615L41.6056 3.44046C41.6056 4.0699 41.2909 4.38462 40.6615 4.38462L38.2017 4.38462C37.5722 4.38462 37.2575 4.0699 37.2575 3.44046L37.2575 0.945615C37.2575 0.316179 37.5722 0.00146154 38.2017 0.00146154ZM40.6615 9.82738C41.2909 9.82738 41.6056 10.1421 41.6056 10.7715L41.6056 24.1899C41.6056 27.8945 40.7364 30.5783 38.9982 32.2415 37.2853 33.9311 35.093 34.7758 32.4213 34.7758 30.4307 34.7758 28.5399 34.3977 26.7491 33.6417 26.3476 33.4907 26.1469 33.2262 26.1469 32.8481 26.1469 32.6971 26.1849 32.546 26.2609 32.395L26.6395 31.4874C26.7904 31.0859 27.055 30.8852 27.4331 30.8852 27.6095 30.8852 27.7477 30.9101 27.8482 30.9598 29.4354 31.5396 30.9598 31.8294 32.4213 31.8294 34.2609 31.8294 35.7098 31.2496 36.7679 30.0902 37.8261 28.9307 38.3552 26.9654 38.3552 24.1943L38.3552 12.7797 27.8087 12.7797C27.1792 12.7797 26.8645 12.4645 26.8645 11.8341L26.8645 10.773C26.8645 10.1426 27.1792 9.82738 27.8087 9.82738ZM69.673 11.9817C69.522 12.5361 69.1439 12.7622 68.5388 12.6598 67.1026 12.4328 65.9684 12.3193 65.1364 12.3193 63.8765 12.3193 62.8184 12.5337 61.9619 12.9624 61.1055 13.3638 60.6772 13.9436 60.6772 14.7016 60.6772 15.3564 61.0173 15.9362 61.6974 16.4408 62.3774 16.9446 63.3226 17.272 64.5328 17.423 66.7758 17.6997 68.439 18.355 69.5225 19.3888 70.6313 20.4216 71.1857 21.6932 71.1857 23.2034 71.1857 24.967 70.4929 26.3906 69.1074 27.474 67.7218 28.5574 65.7688 29.0992 63.2481 29.0992 61.5585 29.0992 59.8577 28.9604 58.1458 28.6827 57.6168 28.6067 57.3522 28.3294 57.3522 27.8511 57.3522 27.7254 57.3649 27.6245 57.3902 27.5485L57.6168 26.5664C57.7172 25.9866 58.0826 25.7348 58.7129 25.8108 60.1745 26.0632 61.6861 26.1893 63.2481 26.1893 64.7603 26.1893 65.9193 25.9121 66.7251 25.3577 67.5563 24.8033 67.9718 24.0851 67.9718 23.2034 67.9718 22.4726 67.6565 21.8427 67.0262 21.3136 66.4211 20.7845 65.4638 20.4572 64.1542 20.3315 62.0632 20.1298 60.4254 19.5126 59.2405 18.4797 58.0567 17.4215 57.4648 16.1617 57.4648 14.7002 57.4648 13.1626 58.1074 11.9028 59.3925 10.9206 60.6777 9.93748 62.4666 9.44592 64.7593 9.44592 66.2461 9.44592 67.7325 9.58477 69.2185 9.86246 69.7223 9.93846 69.9741 10.2157 69.9741 10.6941 69.9741 10.8198 69.9614 10.9206 69.9361 10.9966ZM117.416 10.9235C117.416 10.3691 117.705 10.0291 118.285 9.90338 120.301 9.60133 122.443 9.45031 124.71 9.45031 127.533 9.45031 129.574 10.0422 130.834 11.2261 132.094 12.3856 132.724 14.3387 132.724 17.0854L132.724 27.7824C132.724 28.4119 132.409 28.7265 131.778 28.7265L130.455 28.7265C129.825 28.7265 129.51 28.4119 129.51 27.7824L129.51 17.0854C129.51 15.3217 129.144 14.0868 128.414 13.3804 127.683 12.6749 126.448 12.3222 124.709 12.3222 123.499 12.3222 122.138 12.3724 120.627 12.4728L120.627 27.7809C120.627 28.4104 120.311 28.7251 119.681 28.7251L118.358 28.7251C117.728 28.7251 117.413 28.4104 117.413 27.7809ZM148.817 6.61492C148.817 5.43108 148.59 4.57462 148.139 4.04554 147.687 3.51646 146.905 3.25192 145.796 3.25192L142.734 3.25192C142.103 3.25192 141.788 2.93671 141.788 2.30631L141.788 1.32269C141.788 0.692282 142.103 0.377077 142.734 0.377077L145.796 0.377077C148.013 0.377077 149.6 0.855975 150.557 1.81377 151.541 2.77156 152.032 4.37146 152.032 6.61346L152.032 13.2664C152.032 14.4005 152.259 15.2205 152.71 15.7262 153.162 16.2299 153.944 16.4818 155.053 16.4818L158.077 16.4818C158.707 16.4818 159.023 16.7964 159.023 17.4259L159.023 18.4095C159.023 19.039 158.707 19.3537 158.077 19.3537L155.053 19.3537C153.944 19.3537 153.163 19.6055 152.71 20.1093 152.259 20.5877 152.032 21.394 152.032 22.5282L152.032 29.2176C152.032 31.4606 151.553 33.0604 150.595 34.0173 149.638 34.9751 148.038 35.454 145.796 35.454L142.734 35.454C142.103 35.454 141.788 35.1387 141.788 34.5084L141.788 33.5262C141.788 32.8967 142.103 32.5821 142.734 32.5821L145.796 32.5821C146.905 32.5821 147.686 32.3175 148.139 31.7885 148.59 31.2847 148.817 30.4282 148.817 29.2191L148.817 22.5296C148.817 21.3955 148.98 20.463 149.308 19.7322 149.635 18.9762 150.303 18.3711 151.312 17.917 150.305 17.4386 149.637 16.8336 149.308 16.1018 148.98 15.371 148.817 14.4259 148.817 13.2664Z" fill="#000000" fill-rule="nonzero" fill-opacity="1" transform="matrix(1.00766 0 0 1 0.736364 0.730769)"/><path d="M93.7811 24.4501C98.9768 31.5327 104.06 22.4726 104.054 17.0255 104.044 10.5845 97.5153 6.98469 93.7767 6.98469 87.7756 6.98469 82.0595 11.9452 82.0595 18.7311 82.0595 26.2741 88.6116 30.4526 93.7767 30.4526 92.6075 30.2845 88.7125 29.45 88.6598 20.4776 88.6248 14.4093 90.6388 11.9846 93.7679 13.0515 93.8381 13.0778 97.2186 14.4108 97.2186 18.7676 97.2186 23.1055 93.7796 24.4501 93.7796 24.4501Z" fill="url(#fill0)" fill-rule="evenodd" transform="matrix(1.00766 0 0 1 0.736364 0.730769)"/><path d="M93.7752 13.0457C90.3421 11.8633 86.1372 14.6914 86.1372 20.3592 86.1372 29.6122 92.9933 30.4526 93.8249 30.4526 99.826 30.4526 105.542 25.4922 105.542 18.7062 105.542 11.1632 98.99 6.98469 93.8249 6.98469 95.2558 6.78592 101.536 8.53246 101.536 17.1175 101.536 22.7152 96.8459 25.7625 93.7957 24.4603 93.7255 24.434 90.345 23.1011 90.345 18.7442 90.345 14.4064 93.7738 13.0472 93.7738 13.0472Z" fill="url(#fill1)" fill-rule="evenodd" transform="matrix(1.00766 0 0 1 0.736364 0.730769)"/></g></g></svg>