<svg width="238" height="29" xmlns="http://www.w3.org/2000/svg" xmlns:xlink="http://www.w3.org/1999/xlink" xml:space="preserve" overflow="hidden"><defs><clipPath id="clip0"><rect x="0" y="0" width="238" height="29"/></clipPath><clipPath id="clip1"><rect x="0" y="0" width="238" height="29"/></clipPath></defs><g clip-path="url(#clip0)"><g clip-path="url(#clip1)"><path d="M154.331 27.0271 147.78 27.0271 147.78 0.29177 168.849 0.308662C168.849 0.308662 172.706 0.165848 175.16 2.58908 175.16 2.58908 177.665 4.68061 177.665 9.79273L177.665 27.0225 171.131 27.0225 171.131 9.34739C171.131 9.34739 171.211 7.54456 170.598 6.91188 170.598 6.91188 170.054 6.22545 169.021 6.22545L154.316 6.22545 154.33 27.0179ZM182.218 27.0225 182.218 0.311733 208.508 0.311733 208.508 6.2531 188.729 6.25156 188.729 10.794 202.47 10.794 202.47 16.5311 188.729 16.5311 188.729 21.0888 208.631 21.0888 208.631 27.0317 182.203 27.0317ZM136.364 27.0225 136.364 0.311733 142.888 0.311733 142.888 27.0317 136.364 27.0317ZM219.58 4.57158 219.58 3.6717ZM217.899 27.0225 217.899 6.24542 211.741 6.24542 211.741 0.304055 236.234 0.304055 236.234 6.24542 224.427 6.24542 224.427 27.0225 217.903 27.0225ZM116.501 4.57158 116.501 3.6717ZM114.819 27.0225 114.819 6.24542 108.661 6.24542 108.661 0.304055 133.155 0.304055 133.155 6.24542 121.347 6.24542 121.347 27.0225 114.824 27.0225ZM95.1478 10.7755C96.7418 10.7632 97.6954 10.7771 98.0793 10.5437 98.0793 10.5437 98.7488 10.1736 98.7565 9.37811L98.7581 7.63056C98.7581 6.83203 98.0808 6.46501 98.0808 6.46501 97.5726 6.1886 96.7111 6.24081 94.6641 6.23927L81.9552 6.23927 81.9552 10.7755 95.4396 10.7755 95.1478 10.7755ZM98.6628 27.0225 98.6628 17.9039C98.6628 17.0839 97.978 16.7415 97.978 16.7415 97.6693 16.5495 96.7433 16.5142 95.3812 16.5142L95.6975 16.5142 81.9552 16.5142 81.9552 27.021 75.4318 27.021 75.4318 0.310198 95.7943 0.310198C99.3109 0.320947 101.739 0.838455 103.411 2.46162 105.054 4.13546 105.272 6.32527 105.281 8.60415L105.281 10.5068C105.303 12.4432 104.285 14.2092 103.072 15.2381L103.316 15.3594C103.81 15.599 104.082 15.9383 104.082 15.9383 105.003 17.1177 104.993 18.1312 104.991 19.3781L104.991 27.0271 98.6644 27.0271ZM0.0138207 0.30252 0.0138207 27.0148 6.53719 27.0148 6.53719 16.5173 26.3008 16.5173 26.3008 10.7771 6.53719 10.7771 6.53719 6.23774 29.5102 6.23774 29.5102 0.296377 0.0107494 0.296377ZM234.03 22.2974 234.03 23.5244 235.173 23.5244C235.482 23.5244 235.781 23.4399 235.827 22.9807 235.893 22.3726 235.452 22.2974 235.173 22.2974ZM233.571 21.8935 235.162 21.8935C235.715 21.8935 236.249 21.9979 236.295 22.8026 236.314 23.2633 236.174 23.4307 235.827 23.6933 236.194 23.9267 236.203 23.9835 236.259 24.5993 236.295 25.0692 236.229 25.1444 236.428 25.4531L235.884 25.4531 235.81 25.0032C235.733 24.5809 235.941 23.9282 235.201 23.9282L234.03 23.9282 234.03 25.4531 233.571 25.4531 233.571 21.8935ZM234.769 20.9107C233.197 20.9124 231.924 22.1884 231.925 23.7608 231.925 23.7659 231.925 23.7711 231.925 23.7762 231.925 25.3487 233.2 26.6325 234.781 26.6233 236.358 26.6203 237.635 25.339 237.633 23.7616 237.63 22.1842 236.348 20.9078 234.771 20.9107M234.78 26.9949C232.998 26.9983 231.552 25.5572 231.549 23.7762 231.549 23.7731 231.549 23.7701 231.549 23.767 231.546 21.9852 232.989 20.5386 234.771 20.536 234.774 20.536 234.777 20.536 234.78 20.536 236.561 20.536 238.011 21.9887 238.011 23.7685 238.006 25.5505 236.561 26.9932 234.78 26.9949" fill="#231F20" fill-rule="nonzero" fill-opacity="1" transform="matrix(1 0 0 1.00535 -0.0107494 0.769905)"/><path d="M66.4622 27.2882C68.5813 26.568 70.2306 24.1279 70.6268 21.0597L70.6268 20.1721 59.7622 20.1721 59.7622 27.2882 66.4606 27.2882ZM70.6283 7.12533 70.6283 6.3222C70.2122 3.12041 68.4401 0.598897 66.1812 0.0046069L59.7637 0.0046069 59.7637 7.12533 70.6283 7.12533ZM32.3911 20.1736 32.3911 21.052C32.7842 24.1233 34.4335 26.568 36.5588 27.2882L43.2234 27.2882 43.2234 20.1721 32.3911 20.1721ZM36.8368 0.0107494C34.5809 0.603504 32.8042 3.12808 32.3911 6.33448L32.3911 7.13148 43.2234 7.13148 43.2234 0.0122851 36.8368 0.0122851ZM70.636 10.0937 59.7714 10.0937 59.7714 17.2129 70.636 17.2129ZM46.1888 27.2928 56.8169 27.2928 56.8169 20.1767 46.1888 20.1767ZM56.8169 0.0046069 46.1888 0.0046069 46.1888 7.1238 56.8169 7.1238ZM32.4003 17.2037 43.2327 17.2037 43.2327 10.0845 32.4003 10.0845Z" fill="#EE2E24" fill-rule="nonzero" fill-opacity="1" transform="matrix(1 0 0 1.00535 -0.0107494 0.769905)"/></g></g></svg>