<svg width="228" height="38" xmlns="http://www.w3.org/2000/svg" xmlns:xlink="http://www.w3.org/1999/xlink" xml:space="preserve" overflow="hidden"><defs><clipPath id="clip0"><rect x="0" y="0" width="228" height="38"/></clipPath><clipPath id="clip1"><rect x="0" y="0" width="228" height="38"/></clipPath><clipPath id="clip2"><rect x="0" y="0" width="227" height="38"/></clipPath></defs><g clip-path="url(#clip0)"><g clip-path="url(#clip1)"><g clip-path="url(#clip2)"><path d="M12.7012 0 17.8166 0 17.8166 30.5851 12.7012 30.5851Z" fill="#6B0AEA" fill-rule="nonzero" fill-opacity="1" transform="matrix(1.01075 0 0 1 -1.00445e-14 0.0114864)"/><path d="M19.0558 37.9612 24.1672 34.7938 24.1672 8.3144C22.6519 7.19073 20.9061 6.41725 19.0558 6.04972ZM6.33478 34.8096 11.4501 37.977 11.4501 6.06556C9.59965 6.42755 7.85256 7.1956 6.33478 8.3144ZM25.4064 1.45304 25.4064 34.2395 27.782 32.7667C29.5107 31.6295 30.5394 29.6886 30.5099 27.6197L30.5099 12.1351C30.5218 7.66905 25.4064 1.45304 25.4064 1.45304ZM0 27.6078C-0.0316763 29.6773 0.997523 31.6192 2.72792 32.7548L5.10346 34.2276 5.10346 1.45304C5.10346 1.45304 0 7.66905 0 12.1351Z" fill="#6B0AEA" fill-rule="evenodd" fill-opacity="1" transform="matrix(1.01075 0 0 1 -1.00445e-14 0.0114864)"/><path d="M153.096 30.9454 153.096 6.82573 156.786 5.27371 156.786 30.9454ZM147.284 20.8414C147.322 19.5248 146.789 18.256 145.823 17.3613 144.875 16.4981 143.632 16.033 142.351 16.0626 141.082 16.0274 139.852 16.4941 138.926 17.3613 137.979 18.2806 137.413 19.5234 137.342 20.8414ZM142.279 31.2344C139.685 31.2344 137.573 30.4004 135.944 28.7322 134.316 27.0641 133.507 24.8508 133.517 22.0926 133.517 19.3369 134.34 17.129 135.984 15.4687 137.628 13.8085 139.754 12.981 142.362 12.9863 144.973 12.9863 147.085 13.7782 148.697 15.3618 150.31 16.9455 151.121 19.0255 151.132 21.6016 151.135 22.1809 151.091 22.7595 151.001 23.3318L137.302 23.3318C137.323 24.6553 137.865 25.9172 138.811 26.8436 139.747 27.7153 140.989 28.182 142.267 28.1423 144.281 28.1423 145.699 27.3188 146.52 25.6717L150.514 25.6717C149.992 27.2942 148.961 28.705 147.573 29.6943 146.02 30.7636 144.163 31.3037 142.279 31.2344ZM119.066 13.2753 119.066 16.0468C120.254 13.9959 122.158 12.9705 124.779 12.9705 126.643 12.909 128.447 13.6263 129.76 14.9501 131.08 16.2698 131.74 18.1175 131.74 20.493L131.74 30.9454 128.073 30.9454 128.073 21.0671C128.073 19.4834 127.678 18.2706 126.886 17.4286 126.024 16.5573 124.831 16.0961 123.607 16.1616 122.37 16.089 121.161 16.5469 120.282 17.4207 119.471 18.2627 119.066 19.4755 119.066 21.0592L119.066 30.9454 115.364 30.9454 115.364 13.2753ZM108.483 30.9454 108.483 13.2753 112.185 13.2753 112.185 30.9454ZM105.803 16.2566 101.448 16.2566 101.448 26.036C101.397 26.5574 101.568 27.0759 101.919 27.4652 102.232 27.7543 102.766 27.8968 103.526 27.8968L105.799 27.8968 105.799 30.9454 102.877 30.9454C99.4454 30.9454 97.7299 29.3089 97.7299 26.036L97.7299 10.4286 101.463 8.88058 101.463 13.2753 105.819 13.2753ZM83.3578 13.2753 83.3578 16.0468C84.5349 14.0065 86.4433 12.9863 89.0829 12.9863 90.9469 12.9271 92.7519 13.6439 94.0676 14.9659 95.3872 16.2857 96.0472 18.1333 96.0472 20.5089L96.0472 30.9454 92.377 30.9454 92.377 21.0671C92.377 19.4834 91.9811 18.2706 91.1892 17.4286 90.3277 16.5573 89.1344 16.0961 87.911 16.1616 86.6682 16.0844 85.4519 16.5426 84.5694 17.4207 83.7589 18.2627 83.3527 19.4755 83.3499 21.0592L83.3499 30.9454 79.652 30.9454 79.652 13.2753ZM73.8557 20.8414C73.8941 19.5248 73.3612 18.256 72.3947 17.3613 71.4393 16.4904 70.1831 16.0248 68.8908 16.0626 67.6226 16.0274 66.3921 16.4941 65.466 17.3613 64.517 18.2794 63.9512 19.5229 63.8823 20.8414ZM68.8353 31.2344C66.2381 31.2344 64.1266 30.4004 62.5006 28.7322 60.8745 27.0641 60.0644 24.8508 60.0696 22.0926 60.0696 19.3369 60.8919 17.129 62.5362 15.4687 64.1805 13.8085 66.3066 12.981 68.9145 12.9863 71.5225 12.9863 73.6339 13.7782 75.2493 15.3618 76.8647 16.9455 77.6763 19.0255 77.6842 21.6016 77.6874 22.1809 77.6435 22.7595 77.5536 23.3318L63.8546 23.3318C63.8748 24.6563 64.4188 25.9188 65.3671 26.8436 66.3018 27.7168 67.545 28.1838 68.8235 28.1423 70.8348 28.1423 72.2522 27.3188 73.0757 25.6717L77.0666 25.6717C76.5444 27.2942 75.513 28.705 74.1249 29.6943 72.5733 30.7631 70.7184 31.3032 68.8353 31.2344ZM50.3892 11.3511C49.4224 11.3077 48.471 11.6017 47.697 12.1826 46.9851 12.7792 46.5983 13.6785 46.6557 14.6056 46.6133 15.577 47.0896 16.498 47.9068 17.0247 48.8154 17.6172 49.8286 18.031 50.8921 18.2442 52.0589 18.5081 53.2268 18.8024 54.396 19.1271 55.5426 19.4529 56.5736 20.0966 57.3694 20.984 58.1878 21.8788 58.5979 23.151 58.6007 24.8007 58.6035 26.4504 57.8999 27.9245 56.4904 29.2231 55.0837 30.5297 53.2015 31.1896 50.8446 31.2028 48.4876 31.216 46.5725 30.6696 45.0997 29.5636 43.6506 28.5234 42.8204 26.8248 42.8904 25.0422L46.8497 25.0422C46.8944 25.9385 47.2915 26.7809 47.9543 27.3861 48.6036 27.9615 49.5566 28.2492 50.8129 28.2492 51.8878 28.3098 52.9469 27.9667 53.7823 27.2871 55.0465 26.1835 55.2306 24.2855 54.202 22.9596 53.7328 22.4498 53.1417 22.0682 52.4837 21.851 51.7227 21.5901 50.9483 21.3706 50.1636 21.1938 49.3191 21.0038 48.469 20.7794 47.6138 20.5207 46.799 20.2814 46.0151 19.948 45.2779 19.527 44.5529 19.1004 43.9575 18.4845 43.5556 17.7453 43.0876 16.8642 42.8584 15.876 42.8904 14.8788 42.8295 13.0669 43.6154 11.3298 45.0166 10.1792 46.434 8.99143 48.2738 8.39755 50.5357 8.39755 52.7976 8.39755 54.6046 8.89772 55.9559 9.8981 57.31 10.9248 58.0622 12.4109 58.2127 14.3562L54.1228 14.3562C54.0476 13.5234 53.6513 12.7525 53.0182 12.2063 52.2802 11.6017 51.3418 11.2965 50.3892 11.3511ZM210.972 14.281C209.759 14.2655 208.56 14.5368 207.472 15.0728 206.399 15.6139 205.504 16.4523 204.895 17.488 204.201 18.7078 203.848 20.0917 203.873 21.4947L217.758 21.4947C217.883 20.1035 217.601 18.706 216.947 17.4721 216.369 16.428 215.486 15.5853 214.417 15.057 213.344 14.5352 212.165 14.2695 210.972 14.281ZM210.909 29.6072C212.504 29.6615 214.073 29.1975 215.383 28.2848 216.578 27.4325 217.374 26.1301 217.588 24.6779L219.112 24.6779C218.833 26.4453 217.886 28.0383 216.467 29.1281 215.031 30.2526 213.2 30.8148 210.972 30.8148 209.431 30.8441 207.908 30.4774 206.55 29.7497 205.26 29.0422 204.203 27.9765 203.505 26.6813 202.738 25.2178 202.359 23.582 202.404 21.9302 202.365 20.2981 202.744 18.6831 203.505 17.2385 204.2 15.9458 205.253 14.8806 206.538 14.1701 207.896 13.4424 209.419 13.0757 210.96 13.1051 212.502 13.0657 214.027 13.433 215.383 14.1701 216.565 14.8217 217.542 15.7913 218.202 16.9693 218.834 18.1005 219.164 19.3754 219.16 20.6712 219.156 21.2371 219.102 21.8016 218.997 22.3578L203.873 22.3578C203.847 23.7761 204.2 25.1756 204.895 26.4121 205.496 27.4489 206.386 28.2881 207.456 28.8272 208.531 29.3526 209.713 29.6197 210.909 29.6072ZM192.874 12.9784C194.949 12.9784 196.636 13.6145 197.934 14.8867 199.233 16.159 199.881 18.0343 199.878 20.5128L199.878 30.593 198.421 30.593 198.421 20.588C198.421 18.5134 197.891 16.9258 196.838 15.837 195.784 14.7482 194.331 14.1978 192.482 14.1978 190.762 14.1248 189.092 14.7904 187.894 16.027 186.738 17.2464 186.16 19.0426 186.16 21.4155L186.16 30.593 184.702 30.593 184.702 13.3268 186.16 13.3268 186.16 17.876C186.506 16.3915 187.39 15.0882 188.642 14.2176 189.893 13.381 191.37 12.9484 192.874 12.9784ZM170.92 9.67638C169.223 9.65219 167.55 10.0813 166.074 10.9196 164.629 11.7506 163.449 12.9736 162.669 14.4473 161.807 16.0959 161.378 17.9364 161.422 19.7962 161.38 21.6534 161.809 23.4909 162.669 25.1372 163.45 26.6101 164.63 27.8328 166.074 28.6649 169.088 30.3172 172.737 30.3172 175.751 28.6649 177.202 27.8369 178.389 26.6135 179.171 25.1372 180.032 23.4909 180.461 21.6534 180.419 19.7962 180.461 17.939 180.032 16.1015 179.171 14.4552 178.39 12.978 177.203 11.7543 175.751 10.9275 174.28 10.0903 172.613 9.65857 170.92 9.67638ZM170.92 8.37379C172.903 8.34346 174.858 8.84375 176.582 9.82287 178.243 10.7713 179.602 12.1699 180.502 13.8573 181.464 15.6867 181.949 17.7295 181.911 19.7962 181.945 21.8549 181.46 23.889 180.502 25.7113 179.599 27.4027 178.241 28.8082 176.582 29.7695 173.063 31.7224 168.786 31.7224 165.267 29.7695 163.595 28.8084 162.224 27.4003 161.307 25.7034 160.344 23.8857 159.859 21.8529 159.898 19.7962 159.859 17.7274 160.349 15.6829 161.323 13.8573 162.236 12.1617 163.608 10.7578 165.282 9.80704 167.001 8.83718 168.947 8.34247 170.92 8.37379Z" fill="#040404" fill-rule="evenodd" fill-opacity="1" transform="matrix(1.01075 0 0 1 -1.00445e-14 0.0114864)"/><path d="M223.091 15.6588 222.695 15.0609 222.371 15.0609 222.371 15.6588 221.975 15.6588 221.975 13.7861 222.83 13.7861C223.273 13.7861 223.539 14.0197 223.539 14.4037 223.551 14.6632 223.389 14.899 223.143 14.9818L223.602 15.6509ZM223.091 14.4275C223.091 14.2493 222.969 14.1582 222.767 14.1582L222.371 14.1582 222.371 14.6967 222.786 14.6967C222.988 14.6967 223.103 14.5898 223.103 14.4314Z" fill="#040404" fill-rule="nonzero" fill-opacity="1" transform="matrix(1.01075 0 0 1 -1.00445e-14 0.0114864)"/><path d="M222.668 16.6922C221.607 16.6943 220.746 15.8364 220.743 14.7759 220.741 13.7154 221.599 12.8539 222.66 12.8517 223.72 12.8495 224.582 13.7074 224.584 14.768 224.584 14.7706 224.584 14.7732 224.584 14.7759 224.582 15.8333 223.725 16.69 222.668 16.6922ZM222.668 13.2753C221.839 13.2753 221.167 13.9471 221.167 14.7759 221.167 15.6046 221.839 16.2764 222.668 16.2764 223.496 16.2764 224.168 15.6046 224.168 14.7759 224.168 13.9471 223.496 13.2753 222.668 13.2753Z" fill="#040404" fill-rule="nonzero" fill-opacity="1" transform="matrix(1.01075 0 0 1 -1.00445e-14 0.0114864)"/></g></g></g></svg>