<svg width="216" height="38" xmlns="http://www.w3.org/2000/svg" xmlns:xlink="http://www.w3.org/1999/xlink" xml:space="preserve" overflow="hidden"><defs><clipPath id="clip0"><rect x="0" y="0" width="216" height="38"/></clipPath><clipPath id="clip1"><rect x="0" y="0" width="216" height="38"/></clipPath></defs><g clip-path="url(#clip0)"><g clip-path="url(#clip1)"><path d="M3.82669 30.7651 19.9105 30.7651C22.7135 30.7651 24.2485 30.5003 25.1483 29.9186 26.2595 29.229 26.8946 28.0688 26.8946 26.6929 26.8946 25.0522 26.0471 23.623 24.6199 22.9345 23.8802 22.5118 22.5022 22.2994 20.8093 22.2994L14.3012 22.2994C10.07 22.2994 7.3182 21.5586 5.4673 19.9713 3.35062 18.1183 2.13483 15.2619 2.13483 12.1942 2.13483 7.69713 4.62084 3.78185 8.2714 2.51163 9.85865 1.92882 11.7096 1.77191 15.8372 1.77191L33.2959 1.77191 33.2959 8.06753 17.5291 8.06753C14.1956 8.11983 13.9308 8.11983 12.8207 8.38455 11.3402 8.75388 10.4404 10.1298 10.4404 11.9807 10.4404 13.5701 11.1801 14.8392 12.4514 15.421 13.5092 15.8981 14.3557 16.0027 16.8961 16.0027L22.5566 16.0027C27.7421 16.0027 30.5452 16.7969 32.6096 18.9135 34.1968 20.4997 35.2557 23.623 35.2557 26.6929 35.2557 30.4491 33.5094 33.9395 30.7587 35.6335 29.0134 36.7437 26.7921 37.0607 21.5522 37.0607L3.82669 37.0607ZM55.4117 1.50506C50.4386 1.50506 46.0995 2.72298 43.3488 4.94534 39.8573 7.69713 38.0064 12.8303 38.0064 19.6031 38.0064 24.3104 39.0087 28.1755 41.0742 31.0842 43.8249 35.0539 49.1705 37.2774 55.9422 37.2774 60.7039 37.2774 64.726 36.1107 67.3721 33.9951 70.8636 31.1931 72.8244 26.109 72.8244 19.918L72.8084 18.9082 72.7657 17.9144 72.6953 16.9474 72.6003 15.9984 72.4765 15.073 72.3227 14.1763 72.1466 13.3085 71.9428 12.4685 71.8317 12.0586 71.7133 11.6583 71.5894 11.2623 71.4603 10.8812 71.3269 10.5012 71.1838 10.133 71.0344 9.77646 70.8785 9.42208 70.7216 9.08477 70.5562 8.75174 70.3843 8.42831 70.2071 8.1177 70.0214 7.81348 69.8346 7.51781 69.6393 7.23601 69.4386 6.96489C66.738 3.46483 61.7084 1.50506 55.4117 1.50506ZM55.4629 7.48152C61.7596 7.48152 64.5637 11.1887 64.5637 19.4408 64.5637 27.5895 61.7062 31.3457 55.4629 31.3457 49.115 31.3457 46.2565 27.5874 46.2565 19.3352L46.2607 18.9872 46.265 18.6435 46.2703 18.3062 46.2842 17.9731 46.2992 17.6476 46.3141 17.3242 46.3333 17.0093 46.3568 16.6987 46.3846 16.3923 46.4134 16.0966 46.4465 15.8074 46.4838 15.5213 46.5222 15.2395 46.5649 14.962 46.613 14.6951 46.661 14.4283 46.7144 14.1721 46.772 13.9244 46.8297 13.6768 46.8926 13.4377 46.9588 13.2029 47.025 12.9734 47.0954 12.7546 47.1723 12.54 47.2534 12.3308 47.3346 12.1258 47.421 11.9305 47.5117 11.7352 47.6014 11.5494 47.6964 11.3722 47.7967 11.1993 47.8971 11.0339C49.3263 8.75601 52.0248 7.48152 55.4629 7.48152ZM76.8433 1.77191 76.8433 37.0628 84.3515 37.0628 84.3515 24.7299 96.4197 24.7299C100.441 24.7299 102.34 24.2047 104.404 22.4584 106.838 20.3962 108.32 16.957 108.32 13.252 108.32 10.1308 107.21 7.21893 105.147 4.99657 102.82 2.40382 100.648 1.77191 94.4577 1.77191ZM84.3515 8.06859 94.7214 8.06859C95.9383 8.06859 96.8915 8.17213 97.4732 8.38455 99.1149 8.96629 100.068 10.6592 100.068 12.9862 100.068 14.9449 99.4842 16.6389 98.5331 17.433L98.4574 17.4992 98.3805 17.5643 98.2994 17.6273 98.2193 17.6903 98.1329 17.7469 98.0475 17.8002 97.9567 17.8525 97.8617 17.9016 97.7657 17.9475 97.6653 17.9956 97.565 18.0351 97.4604 18.0767 97.3494 18.1151 97.2394 18.1461 97.1252 18.1802 97.0057 18.2133 96.8829 18.24 96.7591 18.2624 96.6299 18.2859 96.4965 18.3094 96.3588 18.3286 96.2201 18.3478 96.0717 18.3628 95.9233 18.382 95.7707 18.3926 95.6084 18.4022 95.4462 18.4129 95.2797 18.4225 95.1067 18.4257 94.9296 18.4311 94.7481 18.4311 94.5613 18.4353 84.3493 18.4353 84.3493 8.06859ZM140.436 37.0585 132.922 37.0585 132.922 22.5107 119.325 22.5107 119.325 37.0585 111.812 37.0585 111.812 1.77191 119.325 1.77191 119.325 16.2151 132.922 16.2151 132.922 1.77191 140.436 1.77191ZM162.341 1.50506C157.369 1.50506 153.03 2.72298 150.278 4.94534 146.787 7.69713 144.93 12.8303 144.93 19.6031 144.93 24.3104 145.937 28.1755 148.004 31.0842 150.751 35.0539 156.097 37.2774 162.871 37.2774 167.634 37.2774 171.652 36.1107 174.295 33.9951 177.787 31.1931 179.746 26.109 179.746 19.918L179.731 18.9082 179.69 17.9144 179.619 16.9474 179.523 15.9984 179.398 15.073 179.246 14.1763 179.069 13.3085 178.868 12.4685 178.754 12.0586 178.639 11.6583 178.517 11.2623 178.383 10.8812 178.25 10.5012 178.106 10.133 177.957 9.77646 177.805 9.42208 177.643 9.08477 177.476 8.75174 177.305 8.42831 177.128 8.1177 176.942 7.81348 176.757 7.51781 176.558 7.23601 176.357 6.96489C173.661 3.46483 168.639 1.50506 162.341 1.50506ZM162.396 7.48152C168.689 7.48152 171.495 11.1887 171.495 19.4408 171.495 27.5895 168.637 31.3457 162.396 31.3457 156.048 31.3457 153.189 27.5874 153.189 19.3352L153.189 18.9872 153.193 18.6435 153.204 18.3062 153.213 17.9731 153.228 17.6476 153.249 17.3242 153.268 17.0093 153.29 16.6987 153.313 16.3923 153.342 16.0966 153.379 15.8074 153.412 15.5213 153.45 15.2395 153.493 14.962 153.539 14.6951 153.589 14.4283 153.642 14.1721 153.698 13.9244 153.757 13.6768 153.82 13.4377 153.886 13.2029 153.952 12.9734 154.027 12.7546 154.102 12.54 154.179 12.3308 154.26 12.1258 154.345 11.9305 154.437 11.7352 154.527 11.5494 154.623 11.3722 154.723 11.1993 154.83 11.0339C156.256 8.75601 158.955 7.48152 162.396 7.48152ZM184.192 30.7651 200.276 30.7651C203.078 30.7651 204.612 30.5003 205.513 29.9186 206.622 29.229 207.258 28.0688 207.258 26.6929 207.258 25.0522 206.412 23.623 204.983 22.9345 204.241 22.5118 202.868 22.2994 201.175 22.2994L194.666 22.2994C190.433 22.2994 187.682 21.5586 185.831 19.9713 183.715 18.1183 182.497 15.2619 182.497 12.1942 182.497 7.69713 184.982 3.78185 188.635 2.51163 190.221 1.92882 192.075 1.77191 196.201 1.77191L213.66 1.77191 213.66 8.06753 197.894 8.06753C194.56 8.11983 194.295 8.11983 193.186 8.38455 191.704 8.75388 190.804 10.1298 190.804 11.9807 190.804 13.5701 191.546 14.8392 192.818 15.421 193.873 15.8981 194.719 16.0027 197.261 16.0027L202.921 16.0027C208.106 16.0027 210.91 16.7969 212.976 18.9135 214.561 20.4997 215.618 23.6219 215.618 26.6918 215.618 30.448 213.873 33.9385 211.121 35.6325 209.376 36.7426 207.153 37.0596 201.914 37.0596L184.191 37.0596 184.191 30.7651Z" fill="#007AFF" fill-rule="nonzero" fill-opacity="1" transform="matrix(1.01179 0 0 1 -2.16 -0.391208)"/></g></g></svg>