<svg width="68" height="68" xmlns="http://www.w3.org/2000/svg" xmlns:xlink="http://www.w3.org/1999/xlink" xml:space="preserve" overflow="hidden"><g><g><g><g><g><path d="M0 0 0 67 67 67 67 0 0 0Z" fill="#FEFFFF" fill-rule="nonzero" fill-opacity="1"/><path d="M29.3808 0.397036 29.5792 0.496297 29.3808 0.397036Z" fill="#B6D3E1" fill-rule="nonzero" fill-opacity="1"/><path d="M29.9764 0.397036 30.1747 0.496297 29.9764 0.397036Z" fill="#91BFD5" fill-rule="nonzero" fill-opacity="1"/><path d="M30.3733 0.297778 30.3733 0.595556 31.2667 0.595556 30.3733 0.297778Z" fill="#569FC0" fill-rule="nonzero" fill-opacity="1"/><path d="M31.2667 0.424149C24.7648 1.27827 18.7265 2.93221 13.4 6.9987 9.90942 9.66354 6.76935 13.077 4.69941 16.9733 1.77309 22.4817 0.0343564 28.5567 0.309495 34.84 1.17203 54.5377 19.111 68.9186 38.4133 66.3184 43.0548 65.6934 47.57 64.0225 51.5156 61.5102 74.8676 46.6403 69.6285 10.5474 43.7733 1.9374 39.9281 0.656904 35.3123-0.107327 31.2667 0.424149Z" fill="#2E90B6" fill-rule="nonzero" fill-opacity="1"/><path d="M35.7333 0.297778 35.7333 0.595556 36.6267 0.595556 35.7333 0.297778Z" fill="#569FC0" fill-rule="nonzero" fill-opacity="1"/><path d="M36.8253 0.397036 37.0236 0.496297 36.8253 0.397036Z" fill="#91BFD5" fill-rule="nonzero" fill-opacity="1"/><path d="M37.4208 0.397036 37.6192 0.496297 37.4208 0.397036M27.3956 0.595556 27.6933 0.893333 27.3956 0.595556Z" fill="#B6D3E1" fill-rule="nonzero" fill-opacity="1"/><path d="M27.6933 0.595556 27.9911 0.893333 27.6933 0.595556Z" fill="#91BFD5" fill-rule="nonzero" fill-opacity="1"/><path d="M27.9911 0.595556 28.2889 0.893333 27.9911 0.595556M38.7111 0.595556 39.0089 0.893333 38.7111 0.595556Z" fill="#569FC0" fill-rule="nonzero" fill-opacity="1"/><path d="M39.0089 0.595556 39.3067 0.893333 39.0089 0.595556Z" fill="#91BFD5" fill-rule="nonzero" fill-opacity="1"/><path d="M39.3067 0.595556 39.6044 0.893333 39.3067 0.595556M25.9067 0.893333 26.2044 1.19111 25.9067 0.893333Z" fill="#B6D3E1" fill-rule="nonzero" fill-opacity="1"/><path d="M26.2044 0.893333 26.5022 1.19111 26.2044 0.893333Z" fill="#91BFD5" fill-rule="nonzero" fill-opacity="1"/><path d="M26.5022 0.893333 26.8 1.19111 26.5022 0.893333M40.2 0.893333 40.4978 1.19111 40.2 0.893333Z" fill="#569FC0" fill-rule="nonzero" fill-opacity="1"/><path d="M40.4978 0.893333 40.7956 1.19111 40.4978 0.893333Z" fill="#91BFD5" fill-rule="nonzero" fill-opacity="1"/><path d="M40.7956 0.893333 41.0933 1.19111 40.7956 0.893333M24.7156 1.19111 25.0133 1.48889 24.7156 1.19111Z" fill="#B6D3E1" fill-rule="nonzero" fill-opacity="1"/><path d="M25.0133 1.19111 25.3111 1.48889 25.0133 1.19111M41.6889 1.19111 41.9867 1.48889 41.6889 1.19111Z" fill="#91BFD5" fill-rule="nonzero" fill-opacity="1"/><path d="M41.9867 1.19111 42.2844 1.48889 41.9867 1.19111Z" fill="#B6D3E1" fill-rule="nonzero" fill-opacity="1"/><path d="M23.8222 1.48889 24.12 1.78667 23.8222 1.48889Z" fill="#91BFD5" fill-rule="nonzero" fill-opacity="1"/><path d="M24.12 1.48889 24.4178 1.78667 24.12 1.48889Z" fill="#569FC0" fill-rule="nonzero" fill-opacity="1"/><path d="M42.88 1.48889 43.1778 1.78667 42.88 1.48889Z" fill="#91BFD5" fill-rule="nonzero" fill-opacity="1"/><path d="M22.6311 1.78667 22.9289 2.08444 22.6311 1.78667Z" fill="#B6D3E1" fill-rule="nonzero" fill-opacity="1"/><path d="M22.9289 1.78667 23.2267 2.08444 22.9289 1.78667Z" fill="#91BFD5" fill-rule="nonzero" fill-opacity="1"/><path d="M43.4756 1.78667 43.7733 2.08444 43.4756 1.78667Z" fill="#569FC0" fill-rule="nonzero" fill-opacity="1"/><path d="M43.7733 1.78667 44.0711 2.08444 43.7733 1.78667M22.0356 2.08444 22.3333 2.38222 22.0356 2.08444M44.6667 2.08444 44.9644 2.38222 44.6667 2.08444Z" fill="#91BFD5" fill-rule="nonzero" fill-opacity="1"/><path d="M21.1422 2.38222 21.44 2.68 21.1422 2.38222Z" fill="#B6D3E1" fill-rule="nonzero" fill-opacity="1"/><path d="M21.44 2.38222 21.7378 2.68 21.44 2.38222M45.2622 2.38222 45.56 2.68 45.2622 2.38222Z" fill="#569FC0" fill-rule="nonzero" fill-opacity="1"/><path d="M45.56 2.38222 45.8578 2.68 45.56 2.38222Z" fill="#B6D3E1" fill-rule="nonzero" fill-opacity="1"/><path d="M20.5467 2.68 20.8444 2.97778 20.5467 2.68M46.1556 2.68 46.4533 2.97778 46.1556 2.68Z" fill="#91BFD5" fill-rule="nonzero" fill-opacity="1"/><path d="M19.6533 2.97778 19.9511 3.27556 19.6533 2.97778Z" fill="#B6D3E1" fill-rule="nonzero" fill-opacity="1"/><path d="M19.9511 2.97778 20.2489 3.27556 19.9511 2.97778M46.7511 2.97778 47.0489 3.27556 46.7511 2.97778Z" fill="#91BFD5" fill-rule="nonzero" fill-opacity="1"/><path d="M47.0489 2.97778 47.3467 3.27556 47.0489 2.97778M19.0578 3.27556 19.3556 3.57333 19.0578 3.27556Z" fill="#B6D3E1" fill-rule="nonzero" fill-opacity="1"/><path d="M19.3556 3.27556 19.6533 3.57333 19.3556 3.27556M47.3467 3.27556 47.6444 3.57333 47.3467 3.27556Z" fill="#569FC0" fill-rule="nonzero" fill-opacity="1"/><path d="M47.6444 3.27556 47.9422 3.57333 47.6444 3.27556M18.4622 3.57333 18.76 3.87111 18.4622 3.57333Z" fill="#B6D3E1" fill-rule="nonzero" fill-opacity="1"/><path d="M18.76 3.57333 19.0578 3.87111 18.76 3.57333M47.9422 3.57333 48.24 3.87111 47.9422 3.57333Z" fill="#569FC0" fill-rule="nonzero" fill-opacity="1"/><path d="M48.24 3.57333 48.5378 3.87111 48.24 3.57333M17.8667 3.87111 18.1644 4.16889 17.8667 3.87111Z" fill="#B6D3E1" fill-rule="nonzero" fill-opacity="1"/><path d="M18.1644 3.87111 18.4622 4.16889 18.1644 3.87111M48.5378 3.87111 48.8356 4.16889 48.5378 3.87111Z" fill="#569FC0" fill-rule="nonzero" fill-opacity="1"/><path d="M48.8356 3.87111 49.1333 4.16889 48.8356 3.87111M17.2711 4.16889 17.5689 4.46667 17.2711 4.16889Z" fill="#B6D3E1" fill-rule="nonzero" fill-opacity="1"/><path d="M17.5689 4.16889 17.8667 4.46667 17.5689 4.16889M49.1333 4.16889 49.4311 4.46667 49.1333 4.16889Z" fill="#569FC0" fill-rule="nonzero" fill-opacity="1"/><path d="M49.4311 4.16889 49.7289 4.46667 49.4311 4.16889Z" fill="#B6D3E1" fill-rule="nonzero" fill-opacity="1"/><path d="M16.9733 4.46667 17.2711 4.76444 16.9733 4.46667M49.7289 4.46667 50.0267 4.76444 49.7289 4.46667Z" fill="#569FC0" fill-rule="nonzero" fill-opacity="1"/><path d="M16.3778 4.76444 16.6756 5.06222 16.3778 4.76444M50.3244 4.76444 50.6222 5.06222 50.3244 4.76444Z" fill="#91BFD5" fill-rule="nonzero" fill-opacity="1"/><path d="M15.7822 5.06222 16.08 5.36 15.7822 5.06222M50.92 5.06222 51.2178 5.36 50.92 5.06222Z" fill="#B6D3E1" fill-rule="nonzero" fill-opacity="1"/><path d="M15.4844 5.36 15.7822 5.65778 15.4844 5.36M51.2178 5.36 51.5156 5.65778 51.2178 5.36Z" fill="#569FC0" fill-rule="nonzero" fill-opacity="1"/><path d="M14.8889 5.65778 15.1867 5.95556 14.8889 5.65778M51.8133 5.65778 52.1111 5.95556 51.8133 5.65778Z" fill="#B6D3E1" fill-rule="nonzero" fill-opacity="1"/><path d="M14.5911 5.95556 14.8889 6.25333 14.5911 5.95556M52.1111 5.95556 52.4089 6.25333 52.1111 5.95556Z" fill="#569FC0" fill-rule="nonzero" fill-opacity="1"/><path d="M13.9956 6.25333 14.2933 6.55111 13.9956 6.25333M52.7067 6.25333 53.0044 6.55111 52.7067 6.25333Z" fill="#B6D3E1" fill-rule="nonzero" fill-opacity="1"/><path d="M13.6978 6.55111 13.9956 6.84889 13.6978 6.55111M53.0044 6.55111 53.3022 6.84889 53.0044 6.55111Z" fill="#91BFD5" fill-rule="nonzero" fill-opacity="1"/><path d="M12.8044 7.14667 13.1022 7.44444 12.8044 7.14667M53.8978 7.14667 54.1956 7.44444 53.8978 7.14667Z" fill="#B6D3E1" fill-rule="nonzero" fill-opacity="1"/><path d="M12.5067 7.44444 12.8044 7.74222 12.5067 7.44444M54.1956 7.44444 54.4933 7.74222 54.1956 7.44444Z" fill="#91BFD5" fill-rule="nonzero" fill-opacity="1"/><path d="M12.2089 7.74222 12.5067 8.04 12.2089 7.74222M54.4933 7.74222 54.7911 8.04 54.4933 7.74222M11.9111 8.04 12.2089 8.33778 11.9111 8.04M54.7911 8.04 55.0889 8.33778 54.7911 8.04Z" fill="#569FC0" fill-rule="nonzero" fill-opacity="1"/><path d="M11.0178 8.63556 11.3156 8.93333 11.0178 8.63556M55.6844 8.63556 55.9822 8.93333 55.6844 8.63556M10.72 8.93333 11.0178 9.23111 10.72 8.93333M55.9822 8.93333 56.28 9.23111 55.9822 8.93333M10.4222 9.23111 10.72 9.52889 10.4222 9.23111M56.28 9.23111 56.5778 9.52889 56.28 9.23111M10.1244 9.52889 10.4222 9.82667 10.1244 9.52889M56.5778 9.52889 56.8756 9.82667 56.5778 9.52889Z" fill="#B6D3E1" fill-rule="nonzero" fill-opacity="1"/><path d="M9.82667 9.82667 10.1244 10.1244 9.82667 9.82667M56.8756 9.82667 57.1733 10.1244 56.8756 9.82667Z" fill="#91BFD5" fill-rule="nonzero" fill-opacity="1"/><path d="M9.52889 10.1244 9.82667 10.4222 9.52889 10.1244M57.1733 10.1244 57.4711 10.4222 57.1733 10.1244M9.23111 10.4222 9.52889 10.72 9.23111 10.4222M57.4711 10.4222 57.7689 10.72 57.4711 10.4222M8.93333 10.72 9.23111 11.0178 8.93333 10.72M57.7689 10.72 58.0667 11.0178 57.7689 10.72M8.63556 11.0178 8.93333 11.3156 8.63556 11.0178M58.0667 11.0178 58.3644 11.3156 58.0667 11.0178Z" fill="#B6D3E1" fill-rule="nonzero" fill-opacity="1"/><path d="M8.04 11.9111 8.33778 12.2089 8.04 11.9111M58.6622 11.9111 58.96 12.2089 58.6622 11.9111M7.74222 12.2089 8.04 12.5067 7.74222 12.2089M58.96 12.2089 59.2578 12.5067 58.96 12.2089Z" fill="#569FC0" fill-rule="nonzero" fill-opacity="1"/><path d="M7.44444 12.5067 7.74222 12.8044 7.44444 12.5067M59.2578 12.5067 59.5556 12.8044 59.2578 12.5067Z" fill="#91BFD5" fill-rule="nonzero" fill-opacity="1"/><path d="M7.14667 12.8044 7.44444 13.1022 7.14667 12.8044M59.5556 12.8044 59.8533 13.1022 59.5556 12.8044Z" fill="#B6D3E1" fill-rule="nonzero" fill-opacity="1"/><path d="M6.84889 13.4 7.14667 13.6978 6.84889 13.4M59.8533 13.4 60.1511 13.6978 59.8533 13.4Z" fill="#569FC0" fill-rule="nonzero" fill-opacity="1"/><path d="M6.55111 13.6978 6.84889 13.9956 6.55111 13.6978M60.1511 13.6978 60.4489 13.9956 60.1511 13.6978Z" fill="#91BFD5" fill-rule="nonzero" fill-opacity="1"/><path d="M6.25333 13.9956 6.55111 14.2933 6.25333 13.9956M60.4489 13.9956 60.7467 14.2933 60.4489 13.9956Z" fill="#B6D3E1" fill-rule="nonzero" fill-opacity="1"/><path d="M5.95556 14.5911 6.25333 14.8889 5.95556 14.5911M39.6044 14.5911 39.9022 14.8889 39.6044 14.5911Z" fill="#569FC0" fill-rule="nonzero" fill-opacity="1"/><path d="M39.9022 14.5911 39.6044 16.3778 39.9022 16.3778 39.9022 14.5911Z" fill="#91BFD5" fill-rule="nonzero" fill-opacity="1"/><path d="M60.7467 14.5911 61.0444 14.8889 60.7467 14.5911Z" fill="#569FC0" fill-rule="nonzero" fill-opacity="1"/><path d="M5.65778 14.8889 5.95556 15.1867 5.65778 14.8889Z" fill="#B6D3E1" fill-rule="nonzero" fill-opacity="1"/><path d="M39.9022 14.8889C39.6819 25.5626 24.0255 34.79 33.4482 45.5481 34.552 46.8086 35.9957 47.6019 37.52 48.24 35.3048 44.845 34.2278 40.1845 37.52 36.9244 37.609 38.6373 38.2257 39.7712 39.6044 40.7956 39.6044 36.49 40.3176 32.4235 44.0711 29.7778 44.1822 35.1351 50.0168 38.4375 49.3763 43.7733 49.1703 45.4897 48.2251 46.8101 47.3467 48.24 57.2213 45.3134 53.9624 33.4896 51.2178 26.8L50.92 26.8 48.5378 29.7778C48.5378 23.7281 45.7696 17.421 39.9022 14.8889Z" fill="#FEFFFF" fill-rule="nonzero" fill-opacity="1"/><path d="M40.2 14.8889 40.4978 15.1867 40.2 14.8889Z" fill="#B6D3E1" fill-rule="nonzero" fill-opacity="1"/><path d="M40.4978 14.8889 40.7956 15.1867 40.4978 14.8889Z" fill="#569FC0" fill-rule="nonzero" fill-opacity="1"/><path d="M61.0444 14.8889 61.3422 15.1867 61.0444 14.8889M40.7956 15.1867 41.0933 15.4844 40.7956 15.1867Z" fill="#B6D3E1" fill-rule="nonzero" fill-opacity="1"/><path d="M5.36 15.4844 5.65778 15.7822 5.36 15.4844Z" fill="#569FC0" fill-rule="nonzero" fill-opacity="1"/><path d="M41.3911 15.4844 41.6889 15.7822 41.3911 15.4844Z" fill="#91BFD5" fill-rule="nonzero" fill-opacity="1"/><path d="M61.3422 15.4844 61.64 15.7822 61.3422 15.4844Z" fill="#569FC0" fill-rule="nonzero" fill-opacity="1"/><path d="M5.06222 15.7822 5.36 16.08 5.06222 15.7822M41.6889 15.7822 41.9867 16.08 41.6889 15.7822M61.64 15.7822 61.9378 16.08 61.64 15.7822Z" fill="#B6D3E1" fill-rule="nonzero" fill-opacity="1"/><path d="M42.2844 16.08 42.5822 16.3778 42.2844 16.08Z" fill="#569FC0" fill-rule="nonzero" fill-opacity="1"/><path d="M4.76444 16.3778 5.06222 16.6756 4.76444 16.3778Z" fill="#91BFD5" fill-rule="nonzero" fill-opacity="1"/><path d="M39.7036 16.5763 39.8031 16.7748 39.7036 16.5763Z" fill="#B6D3E1" fill-rule="nonzero" fill-opacity="1"/><path d="M42.5822 16.3778 42.88 16.6756 42.5822 16.3778M61.9378 16.3778 62.2356 16.6756 61.9378 16.3778M42.88 16.6756 43.1778 16.9733 42.88 16.6756M4.46667 16.9733 4.76444 17.2711 4.46667 16.9733Z" fill="#91BFD5" fill-rule="nonzero" fill-opacity="1"/><path d="M43.1778 16.9733 43.4756 17.2711 43.1778 16.9733Z" fill="#B6D3E1" fill-rule="nonzero" fill-opacity="1"/><path d="M62.2356 16.9733 62.5333 17.2711 62.2356 16.9733Z" fill="#91BFD5" fill-rule="nonzero" fill-opacity="1"/><path d="M4.16889 17.2711 4.46667 17.5689 4.16889 17.2711M43.4756 17.2711 43.7733 17.5689 43.4756 17.2711M62.5333 17.2711 62.8311 17.5689 62.5333 17.2711Z" fill="#B6D3E1" fill-rule="nonzero" fill-opacity="1"/><path d="M4.16889 17.5689 4.46667 17.8667 4.16889 17.5689M39.3067 17.5689 39.6044 17.8667 39.3067 17.5689Z" fill="#569FC0" fill-rule="nonzero" fill-opacity="1"/><path d="M43.7733 17.5689 44.0711 17.8667 43.7733 17.5689Z" fill="#B6D3E1" fill-rule="nonzero" fill-opacity="1"/><path d="M62.5333 17.5689 62.8311 17.8667 62.5333 17.5689Z" fill="#569FC0" fill-rule="nonzero" fill-opacity="1"/><path d="M3.87111 17.8667 4.16889 18.1644 3.87111 17.8667Z" fill="#B6D3E1" fill-rule="nonzero" fill-opacity="1"/><path d="M39.3067 17.8667 39.6044 18.1644 39.3067 17.8667Z" fill="#91BFD5" fill-rule="nonzero" fill-opacity="1"/><path d="M44.0711 17.8667 44.3689 18.1644 44.0711 17.8667M62.8311 17.8667 63.1289 18.1644 62.8311 17.8667Z" fill="#B6D3E1" fill-rule="nonzero" fill-opacity="1"/><path d="M3.87111 18.1644 4.16889 18.4622 3.87111 18.1644Z" fill="#569FC0" fill-rule="nonzero" fill-opacity="1"/><path d="M39.3067 18.1644 39.6044 18.4622 39.3067 18.1644Z" fill="#B6D3E1" fill-rule="nonzero" fill-opacity="1"/><path d="M44.3689 18.1644 44.6667 18.4622 44.3689 18.1644Z" fill="#91BFD5" fill-rule="nonzero" fill-opacity="1"/><path d="M62.8311 18.1644 63.1289 18.4622 62.8311 18.1644Z" fill="#569FC0" fill-rule="nonzero" fill-opacity="1"/><path d="M3.57333 18.4622 3.87111 18.76 3.57333 18.4622Z" fill="#B6D3E1" fill-rule="nonzero" fill-opacity="1"/><path d="M44.6667 18.4622 44.9644 18.76 44.6667 18.4622Z" fill="#91BFD5" fill-rule="nonzero" fill-opacity="1"/><path d="M63.1289 18.4622 63.4267 18.76 63.1289 18.4622Z" fill="#B6D3E1" fill-rule="nonzero" fill-opacity="1"/><path d="M3.57333 18.76 3.87111 19.0578 3.57333 18.76M44.9644 18.76 45.2622 19.0578 44.9644 18.76Z" fill="#569FC0" fill-rule="nonzero" fill-opacity="1"/><path d="M3.27556 19.0578 3.57333 19.3556 3.27556 19.0578Z" fill="#B6D3E1" fill-rule="nonzero" fill-opacity="1"/><path d="M39.0089 19.0578 39.3067 19.3556 39.0089 19.0578Z" fill="#569FC0" fill-rule="nonzero" fill-opacity="1"/><path d="M63.4267 19.0578 63.7244 19.3556 63.4267 19.0578Z" fill="#B6D3E1" fill-rule="nonzero" fill-opacity="1"/><path d="M3.27556 19.3556 3.57333 19.6533 3.27556 19.3556Z" fill="#569FC0" fill-rule="nonzero" fill-opacity="1"/><path d="M39.0089 19.3556 39.3067 19.6533 39.0089 19.3556M45.2622 19.3556 45.56 19.6533 45.2622 19.3556Z" fill="#B6D3E1" fill-rule="nonzero" fill-opacity="1"/><path d="M63.4267 19.3556 63.7244 19.6533 63.4267 19.3556Z" fill="#569FC0" fill-rule="nonzero" fill-opacity="1"/><path d="M2.97778 19.6533 3.27556 19.9511 2.97778 19.6533Z" fill="#B6D3E1" fill-rule="nonzero" fill-opacity="1"/><path d="M45.56 19.6533 45.8578 19.9511 45.56 19.6533Z" fill="#91BFD5" fill-rule="nonzero" fill-opacity="1"/><path d="M63.7244 19.6533 64.0222 19.9511 63.7244 19.6533Z" fill="#B6D3E1" fill-rule="nonzero" fill-opacity="1"/><path d="M2.97778 19.9511 3.27556 20.2489 2.97778 19.9511M38.7111 19.9511 39.0089 20.2489 38.7111 19.9511M45.8578 19.9511 46.1556 20.2489 45.8578 19.9511M63.7244 19.9511 64.0222 20.2489 63.7244 19.9511Z" fill="#569FC0" fill-rule="nonzero" fill-opacity="1"/><path d="M38.7111 20.2489 39.0089 20.5467 38.7111 20.2489M2.68 20.5467 2.97778 20.8444 2.68 20.5467M46.1556 20.5467 46.4533 20.8444 46.1556 20.5467M64.0222 20.5467 64.32 20.8444 64.0222 20.5467Z" fill="#91BFD5" fill-rule="nonzero" fill-opacity="1"/><path d="M38.4133 20.8444 38.7111 21.1422 38.4133 20.8444Z" fill="#569FC0" fill-rule="nonzero" fill-opacity="1"/><path d="M2.38222 21.1422 2.68 21.44 2.38222 21.1422Z" fill="#B6D3E1" fill-rule="nonzero" fill-opacity="1"/><path d="M16.3778 21.1422 16.3778 21.44 23.2267 21.44 16.3778 21.1422M25.3111 21.1422 25.3111 21.44 37.2222 21.44C34.092 20.1265 28.7159 21.1422 25.3111 21.1422Z" fill="#569FC0" fill-rule="nonzero" fill-opacity="1"/><path d="M38.4133 21.1422 38.7111 21.44 38.4133 21.1422M46.4533 21.1422 46.7511 21.44 46.4533 21.1422M64.32 21.1422 64.6178 21.44 64.32 21.1422Z" fill="#B6D3E1" fill-rule="nonzero" fill-opacity="1"/><path d="M2.38222 21.44 2.68 21.7378 2.38222 21.44Z" fill="#569FC0" fill-rule="nonzero" fill-opacity="1"/><path d="M16.08 21.44 16.08 28.5867 16.3778 28.5867 16.08 21.44Z" fill="#B6D3E1" fill-rule="nonzero" fill-opacity="1"/><path d="M16.3778 21.44 16.3778 28.5867 23.2267 28.5867 23.2267 21.44 16.3778 21.44Z" fill="#FEFFFF" fill-rule="nonzero" fill-opacity="1"/><path d="M23.2267 21.44 23.5244 21.7378 23.2267 21.44M24.7156 21.44 25.0133 21.7378 24.7156 21.44Z" fill="#91BFD5" fill-rule="nonzero" fill-opacity="1"/><path d="M25.0133 21.44 25.0133 28.5867C27.0517 28.5867 30.2137 29.1893 32.1082 28.407 34.2328 27.5298 36.3494 23.4629 37.2222 21.44L25.0133 21.44Z" fill="#FEFFFF" fill-rule="nonzero" fill-opacity="1"/><path d="M64.32 21.44 64.6178 21.7378 64.32 21.44Z" fill="#569FC0" fill-rule="nonzero" fill-opacity="1"/><path d="M23.2267 21.7378 23.2267 28.2889 23.5244 28.2889 23.2267 21.7378M24.7156 21.7378 24.7156 28.2889 25.0133 28.2889 24.7156 21.7378Z" fill="#B6D3E1" fill-rule="nonzero" fill-opacity="1"/><path d="M36.9244 21.7378 37.2222 22.0356 36.9244 21.7378Z" fill="#91BFD5" fill-rule="nonzero" fill-opacity="1"/><path d="M38.1156 21.7378 38.4133 22.0356 38.1156 21.7378M46.7511 21.7378 47.0489 22.0356 46.7511 21.7378Z" fill="#B6D3E1" fill-rule="nonzero" fill-opacity="1"/><path d="M2.08444 22.0356 2.38222 22.3333 2.08444 22.0356M64.6178 22.0356 64.9156 22.3333 64.6178 22.0356M36.6267 22.3333 36.9244 22.6311 36.6267 22.3333M37.8178 22.3333 38.1156 22.6311 37.8178 22.3333Z" fill="#91BFD5" fill-rule="nonzero" fill-opacity="1"/><path d="M47.0489 22.3333 47.3467 22.6311 47.0489 22.3333M1.78667 22.6311 2.08444 22.9289 1.78667 22.6311M64.9156 22.6311 65.2133 22.9289 64.9156 22.6311Z" fill="#B6D3E1" fill-rule="nonzero" fill-opacity="1"/><path d="M1.78667 22.9289 2.08444 23.2267 1.78667 22.9289Z" fill="#91BFD5" fill-rule="nonzero" fill-opacity="1"/><path d="M36.3289 22.9289 36.6267 23.2267 36.3289 22.9289Z" fill="#569FC0" fill-rule="nonzero" fill-opacity="1"/><path d="M37.52 22.9289 37.8178 23.2267 37.52 22.9289Z" fill="#B6D3E1" fill-rule="nonzero" fill-opacity="1"/><path d="M47.3467 22.9289 47.6444 23.2267 47.3467 22.9289M64.9156 22.9289 65.2133 23.2267 64.9156 22.9289Z" fill="#91BFD5" fill-rule="nonzero" fill-opacity="1"/><path d="M1.78667 23.2267 2.08444 23.5244 1.78667 23.2267Z" fill="#569FC0" fill-rule="nonzero" fill-opacity="1"/><path d="M36.0311 23.2267 36.3289 23.5244 36.0311 23.2267Z" fill="#B6D3E1" fill-rule="nonzero" fill-opacity="1"/><path d="M64.9156 23.2267 65.2133 23.5244 64.9156 23.2267Z" fill="#569FC0" fill-rule="nonzero" fill-opacity="1"/><path d="M37.2222 23.5244 37.52 23.8222 37.2222 23.5244Z" fill="#B6D3E1" fill-rule="nonzero" fill-opacity="1"/><path d="M1.48889 23.8222 1.78667 24.12 1.48889 23.8222Z" fill="#91BFD5" fill-rule="nonzero" fill-opacity="1"/><path d="M35.7333 23.8222 36.0311 24.12 35.7333 23.8222M36.9244 23.8222 37.2222 24.12 36.9244 23.8222Z" fill="#569FC0" fill-rule="nonzero" fill-opacity="1"/><path d="M47.6444 23.8222 47.9422 24.12 47.6444 23.8222Z" fill="#B6D3E1" fill-rule="nonzero" fill-opacity="1"/><path d="M65.2133 23.8222 65.5111 24.12 65.2133 23.8222Z" fill="#91BFD5" fill-rule="nonzero" fill-opacity="1"/><path d="M1.48889 24.12 1.78667 24.4178 1.48889 24.12Z" fill="#569FC0" fill-rule="nonzero" fill-opacity="1"/><path d="M35.4356 24.12 35.7333 24.4178 35.4356 24.12Z" fill="#B6D3E1" fill-rule="nonzero" fill-opacity="1"/><path d="M65.2133 24.12 65.5111 24.4178 65.2133 24.12Z" fill="#569FC0" fill-rule="nonzero" fill-opacity="1"/><path d="M36.6267 24.4178 36.9244 24.7156 36.6267 24.4178M1.19111 24.7156 1.48889 25.0133 1.19111 24.7156Z" fill="#B6D3E1" fill-rule="nonzero" fill-opacity="1"/><path d="M36.3289 24.7156 36.6267 25.0133 36.3289 24.7156Z" fill="#569FC0" fill-rule="nonzero" fill-opacity="1"/><path d="M47.9422 24.7156 48.24 25.0133 47.9422 24.7156Z" fill="#91BFD5" fill-rule="nonzero" fill-opacity="1"/><path d="M65.5111 24.7156 65.8089 25.0133 65.5111 24.7156Z" fill="#B6D3E1" fill-rule="nonzero" fill-opacity="1"/><path d="M1.19111 25.0133 1.48889 25.3111 1.19111 25.0133M34.84 25.0133 35.1378 25.3111 34.84 25.0133Z" fill="#91BFD5" fill-rule="nonzero" fill-opacity="1"/><path d="M47.9422 25.0133 48.24 25.3111 47.9422 25.0133Z" fill="#B6D3E1" fill-rule="nonzero" fill-opacity="1"/><path d="M65.5111 25.0133 65.8089 25.3111 65.5111 25.0133Z" fill="#91BFD5" fill-rule="nonzero" fill-opacity="1"/><path d="M34.5422 25.3111 34.84 25.6089 34.5422 25.3111M36.0311 25.3111 36.3289 25.6089 36.0311 25.3111Z" fill="#B6D3E1" fill-rule="nonzero" fill-opacity="1"/><path d="M35.7333 25.6089 36.0311 25.9067 35.7333 25.6089Z" fill="#91BFD5" fill-rule="nonzero" fill-opacity="1"/><path d="M48.24 25.6089 48.5378 25.9067 48.24 25.6089Z" fill="#569FC0" fill-rule="nonzero" fill-opacity="1"/><path d="M0.893333 25.9067 1.19111 26.2044 0.893333 25.9067Z" fill="#B6D3E1" fill-rule="nonzero" fill-opacity="1"/><path d="M35.4356 25.9067 35.7333 26.2044 35.4356 25.9067Z" fill="#569FC0" fill-rule="nonzero" fill-opacity="1"/><path d="M48.24 25.9067 48.5378 26.2044 48.24 25.9067Z" fill="#91BFD5" fill-rule="nonzero" fill-opacity="1"/><path d="M65.8089 25.9067 66.1067 26.2044 65.8089 25.9067Z" fill="#B6D3E1" fill-rule="nonzero" fill-opacity="1"/><path d="M0.893333 26.2044 1.19111 26.5022 0.893333 26.2044Z" fill="#91BFD5" fill-rule="nonzero" fill-opacity="1"/><path d="M33.9467 26.2044 34.2444 26.5022 33.9467 26.2044Z" fill="#569FC0" fill-rule="nonzero" fill-opacity="1"/><path d="M48.24 26.2044 48.5378 26.5022 48.24 26.2044Z" fill="#B6D3E1" fill-rule="nonzero" fill-opacity="1"/><path d="M65.8089 26.2044 66.1067 26.5022 65.8089 26.2044Z" fill="#91BFD5" fill-rule="nonzero" fill-opacity="1"/><path d="M0.893333 26.5022 1.19111 26.8 0.893333 26.5022Z" fill="#569FC0" fill-rule="nonzero" fill-opacity="1"/><path d="M33.6489 26.5022 33.9467 26.8 33.6489 26.5022M35.1378 26.5022 35.4356 26.8 35.1378 26.5022M50.92 26.5022 51.2178 26.8 50.92 26.5022Z" fill="#B6D3E1" fill-rule="nonzero" fill-opacity="1"/><path d="M65.8089 26.5022 66.1067 26.8 65.8089 26.5022Z" fill="#569FC0" fill-rule="nonzero" fill-opacity="1"/><path d="M34.84 26.8 35.1378 27.0978 34.84 26.8M50.6222 26.8 50.92 27.0978 50.6222 26.8Z" fill="#91BFD5" fill-rule="nonzero" fill-opacity="1"/><path d="M34.5422 27.0978 34.84 27.3956 34.5422 27.0978Z" fill="#569FC0" fill-rule="nonzero" fill-opacity="1"/><path d="M50.6222 27.0978 50.92 27.3956 50.6222 27.0978M51.2178 27.0978 51.5156 27.3956 51.2178 27.0978M0.595556 27.3956 0.893333 27.6933 0.595556 27.3956Z" fill="#B6D3E1" fill-rule="nonzero" fill-opacity="1"/><path d="M33.0533 27.3956 33.3511 27.6933 33.0533 27.3956M48.5378 27.3956 48.8356 27.6933 48.5378 27.3956Z" fill="#569FC0" fill-rule="nonzero" fill-opacity="1"/><path d="M66.1067 27.3956 66.4044 27.6933 66.1067 27.3956Z" fill="#B6D3E1" fill-rule="nonzero" fill-opacity="1"/><path d="M0.595556 27.6933 0.893333 27.9911 0.595556 27.6933Z" fill="#91BFD5" fill-rule="nonzero" fill-opacity="1"/><path d="M32.7556 27.6933 33.0533 27.9911 32.7556 27.6933M34.2444 27.6933 34.5422 27.9911 34.2444 27.6933Z" fill="#B6D3E1" fill-rule="nonzero" fill-opacity="1"/><path d="M48.5378 27.6933 48.5378 28.5867 48.8356 28.5867 48.5378 27.6933M50.3244 27.6933 50.6222 27.9911 50.3244 27.6933M51.5156 27.6933 51.8133 27.9911 51.5156 27.6933M66.1067 27.6933 66.4044 27.9911 66.1067 27.6933Z" fill="#91BFD5" fill-rule="nonzero" fill-opacity="1"/><path d="M0.595556 27.9911 0.893333 28.2889 0.595556 27.9911Z" fill="#569FC0" fill-rule="nonzero" fill-opacity="1"/><path d="M33.9467 27.9911 34.2444 28.2889 33.9467 27.9911Z" fill="#91BFD5" fill-rule="nonzero" fill-opacity="1"/><path d="M66.1067 27.9911 66.4044 28.2889 66.1067 27.9911Z" fill="#569FC0" fill-rule="nonzero" fill-opacity="1"/><path d="M23.2267 28.2889 23.5244 28.5867 23.2267 28.2889Z" fill="#91BFD5" fill-rule="nonzero" fill-opacity="1"/><path d="M24.7156 28.2889 25.0133 28.5867 24.7156 28.2889M33.6489 28.2889 33.9467 28.5867 33.6489 28.2889Z" fill="#569FC0" fill-rule="nonzero" fill-opacity="1"/><path d="M50.0267 28.2889 50.3244 28.5867 50.0267 28.2889Z" fill="#B6D3E1" fill-rule="nonzero" fill-opacity="1"/><path d="M51.8133 28.2889 52.1111 28.5867 51.8133 28.2889Z" fill="#91BFD5" fill-rule="nonzero" fill-opacity="1"/><path d="M16.3778 28.5867 16.6756 28.8844 16.3778 28.5867Z" fill="#569FC0" fill-rule="nonzero" fill-opacity="1"/><path d="M48.5378 28.5867 48.5378 29.7778 48.8356 29.7778 48.5378 28.5867Z" fill="#B6D3E1" fill-rule="nonzero" fill-opacity="1"/><path d="M49.7289 28.5867 50.0267 28.8844 49.7289 28.5867Z" fill="#91BFD5" fill-rule="nonzero" fill-opacity="1"/><path d="M33.3511 28.8844 33.6489 29.1822 33.3511 28.8844Z" fill="#B6D3E1" fill-rule="nonzero" fill-opacity="1"/><path d="M49.4311 28.8844 49.7289 29.1822 49.4311 28.8844M52.1111 28.8844 52.4089 29.1822 52.1111 28.8844Z" fill="#569FC0" fill-rule="nonzero" fill-opacity="1"/><path d="M0.397036 29.3808 0.496297 29.5792 0.397036 29.3808Z" fill="#B6D3E1" fill-rule="nonzero" fill-opacity="1"/><path d="M33.0533 29.1822 33.3511 29.48 33.0533 29.1822Z" fill="#91BFD5" fill-rule="nonzero" fill-opacity="1"/><path d="M49.1333 29.1822 49.4311 29.48 49.1333 29.1822Z" fill="#569FC0" fill-rule="nonzero" fill-opacity="1"/><path d="M52.1111 29.1822 52.4089 29.48 52.1111 29.1822M66.5036 29.3808 66.6031 29.5792 66.5036 29.3808Z" fill="#B6D3E1" fill-rule="nonzero" fill-opacity="1"/><path d="M48.8356 29.48 49.1333 29.7778 48.8356 29.48M0.397036 29.9764 0.496297 30.1747 0.397036 29.9764Z" fill="#91BFD5" fill-rule="nonzero" fill-opacity="1"/><path d="M43.4756 29.7778 43.7733 30.0756 43.4756 29.7778Z" fill="#569FC0" fill-rule="nonzero" fill-opacity="1"/><path d="M43.7733 29.7778 44.0711 30.0756 43.7733 29.7778Z" fill="#B6D3E1" fill-rule="nonzero" fill-opacity="1"/><path d="M52.4089 29.7778 52.7067 30.0756 52.4089 29.7778M66.5036 29.9764 66.6031 30.1747 66.5036 29.9764Z" fill="#91BFD5" fill-rule="nonzero" fill-opacity="1"/><path d="M16.6756 30.0756 16.6756 30.3733 31.2667 30.3733C27.4992 28.7924 20.7813 30.0756 16.6756 30.0756Z" fill="#569FC0" fill-rule="nonzero" fill-opacity="1"/><path d="M32.4578 30.0756 32.7556 30.3733 32.4578 30.0756M43.8725 30.2742 43.972 30.4725 43.8725 30.2742Z" fill="#91BFD5" fill-rule="nonzero" fill-opacity="1"/><path d="M0.397036 30.572 0.496297 30.7703 0.397036 30.572Z" fill="#569FC0" fill-rule="nonzero" fill-opacity="1"/><path d="M16.08 30.3733 16.3778 30.6711 16.08 30.3733Z" fill="#91BFD5" fill-rule="nonzero" fill-opacity="1"/><path d="M16.3778 30.3733 16.3778 37.52 29.1822 37.52 30.9689 30.3733 16.3778 30.3733Z" fill="#FEFFFF" fill-rule="nonzero" fill-opacity="1"/><path d="M30.9689 30.3733 31.2667 30.6711 30.9689 30.3733Z" fill="#B6D3E1" fill-rule="nonzero" fill-opacity="1"/><path d="M52.7067 30.3733 53.0044 30.6711 52.7067 30.3733M66.5036 30.572 66.6031 30.7703 66.5036 30.572Z" fill="#569FC0" fill-rule="nonzero" fill-opacity="1"/><path d="M16.08 30.6711 16.08 37.2222 16.3778 37.2222 16.08 30.6711M32.16 30.6711 32.4578 30.9689 32.16 30.6711Z" fill="#B6D3E1" fill-rule="nonzero" fill-opacity="1"/><path d="M43.7733 30.6711 44.0711 30.9689 43.7733 30.6711Z" fill="#569FC0" fill-rule="nonzero" fill-opacity="1"/><path d="M52.7067 30.6711 53.0044 30.9689 52.7067 30.6711Z" fill="#B6D3E1" fill-rule="nonzero" fill-opacity="1"/><path d="M30.6711 30.9689 30.9689 31.2667 30.6711 30.9689Z" fill="#91BFD5" fill-rule="nonzero" fill-opacity="1"/><path d="M31.8622 30.9689 32.16 31.2667 31.8622 30.9689M53.0044 31.2667 53.3022 31.5644 53.0044 31.2667Z" fill="#569FC0" fill-rule="nonzero" fill-opacity="1"/><path d="M30.3733 31.5644 30.6711 31.8622 30.3733 31.5644Z" fill="#B6D3E1" fill-rule="nonzero" fill-opacity="1"/><path d="M31.5644 31.5644 31.8622 31.8622 31.5644 31.5644M41.6889 31.5644 41.9867 31.8622 41.6889 31.5644Z" fill="#91BFD5" fill-rule="nonzero" fill-opacity="1"/><path d="M44.0711 31.5644 44.3689 31.8622 44.0711 31.5644M53.0044 31.5644 53.3022 31.8622 53.0044 31.5644M41.3911 31.8622 41.6889 32.16 41.3911 31.8622Z" fill="#B6D3E1" fill-rule="nonzero" fill-opacity="1"/><path d="M44.0711 31.8622 44.3689 32.16 44.0711 31.8622Z" fill="#91BFD5" fill-rule="nonzero" fill-opacity="1"/><path d="M30.0756 32.16 30.3733 32.4578 30.0756 32.16Z" fill="#B6D3E1" fill-rule="nonzero" fill-opacity="1"/><path d="M31.2667 32.16 31.5644 32.4578 31.2667 32.16M53.3022 32.16 53.6 32.4578 53.3022 32.16Z" fill="#569FC0" fill-rule="nonzero" fill-opacity="1"/><path d="M30.0756 32.4578 30.3733 32.7556 30.0756 32.4578Z" fill="#91BFD5" fill-rule="nonzero" fill-opacity="1"/><path d="M31.2667 32.4578 31.5644 32.7556 31.2667 32.4578Z" fill="#B6D3E1" fill-rule="nonzero" fill-opacity="1"/><path d="M41.0933 32.4578 41.3911 32.7556 41.0933 32.4578M53.3022 32.4578 53.6 32.7556 53.3022 32.4578M44.3689 32.7556 44.6667 33.0533 44.3689 32.7556Z" fill="#91BFD5" fill-rule="nonzero" fill-opacity="1"/><path d="M29.7778 33.0533 30.0756 33.3511 29.7778 33.0533Z" fill="#B6D3E1" fill-rule="nonzero" fill-opacity="1"/><path d="M30.9689 33.0533 31.2667 33.3511 30.9689 33.0533M40.7956 33.0533 41.0933 33.3511 40.7956 33.0533M29.7778 33.3511 30.0756 33.6489 29.7778 33.3511Z" fill="#91BFD5" fill-rule="nonzero" fill-opacity="1"/><path d="M30.9689 33.3511 31.2667 33.6489 30.9689 33.3511M44.6667 33.3511 44.9644 33.6489 44.6667 33.3511Z" fill="#B6D3E1" fill-rule="nonzero" fill-opacity="1"/><path d="M53.6 33.3511 53.8978 33.6489 53.6 33.3511Z" fill="#91BFD5" fill-rule="nonzero" fill-opacity="1"/><path d="M40.4978 33.6489 40.7956 33.9467 40.4978 33.6489Z" fill="#B6D3E1" fill-rule="nonzero" fill-opacity="1"/><path d="M44.6667 33.6489 44.9644 33.9467 44.6667 33.6489Z" fill="#569FC0" fill-rule="nonzero" fill-opacity="1"/><path d="M53.6 33.6489 53.8978 33.9467 53.6 33.6489Z" fill="#B6D3E1" fill-rule="nonzero" fill-opacity="1"/><path d="M30.6711 33.9467 30.9689 34.2444 30.6711 33.9467Z" fill="#569FC0" fill-rule="nonzero" fill-opacity="1"/><path d="M29.48 34.2444 29.7778 34.5422 29.48 34.2444M30.7703 34.4431 30.8697 34.6414 30.7703 34.4431Z" fill="#B6D3E1" fill-rule="nonzero" fill-opacity="1"/><path d="M44.9644 34.2444 45.2622 34.5422 44.9644 34.2444Z" fill="#569FC0" fill-rule="nonzero" fill-opacity="1"/><path d="M29.48 34.5422 29.7778 34.84 29.48 34.5422M40.2 34.5422 40.4978 34.84 40.2 34.5422Z" fill="#91BFD5" fill-rule="nonzero" fill-opacity="1"/><path d="M45.2622 34.5422 45.56 34.84 45.2622 34.5422Z" fill="#B6D3E1" fill-rule="nonzero" fill-opacity="1"/><path d="M53.8978 34.5422 54.1956 34.84 53.8978 34.5422M29.48 34.84 29.7778 35.1378 29.48 34.84Z" fill="#569FC0" fill-rule="nonzero" fill-opacity="1"/><path d="M53.8978 34.84 54.1956 35.1378 53.8978 34.84M45.56 35.1378 45.8578 35.4356 45.56 35.1378Z" fill="#91BFD5" fill-rule="nonzero" fill-opacity="1"/><path d="M53.8978 35.1378 54.1956 35.4356 53.8978 35.1378Z" fill="#B6D3E1" fill-rule="nonzero" fill-opacity="1"/><path d="M30.3733 35.4356 30.6711 35.7333 30.3733 35.4356Z" fill="#569FC0" fill-rule="nonzero" fill-opacity="1"/><path d="M39.9022 35.4356 40.2 35.7333 39.9022 35.4356M45.8578 35.4356 46.1556 35.7333 45.8578 35.4356Z" fill="#B6D3E1" fill-rule="nonzero" fill-opacity="1"/><path d="M30.4725 35.9319 30.572 36.1303 30.4725 35.9319M39.9022 35.7333 40.2 36.0311 39.9022 35.7333Z" fill="#91BFD5" fill-rule="nonzero" fill-opacity="1"/><path d="M0.397036 36.2297 0.496297 36.428 0.397036 36.2297Z" fill="#569FC0" fill-rule="nonzero" fill-opacity="1"/><path d="M46.1556 36.0311 46.4533 36.3289 46.1556 36.0311Z" fill="#91BFD5" fill-rule="nonzero" fill-opacity="1"/><path d="M29.1822 36.3289 29.1822 37.52 29.48 37.52 29.1822 36.3289M30.3733 36.3289 30.3733 38.4133 30.6711 38.4133 30.3733 36.3289M46.4533 36.3289 46.7511 36.6267 46.4533 36.3289Z" fill="#B6D3E1" fill-rule="nonzero" fill-opacity="1"/><path d="M54.2947 36.5275 54.3942 36.7258 54.2947 36.5275Z" fill="#569FC0" fill-rule="nonzero" fill-opacity="1"/><path d="M0.397036 36.8253 0.496297 37.0236 0.397036 36.8253Z" fill="#91BFD5" fill-rule="nonzero" fill-opacity="1"/><path d="M66.4044 36.6267 66.7022 36.9244 66.4044 36.6267Z" fill="#569FC0" fill-rule="nonzero" fill-opacity="1"/><path d="M36.9244 36.9244 37.2222 37.2222 36.9244 36.9244Z" fill="#91BFD5" fill-rule="nonzero" fill-opacity="1"/><path d="M37.3214 37.1231 37.4208 37.3214 37.3214 37.1231M39.6044 36.9244 39.9022 37.2222 39.6044 36.9244Z" fill="#B6D3E1" fill-rule="nonzero" fill-opacity="1"/><path d="M54.1956 36.9244 54.1956 37.8178 54.4933 37.8178 54.1956 36.9244M66.5036 37.1231 66.6031 37.3214 66.5036 37.1231Z" fill="#91BFD5" fill-rule="nonzero" fill-opacity="1"/><path d="M0.397036 37.4208 0.496297 37.6192 0.397036 37.4208Z" fill="#B6D3E1" fill-rule="nonzero" fill-opacity="1"/><path d="M16.08 37.2222 16.3778 37.52 16.08 37.2222Z" fill="#569FC0" fill-rule="nonzero" fill-opacity="1"/><path d="M39.6044 37.2222 39.6044 38.1156 39.9022 38.1156 39.6044 37.2222M47.0489 37.2222 47.3467 37.52 47.0489 37.2222M36.6267 37.52 36.9244 37.8178 36.6267 37.52M37.2222 37.52 37.52 37.8178 37.2222 37.52Z" fill="#91BFD5" fill-rule="nonzero" fill-opacity="1"/><path d="M47.3467 37.52 47.6444 37.8178 47.3467 37.52M66.5036 37.7186 66.6031 37.9169 66.5036 37.7186Z" fill="#B6D3E1" fill-rule="nonzero" fill-opacity="1"/><path d="M37.2222 37.8178 37.52 38.1156 37.2222 37.8178Z" fill="#569FC0" fill-rule="nonzero" fill-opacity="1"/><path d="M54.2947 38.0164 54.3942 38.2147 54.2947 38.0164Z" fill="#B6D3E1" fill-rule="nonzero" fill-opacity="1"/><path d="M36.3289 38.1156 36.6267 38.4133 36.3289 38.1156Z" fill="#91BFD5" fill-rule="nonzero" fill-opacity="1"/><path d="M39.6044 38.1156 39.6044 39.6044 39.9022 39.6044 39.6044 38.1156Z" fill="#569FC0" fill-rule="nonzero" fill-opacity="1"/><path d="M30.4725 38.612 30.572 38.8103 30.4725 38.612Z" fill="#91BFD5" fill-rule="nonzero" fill-opacity="1"/><path d="M37.52 38.4133 37.8178 38.7111 37.52 38.4133Z" fill="#B6D3E1" fill-rule="nonzero" fill-opacity="1"/><path d="M47.9422 38.4133 48.24 38.7111 47.9422 38.4133M54.1956 38.4133 54.1956 39.3067 54.4933 39.3067 54.1956 38.4133Z" fill="#91BFD5" fill-rule="nonzero" fill-opacity="1"/><path d="M0.595556 38.7111 0.893333 39.0089 0.595556 38.7111Z" fill="#569FC0" fill-rule="nonzero" fill-opacity="1"/><path d="M36.0311 38.7111 36.3289 39.0089 36.0311 38.7111Z" fill="#91BFD5" fill-rule="nonzero" fill-opacity="1"/><path d="M37.52 38.7111 37.8178 39.0089 37.52 38.7111M66.1067 38.7111 66.4044 39.0089 66.1067 38.7111Z" fill="#569FC0" fill-rule="nonzero" fill-opacity="1"/><path d="M0.595556 39.0089 0.893333 39.3067 0.595556 39.0089Z" fill="#91BFD5" fill-rule="nonzero" fill-opacity="1"/><path d="M16.3778 39.0089 16.3778 39.3067 23.2267 39.3067 16.3778 39.0089M25.0133 39.0089 25.0133 39.3067 29.48 39.3067 25.0133 39.0089M30.3733 39.0089 30.6711 39.3067 30.3733 39.0089Z" fill="#569FC0" fill-rule="nonzero" fill-opacity="1"/><path d="M37.8178 39.0089 38.1156 39.3067 37.8178 39.0089Z" fill="#B6D3E1" fill-rule="nonzero" fill-opacity="1"/><path d="M48.24 39.0089 48.5378 39.3067 48.24 39.0089Z" fill="#569FC0" fill-rule="nonzero" fill-opacity="1"/><path d="M66.1067 39.0089 66.4044 39.3067 66.1067 39.0089Z" fill="#91BFD5" fill-rule="nonzero" fill-opacity="1"/><path d="M0.595556 39.3067 0.893333 39.6044 0.595556 39.3067M16.08 39.3067 16.08 46.4533 16.3778 46.4533 16.08 39.3067Z" fill="#B6D3E1" fill-rule="nonzero" fill-opacity="1"/><path d="M16.3778 39.3067 16.3778 46.4533 23.2267 46.4533 23.2267 39.3067 16.3778 39.3067Z" fill="#FEFFFF" fill-rule="nonzero" fill-opacity="1"/><path d="M23.2267 39.3067 23.2267 46.1556 23.5244 46.1556 23.2267 39.3067Z" fill="#B6D3E1" fill-rule="nonzero" fill-opacity="1"/><path d="M24.7156 39.3067 25.0133 39.6044 24.7156 39.3067Z" fill="#91BFD5" fill-rule="nonzero" fill-opacity="1"/><path d="M25.0133 39.3067 25.0133 46.4533 32.4578 46.4533 29.48 39.3067 25.0133 39.3067Z" fill="#FEFFFF" fill-rule="nonzero" fill-opacity="1"/><path d="M54.1956 39.3067 54.4933 39.6044 54.1956 39.3067Z" fill="#569FC0" fill-rule="nonzero" fill-opacity="1"/><path d="M66.2058 39.5053 66.3053 39.7036 66.2058 39.5053M24.7156 39.6044 24.7156 46.1556 25.0133 46.1556 24.7156 39.6044Z" fill="#B6D3E1" fill-rule="nonzero" fill-opacity="1"/><path d="M29.48 39.6044 29.7778 39.9022 29.48 39.6044Z" fill="#569FC0" fill-rule="nonzero" fill-opacity="1"/><path d="M35.7333 39.6044 36.0311 39.9022 35.7333 39.6044Z" fill="#91BFD5" fill-rule="nonzero" fill-opacity="1"/><path d="M38.1156 39.6044 38.4133 39.9022 38.1156 39.6044Z" fill="#569FC0" fill-rule="nonzero" fill-opacity="1"/><path d="M39.6044 39.6044 39.6044 40.4978 39.9022 40.4978 39.6044 39.6044Z" fill="#91BFD5" fill-rule="nonzero" fill-opacity="1"/><path d="M48.5378 39.6044 48.8356 39.9022 48.5378 39.6044Z" fill="#569FC0" fill-rule="nonzero" fill-opacity="1"/><path d="M29.48 39.9022 29.7778 40.2 29.48 39.9022Z" fill="#91BFD5" fill-rule="nonzero" fill-opacity="1"/><path d="M35.7333 39.9022 36.0311 40.2 35.7333 39.9022Z" fill="#569FC0" fill-rule="nonzero" fill-opacity="1"/><path d="M38.4133 39.9022 38.7111 40.2 38.4133 39.9022Z" fill="#91BFD5" fill-rule="nonzero" fill-opacity="1"/><path d="M0.893333 40.2 1.19111 40.4978 0.893333 40.2Z" fill="#569FC0" fill-rule="nonzero" fill-opacity="1"/><path d="M29.48 40.2 29.7778 40.4978 29.48 40.2M30.6711 40.2 30.9689 40.4978 30.6711 40.2Z" fill="#B6D3E1" fill-rule="nonzero" fill-opacity="1"/><path d="M38.7111 40.2 39.0089 40.4978 38.7111 40.2Z" fill="#569FC0" fill-rule="nonzero" fill-opacity="1"/><path d="M48.8356 40.2 49.1333 40.4978 48.8356 40.2Z" fill="#91BFD5" fill-rule="nonzero" fill-opacity="1"/><path d="M53.8978 40.2 54.1956 40.4978 53.8978 40.2Z" fill="#B6D3E1" fill-rule="nonzero" fill-opacity="1"/><path d="M0.893333 40.4978 1.19111 40.7956 0.893333 40.4978M30.6711 40.4978 30.9689 40.7956 30.6711 40.4978Z" fill="#91BFD5" fill-rule="nonzero" fill-opacity="1"/><path d="M35.4356 40.4978 35.7333 40.7956 35.4356 40.4978M39.6044 40.4978 39.9022 40.7956 39.6044 40.4978Z" fill="#B6D3E1" fill-rule="nonzero" fill-opacity="1"/><path d="M53.8978 40.4978 54.1956 40.7956 53.8978 40.4978Z" fill="#569FC0" fill-rule="nonzero" fill-opacity="1"/><path d="M65.8089 40.4978 66.1067 40.7956 65.8089 40.4978Z" fill="#91BFD5" fill-rule="nonzero" fill-opacity="1"/><path d="M0.893333 40.7956 1.19111 41.0933 0.893333 40.7956Z" fill="#B6D3E1" fill-rule="nonzero" fill-opacity="1"/><path d="M35.5347 40.9942 35.6342 41.1925 35.5347 40.9942Z" fill="#91BFD5" fill-rule="nonzero" fill-opacity="1"/><path d="M39.6044 40.7956 39.9022 41.0933 39.6044 40.7956Z" fill="#569FC0" fill-rule="nonzero" fill-opacity="1"/><path d="M65.8089 40.7956 66.1067 41.0933 65.8089 40.7956Z" fill="#B6D3E1" fill-rule="nonzero" fill-opacity="1"/><path d="M29.7778 41.0933 30.0756 41.3911 29.7778 41.0933Z" fill="#569FC0" fill-rule="nonzero" fill-opacity="1"/><path d="M49.1333 41.0933 49.4311 41.3911 49.1333 41.0933M53.6 41.0933 53.8978 41.3911 53.6 41.0933M29.7778 41.3911 30.0756 41.6889 29.7778 41.3911Z" fill="#B6D3E1" fill-rule="nonzero" fill-opacity="1"/><path d="M30.9689 41.3911 31.2667 41.6889 30.9689 41.3911Z" fill="#91BFD5" fill-rule="nonzero" fill-opacity="1"/><path d="M35.4356 41.3911 35.7333 41.6889 35.4356 41.3911Z" fill="#569FC0" fill-rule="nonzero" fill-opacity="1"/><path d="M49.1333 41.3911 49.4311 41.6889 49.1333 41.3911M53.6 41.3911 53.8978 41.6889 53.6 41.3911M1.19111 41.6889 1.48889 41.9867 1.19111 41.6889Z" fill="#91BFD5" fill-rule="nonzero" fill-opacity="1"/><path d="M49.1333 41.6889 49.4311 41.9867 49.1333 41.6889M65.5111 41.6889 65.8089 41.9867 65.5111 41.6889Z" fill="#569FC0" fill-rule="nonzero" fill-opacity="1"/><path d="M1.19111 41.9867 1.48889 42.2844 1.19111 41.9867Z" fill="#B6D3E1" fill-rule="nonzero" fill-opacity="1"/><path d="M30.0756 41.9867 30.3733 42.2844 30.0756 41.9867Z" fill="#569FC0" fill-rule="nonzero" fill-opacity="1"/><path d="M31.2667 41.9867 31.5644 42.2844 31.2667 41.9867M53.3022 41.9867 53.6 42.2844 53.3022 41.9867M65.5111 41.9867 65.8089 42.2844 65.5111 41.9867M30.0756 42.2844 30.3733 42.5822 30.0756 42.2844Z" fill="#B6D3E1" fill-rule="nonzero" fill-opacity="1"/><path d="M31.2667 42.2844 31.5644 42.5822 31.2667 42.2844M53.3022 42.2844 53.6 42.5822 53.3022 42.2844M1.48889 42.5822 1.78667 42.88 1.48889 42.5822Z" fill="#569FC0" fill-rule="nonzero" fill-opacity="1"/><path d="M1.48889 42.88 1.78667 43.1778 1.48889 42.88Z" fill="#91BFD5" fill-rule="nonzero" fill-opacity="1"/><path d="M30.3733 42.88 30.6711 43.1778 30.3733 42.88Z" fill="#B6D3E1" fill-rule="nonzero" fill-opacity="1"/><path d="M31.5644 42.88 31.8622 43.1778 31.5644 42.88Z" fill="#91BFD5" fill-rule="nonzero" fill-opacity="1"/><path d="M53.0044 42.88 53.3022 43.1778 53.0044 42.88Z" fill="#569FC0" fill-rule="nonzero" fill-opacity="1"/><path d="M65.2133 42.88 65.5111 43.1778 65.2133 42.88Z" fill="#91BFD5" fill-rule="nonzero" fill-opacity="1"/><path d="M52.7067 43.1778 53.0044 43.4756 52.7067 43.1778M65.2133 43.1778 65.5111 43.4756 65.2133 43.1778Z" fill="#B6D3E1" fill-rule="nonzero" fill-opacity="1"/><path d="M1.78667 43.4756 2.08444 43.7733 1.78667 43.4756Z" fill="#569FC0" fill-rule="nonzero" fill-opacity="1"/><path d="M30.6711 43.4756 30.9689 43.7733 30.6711 43.4756Z" fill="#91BFD5" fill-rule="nonzero" fill-opacity="1"/><path d="M31.8622 43.4756 32.16 43.7733 31.8622 43.4756Z" fill="#569FC0" fill-rule="nonzero" fill-opacity="1"/><path d="M1.78667 43.7733 2.08444 44.0711 1.78667 43.7733Z" fill="#91BFD5" fill-rule="nonzero" fill-opacity="1"/><path d="M32.16 43.7733 32.4578 44.0711 32.16 43.7733Z" fill="#B6D3E1" fill-rule="nonzero" fill-opacity="1"/><path d="M49.1333 43.7733 49.4311 44.0711 49.1333 43.7733Z" fill="#569FC0" fill-rule="nonzero" fill-opacity="1"/><path d="M52.4089 43.7733 52.7067 44.0711 52.4089 43.7733Z" fill="#B6D3E1" fill-rule="nonzero" fill-opacity="1"/><path d="M64.9156 43.7733 65.2133 44.0711 64.9156 43.7733Z" fill="#91BFD5" fill-rule="nonzero" fill-opacity="1"/><path d="M30.9689 44.0711 31.2667 44.3689 30.9689 44.0711Z" fill="#B6D3E1" fill-rule="nonzero" fill-opacity="1"/><path d="M35.4356 44.0711 35.7333 44.3689 35.4356 44.0711Z" fill="#569FC0" fill-rule="nonzero" fill-opacity="1"/><path d="M49.1333 44.0711 49.4311 44.3689 49.1333 44.0711Z" fill="#91BFD5" fill-rule="nonzero" fill-opacity="1"/><path d="M64.9156 44.0711 65.2133 44.3689 64.9156 44.0711Z" fill="#B6D3E1" fill-rule="nonzero" fill-opacity="1"/><path d="M31.2667 44.3689 31.5644 44.6667 31.2667 44.3689Z" fill="#569FC0" fill-rule="nonzero" fill-opacity="1"/><path d="M32.4578 44.3689 32.7556 44.6667 32.4578 44.3689M35.4356 44.3689 35.7333 44.6667 35.4356 44.3689Z" fill="#91BFD5" fill-rule="nonzero" fill-opacity="1"/><path d="M49.1333 44.3689 49.4311 44.6667 49.1333 44.3689Z" fill="#B6D3E1" fill-rule="nonzero" fill-opacity="1"/><path d="M52.1111 44.3689 52.4089 44.6667 52.1111 44.3689Z" fill="#569FC0" fill-rule="nonzero" fill-opacity="1"/><path d="M2.08444 44.6667 2.38222 44.9644 2.08444 44.6667Z" fill="#91BFD5" fill-rule="nonzero" fill-opacity="1"/><path d="M32.7556 44.6667 33.0533 44.9644 32.7556 44.6667M35.4356 44.6667 35.7333 44.9644 35.4356 44.6667Z" fill="#B6D3E1" fill-rule="nonzero" fill-opacity="1"/><path d="M51.8133 44.6667 52.1111 44.9644 51.8133 44.6667M64.6178 44.6667 64.9156 44.9644 64.6178 44.6667Z" fill="#91BFD5" fill-rule="nonzero" fill-opacity="1"/><path d="M31.5644 44.9644 31.8622 45.2622 31.5644 44.9644M51.5156 44.9644 51.8133 45.2622 51.5156 44.9644Z" fill="#B6D3E1" fill-rule="nonzero" fill-opacity="1"/><path d="M2.38222 45.2622 2.68 45.56 2.38222 45.2622M31.8622 45.2622 32.16 45.56 31.8622 45.2622M35.7333 45.2622 36.0311 45.56 35.7333 45.2622Z" fill="#569FC0" fill-rule="nonzero" fill-opacity="1"/><path d="M48.8356 45.2622 49.1333 45.56 48.8356 45.2622Z" fill="#91BFD5" fill-rule="nonzero" fill-opacity="1"/><path d="M2.38222 45.56 2.68 45.8578 2.38222 45.56Z" fill="#B6D3E1" fill-rule="nonzero" fill-opacity="1"/><path d="M33.3511 45.56 33.6489 45.8578 33.3511 45.56Z" fill="#569FC0" fill-rule="nonzero" fill-opacity="1"/><path d="M35.7333 45.56 36.0311 45.8578 35.7333 45.56M64.32 45.56 64.6178 45.8578 64.32 45.56Z" fill="#B6D3E1" fill-rule="nonzero" fill-opacity="1"/><path d="M33.6489 45.8578 33.9467 46.1556 33.6489 45.8578M48.5378 45.8578 48.8356 46.1556 48.5378 45.8578Z" fill="#569FC0" fill-rule="nonzero" fill-opacity="1"/><path d="M2.68 46.1556 2.97778 46.4533 2.68 46.1556M23.2267 46.1556 23.5244 46.4533 23.2267 46.1556Z" fill="#91BFD5" fill-rule="nonzero" fill-opacity="1"/><path d="M24.7156 46.1556 25.0133 46.4533 24.7156 46.1556Z" fill="#569FC0" fill-rule="nonzero" fill-opacity="1"/><path d="M32.4578 46.1556 32.7556 46.4533 32.4578 46.1556Z" fill="#B6D3E1" fill-rule="nonzero" fill-opacity="1"/><path d="M33.9467 46.1556 34.2444 46.4533 33.9467 46.1556Z" fill="#569FC0" fill-rule="nonzero" fill-opacity="1"/><path d="M36.0311 46.1556 36.3289 46.4533 36.0311 46.1556M48.5378 46.1556 48.8356 46.4533 48.5378 46.1556Z" fill="#B6D3E1" fill-rule="nonzero" fill-opacity="1"/><path d="M64.0222 46.1556 64.32 46.4533 64.0222 46.1556Z" fill="#91BFD5" fill-rule="nonzero" fill-opacity="1"/><path d="M48.24 46.4533 48.5378 46.7511 48.24 46.4533M2.97778 46.7511 3.27556 47.0489 2.97778 46.7511Z" fill="#569FC0" fill-rule="nonzero" fill-opacity="1"/><path d="M34.84 46.7511 35.1378 47.0489 34.84 46.7511M36.3289 46.7511 36.6267 47.0489 36.3289 46.7511M49.7289 46.7511 50.0267 47.0489 49.7289 46.7511Z" fill="#B6D3E1" fill-rule="nonzero" fill-opacity="1"/><path d="M63.7244 46.7511 64.0222 47.0489 63.7244 46.7511Z" fill="#569FC0" fill-rule="nonzero" fill-opacity="1"/><path d="M2.97778 47.0489 3.27556 47.3467 2.97778 47.0489Z" fill="#B6D3E1" fill-rule="nonzero" fill-opacity="1"/><path d="M35.1378 47.0489 35.4356 47.3467 35.1378 47.0489M36.6267 47.0489 36.9244 47.3467 36.6267 47.0489Z" fill="#91BFD5" fill-rule="nonzero" fill-opacity="1"/><path d="M47.9422 47.0489 48.24 47.3467 47.9422 47.0489Z" fill="#B6D3E1" fill-rule="nonzero" fill-opacity="1"/><path d="M49.4311 47.0489 49.7289 47.3467 49.4311 47.0489Z" fill="#91BFD5" fill-rule="nonzero" fill-opacity="1"/><path d="M63.7244 47.0489 64.0222 47.3467 63.7244 47.0489Z" fill="#B6D3E1" fill-rule="nonzero" fill-opacity="1"/><path d="M3.27556 47.3467 3.57333 47.6444 3.27556 47.3467Z" fill="#569FC0" fill-rule="nonzero" fill-opacity="1"/><path d="M35.7333 47.3467 36.0311 47.6444 35.7333 47.3467Z" fill="#B6D3E1" fill-rule="nonzero" fill-opacity="1"/><path d="M36.9244 47.3467 37.2222 47.6444 36.9244 47.3467M47.6444 47.3467 47.9422 47.6444 47.6444 47.3467M49.1333 47.3467 49.4311 47.6444 49.1333 47.3467Z" fill="#569FC0" fill-rule="nonzero" fill-opacity="1"/><path d="M3.27556 47.6444 3.57333 47.9422 3.27556 47.6444M36.3289 47.6444 36.6267 47.9422 36.3289 47.6444Z" fill="#B6D3E1" fill-rule="nonzero" fill-opacity="1"/><path d="M48.5378 47.6444 48.8356 47.9422 48.5378 47.6444Z" fill="#91BFD5" fill-rule="nonzero" fill-opacity="1"/><path d="M63.4267 47.6444 63.7244 47.9422 63.4267 47.6444Z" fill="#B6D3E1" fill-rule="nonzero" fill-opacity="1"/><path d="M3.57333 47.9422 3.87111 48.24 3.57333 47.9422M36.6267 47.9422 36.9244 48.24 36.6267 47.9422Z" fill="#569FC0" fill-rule="nonzero" fill-opacity="1"/><path d="M36.9244 47.9422 37.2222 48.24 36.9244 47.9422Z" fill="#B6D3E1" fill-rule="nonzero" fill-opacity="1"/><path d="M47.9422 47.9422 48.24 48.24 47.9422 47.9422Z" fill="#91BFD5" fill-rule="nonzero" fill-opacity="1"/><path d="M3.57333 48.24 3.87111 48.5378 3.57333 48.24M47.0489 48.24 47.3467 48.5378 47.0489 48.24Z" fill="#B6D3E1" fill-rule="nonzero" fill-opacity="1"/><path d="M47.3467 48.24 47.6444 48.5378 47.3467 48.24Z" fill="#91BFD5" fill-rule="nonzero" fill-opacity="1"/><path d="M63.1289 48.24 63.4267 48.5378 63.1289 48.24Z" fill="#B6D3E1" fill-rule="nonzero" fill-opacity="1"/><path d="M3.87111 48.5378 4.16889 48.8356 3.87111 48.5378Z" fill="#569FC0" fill-rule="nonzero" fill-opacity="1"/><path d="M3.87111 48.8356 4.16889 49.1333 3.87111 48.8356M62.8311 48.8356 63.1289 49.1333 62.8311 48.8356Z" fill="#B6D3E1" fill-rule="nonzero" fill-opacity="1"/><path d="M4.16889 49.1333 4.46667 49.4311 4.16889 49.1333Z" fill="#569FC0" fill-rule="nonzero" fill-opacity="1"/><path d="M4.16889 49.4311 4.46667 49.7289 4.16889 49.4311M62.5333 49.4311 62.8311 49.7289 62.5333 49.4311Z" fill="#B6D3E1" fill-rule="nonzero" fill-opacity="1"/><path d="M4.46667 49.7289 4.76444 50.0267 4.46667 49.7289Z" fill="#91BFD5" fill-rule="nonzero" fill-opacity="1"/><path d="M62.2356 49.7289 62.5333 50.0267 62.2356 49.7289Z" fill="#569FC0" fill-rule="nonzero" fill-opacity="1"/><path d="M4.76444 50.3244 5.06222 50.6222 4.76444 50.3244M61.9378 50.3244 62.2356 50.6222 61.9378 50.3244Z" fill="#91BFD5" fill-rule="nonzero" fill-opacity="1"/><path d="M5.06222 50.92 5.36 51.2178 5.06222 50.92M61.64 50.92 61.9378 51.2178 61.64 50.92Z" fill="#B6D3E1" fill-rule="nonzero" fill-opacity="1"/><path d="M5.36 51.2178 5.65778 51.5156 5.36 51.2178M61.3422 51.2178 61.64 51.5156 61.3422 51.2178Z" fill="#569FC0" fill-rule="nonzero" fill-opacity="1"/><path d="M5.65778 51.8133 5.95556 52.1111 5.65778 51.8133Z" fill="#B6D3E1" fill-rule="nonzero" fill-opacity="1"/><path d="M61.0444 51.8133 61.3422 52.1111 61.0444 51.8133Z" fill="#91BFD5" fill-rule="nonzero" fill-opacity="1"/><path d="M5.95556 52.1111 6.25333 52.4089 5.95556 52.1111M60.7467 52.1111 61.0444 52.4089 60.7467 52.1111Z" fill="#569FC0" fill-rule="nonzero" fill-opacity="1"/><path d="M6.25333 52.7067 6.55111 53.0044 6.25333 52.7067M60.4489 52.7067 60.7467 53.0044 60.4489 52.7067Z" fill="#B6D3E1" fill-rule="nonzero" fill-opacity="1"/><path d="M6.55111 53.0044 6.84889 53.3022 6.55111 53.0044Z" fill="#91BFD5" fill-rule="nonzero" fill-opacity="1"/><path d="M60.1511 53.0044 60.4489 53.3022 60.1511 53.0044M6.84889 53.3022 7.14667 53.6 6.84889 53.3022Z" fill="#569FC0" fill-rule="nonzero" fill-opacity="1"/><path d="M7.14667 53.8978 7.44444 54.1956 7.14667 53.8978M59.5556 53.8978 59.8533 54.1956 59.5556 53.8978Z" fill="#B6D3E1" fill-rule="nonzero" fill-opacity="1"/><path d="M7.44444 54.1956 7.74222 54.4933 7.44444 54.1956M59.2578 54.1956 59.5556 54.4933 59.2578 54.1956Z" fill="#91BFD5" fill-rule="nonzero" fill-opacity="1"/><path d="M7.74222 54.4933 8.04 54.7911 7.74222 54.4933M58.96 54.4933 59.2578 54.7911 58.96 54.4933M8.04 54.7911 8.33778 55.0889 8.04 54.7911Z" fill="#569FC0" fill-rule="nonzero" fill-opacity="1"/><path d="M58.3644 55.3867 58.6622 55.6844 58.3644 55.3867M8.63556 55.6844 8.93333 55.9822 8.63556 55.6844M58.0667 55.6844 58.3644 55.9822 58.0667 55.6844M8.93333 55.9822 9.23111 56.28 8.93333 55.9822M57.7689 55.9822 58.0667 56.28 57.7689 55.9822M9.23111 56.28 9.52889 56.5778 9.23111 56.28Z" fill="#B6D3E1" fill-rule="nonzero" fill-opacity="1"/><path d="M57.4711 56.28 57.7689 56.5778 57.4711 56.28Z" fill="#91BFD5" fill-rule="nonzero" fill-opacity="1"/><path d="M9.52889 56.5778 9.82667 56.8756 9.52889 56.5778Z" fill="#B6D3E1" fill-rule="nonzero" fill-opacity="1"/><path d="M57.1733 56.5778 57.4711 56.8756 57.1733 56.5778M9.82667 56.8756 10.1244 57.1733 9.82667 56.8756M56.8756 56.8756 57.1733 57.1733 56.8756 56.8756Z" fill="#91BFD5" fill-rule="nonzero" fill-opacity="1"/><path d="M10.1244 57.1733 10.4222 57.4711 10.1244 57.1733Z" fill="#B6D3E1" fill-rule="nonzero" fill-opacity="1"/><path d="M56.5778 57.1733 56.8756 57.4711 56.5778 57.1733Z" fill="#91BFD5" fill-rule="nonzero" fill-opacity="1"/><path d="M10.4222 57.4711 10.72 57.7689 10.4222 57.4711Z" fill="#B6D3E1" fill-rule="nonzero" fill-opacity="1"/><path d="M56.28 57.4711 56.5778 57.7689 56.28 57.4711Z" fill="#91BFD5" fill-rule="nonzero" fill-opacity="1"/><path d="M10.72 57.7689 11.0178 58.0667 10.72 57.7689M55.9822 57.7689 56.28 58.0667 55.9822 57.7689M11.0178 58.0667 11.3156 58.3644 11.0178 58.0667M55.6844 58.0667 55.9822 58.3644 55.6844 58.0667M55.3867 58.3644 55.6844 58.6622 55.3867 58.3644Z" fill="#B6D3E1" fill-rule="nonzero" fill-opacity="1"/><path d="M11.9111 58.6622 12.2089 58.96 11.9111 58.6622M12.2089 58.96 12.5067 59.2578 12.2089 58.96M54.4933 58.96 54.7911 59.2578 54.4933 58.96Z" fill="#569FC0" fill-rule="nonzero" fill-opacity="1"/><path d="M12.5067 59.2578 12.8044 59.5556 12.5067 59.2578M54.1956 59.2578 54.4933 59.5556 54.1956 59.2578Z" fill="#91BFD5" fill-rule="nonzero" fill-opacity="1"/><path d="M12.8044 59.5556 13.1022 59.8533 12.8044 59.5556M53.8978 59.5556 54.1956 59.8533 53.8978 59.5556Z" fill="#B6D3E1" fill-rule="nonzero" fill-opacity="1"/><path d="M13.6978 60.1511 13.9956 60.4489 13.6978 60.1511Z" fill="#91BFD5" fill-rule="nonzero" fill-opacity="1"/><path d="M53.0044 60.1511 53.3022 60.4489 53.0044 60.1511Z" fill="#569FC0" fill-rule="nonzero" fill-opacity="1"/><path d="M13.9956 60.4489 14.2933 60.7467 13.9956 60.4489M52.7067 60.4489 53.0044 60.7467 52.7067 60.4489Z" fill="#B6D3E1" fill-rule="nonzero" fill-opacity="1"/><path d="M14.5911 60.7467 14.8889 61.0444 14.5911 60.7467Z" fill="#569FC0" fill-rule="nonzero" fill-opacity="1"/><path d="M14.8889 61.0444 15.1867 61.3422 14.8889 61.0444Z" fill="#B6D3E1" fill-rule="nonzero" fill-opacity="1"/><path d="M51.8133 61.0444 52.1111 61.3422 51.8133 61.0444Z" fill="#91BFD5" fill-rule="nonzero" fill-opacity="1"/><path d="M15.4844 61.3422 15.7822 61.64 15.4844 61.3422Z" fill="#569FC0" fill-rule="nonzero" fill-opacity="1"/><path d="M15.7822 61.64 16.08 61.9378 15.7822 61.64M50.92 61.64 51.2178 61.9378 50.92 61.64Z" fill="#B6D3E1" fill-rule="nonzero" fill-opacity="1"/><path d="M16.3778 61.9378 16.6756 62.2356 16.3778 61.9378Z" fill="#91BFD5" fill-rule="nonzero" fill-opacity="1"/><path d="M50.3244 61.9378 50.6222 62.2356 50.3244 61.9378M16.9733 62.2356 17.2711 62.5333 16.9733 62.2356Z" fill="#569FC0" fill-rule="nonzero" fill-opacity="1"/><path d="M50.0267 62.2356 50.3244 62.5333 50.0267 62.2356M17.2711 62.5333 17.5689 62.8311 17.2711 62.5333Z" fill="#B6D3E1" fill-rule="nonzero" fill-opacity="1"/><path d="M17.5689 62.5333 17.8667 62.8311 17.5689 62.5333Z" fill="#569FC0" fill-rule="nonzero" fill-opacity="1"/><path d="M49.4311 62.5333 49.7289 62.8311 49.4311 62.5333M17.8667 62.8311 18.1644 63.1289 17.8667 62.8311Z" fill="#B6D3E1" fill-rule="nonzero" fill-opacity="1"/><path d="M48.8356 62.8311 49.1333 63.1289 48.8356 62.8311Z" fill="#91BFD5" fill-rule="nonzero" fill-opacity="1"/><path d="M18.4622 63.1289 18.76 63.4267 18.4622 63.1289Z" fill="#B6D3E1" fill-rule="nonzero" fill-opacity="1"/><path d="M48.24 63.1289 48.5378 63.4267 48.24 63.1289Z" fill="#91BFD5" fill-rule="nonzero" fill-opacity="1"/><path d="M19.0578 63.4267 19.3556 63.7244 19.0578 63.4267Z" fill="#B6D3E1" fill-rule="nonzero" fill-opacity="1"/><path d="M19.3556 63.4267 19.6533 63.7244 19.3556 63.4267Z" fill="#569FC0" fill-rule="nonzero" fill-opacity="1"/><path d="M47.6444 63.4267 47.9422 63.7244 47.6444 63.4267Z" fill="#91BFD5" fill-rule="nonzero" fill-opacity="1"/><path d="M19.6533 63.7244 19.9511 64.0222 19.6533 63.7244Z" fill="#B6D3E1" fill-rule="nonzero" fill-opacity="1"/><path d="M19.9511 63.7244 20.2489 64.0222 19.9511 63.7244Z" fill="#569FC0" fill-rule="nonzero" fill-opacity="1"/><path d="M47.0489 63.7244 47.3467 64.0222 47.0489 63.7244Z" fill="#B6D3E1" fill-rule="nonzero" fill-opacity="1"/><path d="M20.5467 64.0222 20.8444 64.32 20.5467 64.0222Z" fill="#91BFD5" fill-rule="nonzero" fill-opacity="1"/><path d="M46.1556 64.0222 46.4533 64.32 46.1556 64.0222Z" fill="#569FC0" fill-rule="nonzero" fill-opacity="1"/><path d="M46.4533 64.0222 46.7511 64.32 46.4533 64.0222M21.1422 64.32 21.44 64.6178 21.1422 64.32Z" fill="#B6D3E1" fill-rule="nonzero" fill-opacity="1"/><path d="M21.44 64.32 21.7378 64.6178 21.44 64.32Z" fill="#569FC0" fill-rule="nonzero" fill-opacity="1"/><path d="M45.56 64.32 45.8578 64.6178 45.56 64.32M22.0356 64.6178 22.3333 64.9156 22.0356 64.6178M44.6667 64.6178 44.9644 64.9156 44.6667 64.6178Z" fill="#91BFD5" fill-rule="nonzero" fill-opacity="1"/><path d="M44.9644 64.6178 45.2622 64.9156 44.9644 64.6178Z" fill="#B6D3E1" fill-rule="nonzero" fill-opacity="1"/><path d="M22.9289 64.9156 23.2267 65.2133 22.9289 64.9156Z" fill="#91BFD5" fill-rule="nonzero" fill-opacity="1"/><path d="M23.2267 64.9156 23.5244 65.2133 23.2267 64.9156Z" fill="#569FC0" fill-rule="nonzero" fill-opacity="1"/><path d="M43.7733 64.9156 44.0711 65.2133 43.7733 64.9156Z" fill="#91BFD5" fill-rule="nonzero" fill-opacity="1"/><path d="M44.0711 64.9156 44.3689 65.2133 44.0711 64.9156Z" fill="#B6D3E1" fill-rule="nonzero" fill-opacity="1"/><path d="M23.8222 65.2133 24.12 65.5111 23.8222 65.2133Z" fill="#91BFD5" fill-rule="nonzero" fill-opacity="1"/><path d="M24.12 65.2133 24.4178 65.5111 24.12 65.2133Z" fill="#569FC0" fill-rule="nonzero" fill-opacity="1"/><path d="M42.88 65.2133 43.1778 65.5111 42.88 65.2133Z" fill="#91BFD5" fill-rule="nonzero" fill-opacity="1"/><path d="M43.1778 65.2133 43.4756 65.5111 43.1778 65.2133M24.7156 65.5111 25.0133 65.8089 24.7156 65.5111Z" fill="#B6D3E1" fill-rule="nonzero" fill-opacity="1"/><path d="M25.0133 65.5111 25.3111 65.8089 25.0133 65.5111Z" fill="#91BFD5" fill-rule="nonzero" fill-opacity="1"/><path d="M25.3111 65.5111 25.6089 65.8089 25.3111 65.5111M41.6889 65.5111 41.9867 65.8089 41.6889 65.5111Z" fill="#569FC0" fill-rule="nonzero" fill-opacity="1"/><path d="M41.9867 65.5111 42.2844 65.8089 41.9867 65.5111M25.9067 65.8089 26.2044 66.1067 25.9067 65.8089Z" fill="#B6D3E1" fill-rule="nonzero" fill-opacity="1"/><path d="M26.2044 65.8089 26.5022 66.1067 26.2044 65.8089Z" fill="#91BFD5" fill-rule="nonzero" fill-opacity="1"/><path d="M26.5022 65.8089 26.8 66.1067 26.5022 65.8089M40.2 65.8089 40.4978 66.1067 40.2 65.8089Z" fill="#569FC0" fill-rule="nonzero" fill-opacity="1"/><path d="M40.4978 65.8089 40.7956 66.1067 40.4978 65.8089Z" fill="#91BFD5" fill-rule="nonzero" fill-opacity="1"/><path d="M40.7956 65.8089 41.0933 66.1067 40.7956 65.8089M27.3956 66.1067 27.6933 66.4044 27.3956 66.1067Z" fill="#B6D3E1" fill-rule="nonzero" fill-opacity="1"/><path d="M27.6933 66.1067 27.9911 66.4044 27.6933 66.1067Z" fill="#91BFD5" fill-rule="nonzero" fill-opacity="1"/><path d="M27.9911 66.1067 28.2889 66.4044 27.9911 66.1067M38.7111 66.1067 39.0089 66.4044 38.7111 66.1067Z" fill="#569FC0" fill-rule="nonzero" fill-opacity="1"/><path d="M39.0089 66.1067 39.3067 66.4044 39.0089 66.1067Z" fill="#91BFD5" fill-rule="nonzero" fill-opacity="1"/><path d="M39.3067 66.1067 39.6044 66.4044 39.3067 66.1067M29.3808 66.5036 29.5792 66.6031 29.3808 66.5036Z" fill="#B6D3E1" fill-rule="nonzero" fill-opacity="1"/><path d="M29.9764 66.5036 30.1747 66.6031 29.9764 66.5036Z" fill="#91BFD5" fill-rule="nonzero" fill-opacity="1"/><path d="M30.572 66.5036 30.7703 66.6031 30.572 66.5036M36.2297 66.5036 36.428 66.6031 36.2297 66.5036Z" fill="#569FC0" fill-rule="nonzero" fill-opacity="1"/><path d="M36.8253 66.5036 37.0236 66.6031 36.8253 66.5036Z" fill="#91BFD5" fill-rule="nonzero" fill-opacity="1"/><path d="M37.4208 66.5036 37.6192 66.6031 37.4208 66.5036Z" fill="#B6D3E1" fill-rule="nonzero" fill-opacity="1"/></g></g></g></g></g></svg>