<svg width="68" height="68" xmlns="http://www.w3.org/2000/svg" xmlns:xlink="http://www.w3.org/1999/xlink" xml:space="preserve" overflow="hidden"><g><g><g><g><g><path d="M66.9895 35.1732C66.9895 29.5407 63.4896 24.6738 58.2944 22.7598 58.5146 21.5694 58.6242 20.3611 58.6224 19.1505 58.6224 8.70555 50.1464 0.229527 39.7014 0.229527 33.6314 0.229527 27.9442 3.1278 24.3896 8.10412 22.6397 6.7369 20.507 6.02607 18.2648 6.02607 12.7415 6.02607 8.20279 10.5101 8.20279 16.0881 8.20279 17.2912 8.42159 18.4944 8.80422 19.5881 3.55466 21.3926 0 26.4236 0 32.0014 0 37.6341 3.49996 42.5557 8.74952 44.4697 8.53098 45.6181 8.42159 46.8212 8.42159 48.0788 8.42159 58.469 16.8976 66.9453 27.2878 66.9453 33.4126 66.9453 39.0453 63.9923 42.5997 59.0707 44.3496 60.4377 46.537 61.2035 48.7791 61.2035 54.3025 61.2035 58.8412 56.7192 58.8412 51.1414 58.8412 49.9383 58.6224 48.7352 58.2397 47.6414 63.3799 45.7822 66.9893 40.7512 66.9893 35.1732Z" fill="#FFFFFF" fill-rule="nonzero" fill-opacity="1"/><path d="M26.1941 28.8843 41.1233 35.7202 56.2164 22.4864C56.4365 21.3881 56.5462 20.2706 56.5443 19.1505 56.5443 9.85423 48.9979 2.30757 39.7014 2.30757 34.1234 2.30757 28.9286 5.04175 25.8115 9.63518L23.2958 22.6504 26.1941 28.8846Z" fill="#F4BD19" fill-rule="nonzero" fill-opacity="1"/><path d="M10.7182 44.6885C10.4996 45.7822 10.3902 46.9306 10.3902 48.079 10.3902 57.3753 17.9913 64.9767 27.2878 64.9767 32.9206 64.9767 38.1157 62.1878 41.2872 57.5941L43.7481 44.5791 40.4123 38.2355 25.4286 31.4 10.7182 44.6885Z" fill="#3CBEB1" fill-rule="nonzero" fill-opacity="1"/><path d="M10.609 18.8223 20.8352 21.2285 23.1318 9.58048C21.7101 8.48675 20.0147 7.94002 18.2101 7.94002 13.7805 7.94002 10.1167 11.5491 10.1167 16.0334 10.1167 16.963 10.2808 17.9474 10.6088 18.8223Z" fill="#E9478C" fill-rule="nonzero" fill-opacity="1"/><path d="M9.73384 21.283C5.14042 22.7596 1.96865 27.1892 1.96865 32.0014 1.96865 36.7045 4.86692 40.9153 9.24181 42.5557L23.624 29.5405 20.999 23.9083 9.73384 21.2832Z" fill="#2C458F" fill-rule="nonzero" fill-opacity="1"/><path d="M43.9122 57.5394C45.3339 58.6334 47.0293 59.2348 48.7791 59.2348 53.2087 59.2348 56.8725 55.6257 56.8725 51.1414 56.8725 50.1571 56.7084 49.2272 56.3805 48.3523L46.1544 45.9463 43.9122 57.5394Z" fill="#95C63D" fill-rule="nonzero" fill-opacity="1"/><path d="M45.9903 43.2666 57.2554 45.8916C61.8489 44.3605 65.0206 39.9857 65.0206 35.1732 65.0206 30.4701 62.1223 26.3142 57.7475 24.6191L42.9826 37.5247 45.9903 43.2668Z" fill="#176655" fill-rule="nonzero" fill-opacity="1"/></g></g></g></g></g></svg>