<svg width="86" height="68" xmlns="http://www.w3.org/2000/svg" xmlns:xlink="http://www.w3.org/1999/xlink" xml:space="preserve" overflow="hidden"><defs><clipPath id="clip0"><rect x="0" y="0" width="86" height="68"/></clipPath><clipPath id="clip1"><rect x="0" y="0" width="86" height="68"/></clipPath><clipPath id="clip2"><rect x="0" y="0" width="86" height="67"/></clipPath><clipPath id="clip3"><rect x="0" y="0" width="86" height="67"/></clipPath><clipPath id="clip4"><rect x="0" y="0" width="86" height="67"/></clipPath></defs><g clip-path="url(#clip0)"><g clip-path="url(#clip1)"><g clip-path="url(#clip2)"><g clip-path="url(#clip3)"><g clip-path="url(#clip4)"><path d="M49.2214 66.9839C48.1222 66.9839 47.1105 66.5558 46.3615 65.8652 45.5833 66.5558 44.6008 66.9352 43.5891 66.9352L43.5405 66.9352C42.451 66.9158 41.381 66.4488 40.6028 65.6415 39.8148 64.8438 39.3771 63.764 39.3868 62.6843L39.3868 62.2465 38.239 64.5617 37.7526 65.5442C37.344 66.3808 36.488 66.9158 35.5444 66.9158L25.7683 66.9158C24.8831 66.9158 24.0659 66.4294 23.6282 65.6706L23.1321 64.7757 21.8092 62.4508 21.8092 62.7427C21.8092 65.0578 19.922 66.945 17.6069 66.945 16.4785 66.945 15.4279 66.5072 14.6302 65.7095L8.41432 59.4936 8.41432 62.7427C8.41432 65.0578 6.52718 66.945 4.21203 66.945 1.89687 66.945 0 65.0675 0 62.7427L0 49.3186C0 47.6163 1.02139 46.0891 2.59725 45.4276 3.11281 45.2136 3.64783 45.1066 4.2023 45.1066 5.33069 45.1066 6.38127 45.5444 7.17893 46.342L13.4046 52.5676 13.4046 49.3186C13.4046 47.0035 15.2917 45.1163 17.6069 45.1163 19.922 45.1163 21.8092 47.0035 21.8092 49.3186L21.8092 49.6786 23.1126 47.3148 23.5893 46.4296C24.0173 45.6416 24.8441 45.1358 25.7488 45.1358L35.9335 45.1358C36.8771 45.1358 37.7234 45.6708 38.132 46.5074L38.6183 47.4996C38.6475 47.5385 38.6573 47.5871 38.6767 47.626L39.3868 49.3284C39.3868 48.2583 39.8246 47.198 40.6028 46.4101 41.3907 45.6027 42.4607 45.1358 43.5405 45.1163L43.5891 45.1163C44.6105 45.1163 45.6222 45.5152 46.4101 46.235 47.1494 45.5638 48.1416 45.1553 49.2214 45.1553 51.5365 45.1553 53.4237 47.0424 53.4237 49.3576L53.4237 52.6163 59.6493 46.3907C60.4372 45.6027 61.5073 45.1553 62.6259 45.1553 63.1804 45.1553 63.7154 45.2623 64.231 45.4763 64.6687 45.6514 65.0675 45.9043 65.408 46.2156 66.1765 45.5249 67.159 45.1553 68.1998 45.1553 69.3185 45.1553 70.369 45.5833 71.1764 46.3809L74.9313 50.1163 78.6861 46.3809C79.4837 45.593 80.5441 45.1553 81.6627 45.1553 82.7911 45.1553 83.8514 45.593 84.6394 46.4004 86.2833 48.0443 86.2736 50.7194 84.6296 52.3536L80.8942 56.0696 84.6102 59.7757C86.2541 61.4197 86.2638 64.0851 84.6199 65.729 83.832 66.5267 82.7619 66.9741 81.6433 66.9741 80.5149 66.9741 79.4643 66.5364 78.6666 65.7387L74.9313 62.0131 71.2056 65.7193C70.4177 66.5072 69.3574 66.945 68.229 66.945 67.2173 66.945 66.2251 66.5656 65.4566 65.9041 64.7173 66.5753 63.7251 66.9936 62.6357 66.9936 60.3205 66.9936 58.4333 65.1064 58.4333 62.7913L58.4333 59.5326 52.2077 65.7582C51.4101 66.5461 50.3595 66.9839 49.2214 66.9839ZM66.8477 58.1707 68.978 56.0501 66.8477 53.9295 66.8477 58.1707Z" fill="#FFFFFF" fill-rule="nonzero" fill-opacity="1" transform="matrix(1.00157 0 0 1 -2.16336e-15 0.00806956)"/><path d="M17.6166 64.5033C17.1594 64.5033 16.7119 64.3282 16.3715 63.9878L5.96298 53.5696 5.96298 62.7427C5.96298 63.7154 5.17505 64.4936 4.21203 64.4936 3.249 64.4936 2.46107 63.7057 2.46107 62.7427L2.46107 49.3186C2.46107 48.6085 2.88908 47.9665 3.55055 47.6941 4.21203 47.4218 4.96105 47.5677 5.46688 48.0735L15.8656 58.482 15.8656 49.3186C15.8656 48.3459 16.6536 47.5677 17.6166 47.5677 18.5893 47.5677 19.3675 48.3556 19.3675 49.3186L19.3675 62.7329C19.3773 63.7057 18.5893 64.5033 17.6166 64.5033M25.7683 47.5871 25.2819 48.4918 21.5465 55.2816 21.0601 56.1376 21.5465 56.9937 25.2819 63.5695 25.7877 64.4644 35.5736 64.4644 36.06 63.4722 38.8518 57.84 40.1067 55.2914 37.2759 55.2914 30.1359 55.3205C29.2021 55.3011 28.3461 56.1571 28.3461 57.0715 28.3461 58.0053 29.2021 58.8419 30.1359 58.8225L34.4452 58.7933 33.3947 60.9236 27.85 60.9236 25.0971 56.0987 27.8694 51.0891 33.7643 51.0891 35.1359 53.91 38.6767 53.91 36.4491 48.5599 35.9627 47.5677 25.7683 47.5677M43.5891 47.558C42.665 47.5677 41.8382 48.414 41.8479 49.3381L41.8479 53.9295 45.3693 53.9295 45.3693 49.3381C45.379 48.4043 44.523 47.5385 43.5891 47.558M49.2311 64.5325C48.2583 64.5325 47.4801 63.7446 47.4801 62.7816L47.4801 49.3576C47.4801 48.3848 48.2681 47.6066 49.2311 47.6066 50.2038 47.6066 50.982 48.3945 50.982 49.3576L50.982 58.5306 61.3905 48.1222C61.8964 47.6163 62.6454 47.4704 63.3068 47.7428 63.9683 48.0152 64.3963 48.6572 64.3963 49.3673L64.3963 62.7816C64.3963 63.7543 63.6084 64.5325 62.6454 64.5325 61.6726 64.5325 60.8944 63.7446 60.8944 62.7816L60.8944 53.5988 50.4762 64.017C50.1455 64.3477 49.698 64.5325 49.2311 64.5325M77.441 56.0501 82.9078 50.5929C83.5985 49.9023 83.5985 48.7934 82.9176 48.1027 82.2269 47.412 81.118 47.412 80.4273 48.093L74.9507 53.5598 69.4741 48.093C68.7835 47.4023 67.6745 47.4023 66.9839 48.1027 66.2932 48.7934 66.2932 49.9023 66.9839 50.5929L72.4507 56.0501 66.9936 61.4878C66.3029 62.1785 66.3029 63.2874 66.9839 63.9781 67.3146 64.3088 67.7621 64.5033 68.229 64.4936 68.6765 64.4936 69.1239 64.3185 69.4741 63.9781L74.941 58.5306 80.4079 63.9781C80.7386 64.3088 81.1861 64.4936 81.653 64.4936 82.1005 64.4936 82.5577 64.3185 82.8981 63.9781 83.5888 63.2874 83.5888 62.1785 82.8884 61.4878L77.441 56.0501ZM43.5891 64.4839C42.665 64.4742 41.8382 63.6279 41.8479 62.7037L41.8479 55.34 45.3693 55.34 45.3693 62.7037C45.379 63.6376 44.523 64.4936 43.5891 64.4839" fill="#009900" fill-rule="nonzero" fill-opacity="1" transform="matrix(1.00157 0 0 1 -2.16336e-15 0.00806956)"/><path d="M59.7368 47.5093C57.9178 47.4899 56.2057 46.7798 54.9314 45.4957L32.8986 23.4726 32.8986 40.6319C32.8986 44.416 29.8149 47.5093 26.0212 47.5093 22.2274 47.5093 19.1438 44.4257 19.1438 40.6319L19.1438 6.87737C19.1438 4.08557 20.8072 1.59532 23.385 0.525287 24.2216 0.175096 25.1068 5.18388e-16 26.0114 5.18388e-16 27.85 5.18388e-16 29.5815 0.719838 30.8752 2.0136L52.9178 24.0368 52.9178 6.87737C52.9178 3.08363 56.0015 0 59.7855 0 63.5695 0 66.6628 3.08363 66.6628 6.87737L66.6628 40.6417C66.6628 44.4257 63.5792 47.519 59.7855 47.519L59.7368 47.519 59.7368 47.5093Z" fill="#FFFFFF" fill-rule="nonzero" fill-opacity="1" transform="matrix(1.00157 0 0 1 -2.16336e-15 0.00806956)"/><path d="M59.7855 45.058C58.6376 45.058 57.4995 44.6105 56.6532 43.7642L30.4569 17.5582 30.4569 40.6319C30.4569 43.0833 28.4725 45.058 26.0309 45.058 23.5893 45.058 21.6049 43.0736 21.6049 40.6319L21.6049 6.87737C21.6049 5.07778 22.6846 3.47273 24.3383 2.78208 25.992 2.09142 27.8986 2.4708 29.1632 3.7451L55.3594 29.9511 55.3594 6.87737C55.3594 4.42603 57.3439 2.45134 59.7855 2.45134 62.2368 2.45134 64.2115 4.43576 64.2115 6.87737L64.2115 40.6417C64.2115 43.0833 62.2368 45.058 59.7855 45.058" fill="#009900" fill-rule="nonzero" fill-opacity="1" transform="matrix(1.00157 0 0 1 -2.16336e-15 0.00806956)"/></g></g></g></g></g></svg>